Italic_opsz6.ufo
<glyph name="comma" format="2">
	<unicode hex="002C"/>
	<advance width="758"/>
	<outline>
		<contour>
			<point x="226.2915630282" y="122" type="curve" smooth="yes"/>
			<point x="226.2915630282" y="62"/>
			<point x="268.2915630282" y="0"/>
			<point x="348.2915630282" y="0" type="curve" smooth="yes"/>
			<point x="378.2915630282" y="0"/>
			<point x="404.2915630282" y="8"/>
			<point x="426.2915630282" y="28" type="curve"/>
			<point x="426.2915630282" y="28"/>
			<point x="426.2915630282" y="28"/>
			<point x="426.2915630282" y="28" type="curve"/>
			<point x="426.2915630282" y="28"/>
			<point x="426.2915630282" y="28"/>
			<point x="426.2915630282" y="28" type="curve"/>
			<point x="426.2915630282" y="-162"/>
			<point x="328.2915630282" y="-272"/>
			<point x="278.2915630282" y="-316" type="curve" smooth="yes"/>
			<point x="258.2915630282" y="-336"/>
			<point x="252.2915630282" y="-340"/>
			<point x="252.2915630282" y="-352" type="curve" smooth="yes"/>
			<point x="252.2915630282" y="-370"/>
			<point x="270.2915630282" y="-388"/>
			<point x="286.2915630282" y="-388" type="curve" smooth="yes"/>
			<point x="314.2915630282" y="-388"/>
			<point x="494.2915630282" y="-228"/>
			<point x="494.2915630282" y="18" type="curve" smooth="yes"/>
			<point x="494.2915630282" y="144"/>
			<point x="442.2915630282" y="242"/>
			<point x="346.2915630282" y="242" type="curve" smooth="yes"/>
			<point x="268.2915630282" y="242"/>
			<point x="226.2915630282" y="180"/>
		</contour>
	</outline>
</glyph>
<glyph name="period" format="2">
	<unicode hex="002E"/>
	<advance width="379"/>
	<outline>
		<contour>
			<point x="288.1457815141" y="60" type="curve" smooth="yes"/>
			<point x="288.1457815141" y="96"/>
			<point x="259.1457815141" y="121"/>
			<point x="228.1457815141" y="121" type="curve" smooth="yes"/>
			<point x="192.1457815141" y="121"/>
			<point x="167.1457815141" y="92"/>
			<point x="167.1457815141" y="61" type="curve" smooth="yes"/>
			<point x="167.1457815141" y="27"/>
			<point x="194.1457815141" y="0"/>
			<point x="228.1457815141" y="0" type="curve" smooth="yes"/>
			<point x="260.1457815141" y="0"/>
			<point x="288.1457815141" y="28"/>
		</contour>
	</outline>
</glyph>
<glyph name="slash" format="2">
	<unicode hex="002F"/>
	<advance width="1276"/>
	<outline>
		<contour>
			<point x="1044.2915630282" y="1404" type="line" smooth="yes"/>
			<point x="1058.2915630282" y="1436"/>
			<point x="1058.2915630282" y="1440"/>
			<point x="1058.2915630282" y="1448" type="curve" smooth="yes"/>
			<point x="1058.2915630282" y="1476"/>
			<point x="1034.2915630282" y="1500"/>
			<point x="1006.2915630282" y="1500" type="curve" smooth="yes"/>
			<point x="972.2915630282" y="1500"/>
			<point x="962.2915630282" y="1476"/>
			<point x="950.2915630282" y="1448" type="curve" smooth="yes"/>
			<point x="168.2915630282" y="-404" type="line" smooth="yes"/>
			<point x="154.2915630282" y="-436"/>
			<point x="154.2915630282" y="-440"/>
			<point x="154.2915630282" y="-448" type="curve" smooth="yes"/>
			<point x="154.2915630282" y="-476"/>
			<point x="178.2915630282" y="-500"/>
			<point x="206.2915630282" y="-500" type="curve" smooth="yes"/>
			<point x="240.2915630282" y="-500"/>
			<point x="250.2915630282" y="-476"/>
			<point x="262.2915630282" y="-448" type="curve" smooth="yes"/>
		</contour>
	</outline>
</glyph>
<glyph name="zero" format="2">
	<unicode hex="0030"/>
	<advance width="638"/>
	<outline>
		<contour>
			<point x="601.1457815141" y="213" type="curve" smooth="yes"/>
			<point x="601.1457815141" y="373"/>
			<point x="515.1457815141" y="452"/>
			<point x="357.1457815141" y="452" type="curve" smooth="yes"/>
			<point x="189.1457815141" y="452"/>
			<point x="113.1457815141" y="363"/>
			<point x="113.1457815141" y="213" type="curve" smooth="yes"/>
			<point x="113.1457815141" y="59"/>
			<point x="194.1457815141" y="-21"/>
			<point x="357.1457815141" y="-21" type="curve" smooth="yes"/>
			<point x="523.1457815141" y="-21"/>
			<point x="601.1457815141" y="62"/>
		</contour>
		<contour>
			<point x="357.1457815141" y="12" type="curve" smooth="yes"/>
			<point x="297.1459315141" y="12"/>
			<point x="260.9870219116" y="27.3150411825"/>
			<point x="239.1958550396" y="52.8634744679" type="curve" smooth="yes"/>
			<point x="206.1457815141" y="91.61209236"/>
			<point x="206.1457815141" y="153.90055"/>
			<point x="206.1457815141" y="222" type="curve" smooth="yes"/>
			<point x="206.1457815141" y="280.10635"/>
			<point x="206.1457815141" y="333.1993438575"/>
			<point x="230.3280145159" y="369.5882331676" type="curve" smooth="yes"/>
			<point x="250.6761801916" y="400.207702775"/>
			<point x="288.1463315141" y="419"/>
			<point x="357.1457815141" y="419" type="curve" smooth="yes"/>
			<point x="423.1463715141" y="419"/>
			<point x="460.298763631" y="401.805709871"/>
			<point x="481.2122166775" y="373.5129964562" type="curve" smooth="yes"/>
			<point x="508.1457815141" y="337.0759896423"/>
			<point x="508.1457815141" y="282.23137"/>
			<point x="508.1457815141" y="222" type="curve" smooth="yes"/>
			<point x="508.1457815141" y="147.91381"/>
			<point x="508.1457815141" y="80.7052311504"/>
			<point x="465.5905066404" y="43.2019274563" type="curve" smooth="yes"/>
			<point x="443.2383262822" y="23.5032975993"/>
			<point x="409.1456515141" y="12"/>
		</contour>
	</outline>
</glyph>
<glyph name="one" format="2">
	<unicode hex="0031"/>
	<advance width="1276"/>
	<outline>
		<contour>
			<point x="546.2915630282" y="766" type="curve"/>
			<point x="546.2915630282" y="170" type="line" smooth="yes"/>
			<point x="546.2915630282" y="112"/>
			<point x="544.2915630282" y="96"/>
			<point x="494.2915630282" y="88" type="curve" smooth="yes"/>
			<point x="440.2915630282" y="80"/>
			<point x="388.2915630282" y="80"/>
			<point x="334.2915630282" y="80" type="curve" smooth="yes"/>
			<point x="272.2915630282" y="80"/>
			<point x="254.2915630282" y="80"/>
			<point x="254.2915630282" y="40" type="curve" smooth="yes"/>
			<point x="254.2915630282" y="0"/>
			<point x="282.2915630282" y="0"/>
			<point x="296.2915630282" y="0" type="curve" smooth="yes"/>
			<point x="348.2915630282" y="0"/>
			<point x="406.2915630282" y="6"/>
			<point x="458.2915630282" y="6" type="curve" smooth="yes"/>
			<point x="570.2915630282" y="8"/>
			<point x="682.2915630282" y="8"/>
			<point x="794.2915630282" y="6" type="curve" smooth="yes"/>
			<point x="848.2915630282" y="6"/>
			<point x="908.2915630282" y="0"/>
			<point x="962.2915630282" y="0" type="curve" smooth="yes"/>
			<point x="976.2915630282" y="0"/>
			<point x="1004.2915630282" y="0"/>
			<point x="1004.2915630282" y="40" type="curve" smooth="yes"/>
			<point x="1004.2915630282" y="80"/>
			<point x="988.2915630282" y="80"/>
			<point x="916.2915630282" y="80" type="curve" smooth="yes"/>
			<point x="864.2915630282" y="80"/>
			<point x="824.2915630282" y="80"/>
			<point x="768.2915630282" y="88" type="curve" smooth="yes"/>
			<point x="716.2915630282" y="96"/>
			<point x="712.2915630282" y="108"/>
			<point x="712.2915630282" y="170" type="curve" smooth="yes"/>
			<point x="712.2915630282" y="842" type="line" smooth="yes"/>
			<point x="712.2915630282" y="880"/>
			<point x="712.2915630282" y="904"/>
			<point x="680.2915630282" y="904" type="curve" smooth="yes"/>
			<point x="674.2915630282" y="904"/>
			<point x="670.2915630282" y="904"/>
			<point x="650.2915630282" y="892" type="curve" smooth="yes"/>
			<point x="608.2915630282" y="868"/>
			<point x="518.2915630282" y="820"/>
			<point x="310.2915630282" y="818" type="curve" smooth="yes"/>
			<point x="260.2915630282" y="818"/>
			<point x="242.2915630282" y="818"/>
			<point x="242.2915630282" y="778" type="curve" smooth="yes"/>
			<point x="242.2915630282" y="738"/>
			<point x="258.2915630282" y="738"/>
			<point x="308.2915630282" y="738" type="curve" smooth="yes"/>
			<point x="332.2915630282" y="738"/>
			<point x="442.2915630282" y="738"/>
		</contour>
	</outline>
</glyph>
<glyph name="two" format="2">
	<unicode hex="0032"/>
	<advance width="1276"/>
	<outline>
		<contour>
			<point x="129" y="0" type="curve" smooth="yes"/>
			<point x="885" y="0" type="line" smooth="yes"/>
			<point x="923" y="0"/>
			<point x="937" y="0"/>
			<point x="945" y="18" type="curve"/>
			<point x="945" y="22"/>
			<point x="1009" y="250"/>
			<point x="1009" y="262" type="curve" smooth="yes"/>
			<point x="1009" y="292"/>
			<point x="979" y="292"/>
			<point x="971" y="292" type="curve" smooth="yes"/>
			<point x="943" y="292"/>
			<point x="939" y="280"/>
			<point x="931" y="254" type="curve" smooth="yes"/>
			<point x="917" y="200"/>
			<point x="903" y="166"/>
			<point x="881" y="166" type="curve"/>
			<point x="841" y="164"/>
			<point x="769" y="162"/>
			<point x="727" y="162" type="curve" smooth="yes"/>
			<point x="369" y="162" type="line"/>
			<point x="517" y="238"/>
			<point x="603" y="284"/>
			<point x="685" y="318" type="curve" smooth="yes"/>
			<point x="865" y="390"/>
			<point x="1009" y="450"/>
			<point x="1009" y="614" type="curve" smooth="yes"/>
			<point x="1009" y="898"/>
			<point x="615" y="904"/>
			<point x="517" y="904" type="curve" smooth="yes"/>
			<point x="205" y="904"/>
			<point x="91" y="784"/>
			<point x="91" y="662" type="curve" smooth="yes"/>
			<point x="91" y="592"/>
			<point x="149" y="574"/>
			<point x="175" y="574" type="curve" smooth="yes"/>
			<point x="207" y="574"/>
			<point x="257" y="598"/>
			<point x="257" y="658" type="curve" smooth="yes"/>
			<point x="257" y="674"/>
			<point x="253" y="720"/>
			<point x="199" y="736" type="curve"/>
			<point x="269" y="818"/>
			<point x="417" y="824"/>
			<point x="471" y="824" type="curve" smooth="yes"/>
			<point x="651" y="824"/>
			<point x="811" y="760"/>
			<point x="811" y="614" type="curve" smooth="yes"/>
			<point x="811" y="486"/>
			<point x="691" y="420"/>
			<point x="539" y="336" type="curve" smooth="yes"/>
			<point x="93" y="84" type="line" smooth="yes"/>
			<point x="71" y="72"/>
			<point x="65" y="68"/>
			<point x="65" y="40" type="curve" smooth="yes"/>
			<point x="65" y="0"/>
			<point x="87" y="0"/>
		</contour>
	</outline>
</glyph>
<glyph name="three" format="2">
	<unicode hex="0033"/>
	<advance width="1276"/>
	<outline>
		<contour>
			<point x="596.2915630282" y="-430" type="curve" smooth="yes"/>
			<point x="894.2915630282" y="-430"/>
			<point x="1090.2915630282" y="-240"/>
			<point x="1090.2915630282" y="-52" type="curve" smooth="yes"/>
			<point x="1090.2915630282" y="110"/>
			<point x="946.2915630282" y="248"/>
			<point x="742.2915630282" y="296" type="curve"/>
			<point x="916.2915630282" y="350"/>
			<point x="1026.2915630282" y="484"/>
			<point x="1026.2915630282" y="628" type="curve" smooth="yes"/>
			<point x="1026.2915630282" y="792"/>
			<point x="826.2915630282" y="904"/>
			<point x="600.2915630282" y="904" type="curve" smooth="yes"/>
			<point x="362.2915630282" y="904"/>
			<point x="186.2915630282" y="800"/>
			<point x="186.2915630282" y="638" type="curve" smooth="yes"/>
			<point x="186.2915630282" y="558"/>
			<point x="248.2915630282" y="532"/>
			<point x="290.2915630282" y="532" type="curve" smooth="yes"/>
			<point x="338.2915630282" y="532"/>
			<point x="392.2915630282" y="568"/>
			<point x="392.2915630282" y="634" type="curve" smooth="yes"/>
			<point x="392.2915630282" y="672"/>
			<point x="372.2915630282" y="726"/>
			<point x="298.2915630282" y="736" type="curve"/>
			<point x="372.2915630282" y="814"/>
			<point x="486.2915630282" y="836"/>
			<point x="594.2915630282" y="836" type="curve" smooth="yes"/>
			<point x="710.2915630282" y="836"/>
			<point x="828.2915630282" y="782"/>
			<point x="828.2915630282" y="630" type="curve" smooth="yes"/>
			<point x="828.2915630282" y="551"/>
			<point x="798.2915630282" y="463"/>
			<point x="738.2915630282" y="402" type="curve" smooth="yes"/>
			<point x="696.2915630282" y="361"/>
			<point x="639.2915630282" y="332"/>
			<point x="568.2915630282" y="328" type="curve" smooth="yes"/>
			<point x="530.2915630282" y="326"/>
			<point x="494.2915630282" y="324"/>
			<point x="456.2915630282" y="322" type="curve" smooth="yes"/>
			<point x="432.2915630282" y="320"/>
			<point x="412.2915630282" y="318"/>
			<point x="412.2915630282" y="286" type="curve" smooth="yes"/>
			<point x="412.2915630282" y="254"/>
			<point x="434.2915630282" y="254"/>
			<point x="472.2915630282" y="254" type="curve" smooth="yes"/>
			<point x="582.2915630282" y="254" type="line" smooth="yes"/>
			<point x="778.2915630282" y="254"/>
			<point x="872.2915630282" y="122"/>
			<point x="872.2915630282" y="-52" type="curve" smooth="yes"/>
			<point x="872.2915630282" y="-256"/>
			<point x="748.2915630282" y="-356"/>
			<point x="590.2915630282" y="-356" type="curve" smooth="yes"/>
			<point x="520.2915630282" y="-356"/>
			<point x="324.2915630282" y="-340"/>
			<point x="240.2915630282" y="-234" type="curve"/>
			<point x="334.2915630282" y="-224"/>
			<point x="344.2915630282" y="-150"/>
			<point x="344.2915630282" y="-124" type="curve" smooth="yes"/>
			<point x="344.2915630282" y="-54"/>
			<point x="288.2915630282" y="-14"/>
			<point x="234.2915630282" y="-14" type="curve" smooth="yes"/>
			<point x="184.2915630282" y="-14"/>
			<point x="122.2915630282" y="-46"/>
			<point x="122.2915630282" y="-128" type="curve" smooth="yes"/>
			<point x="122.2915630282" y="-322"/>
			<point x="342.2915630282" y="-430"/>
		</contour>
	</outline>
</glyph>
<glyph name="four" format="2">
	<unicode hex="0034"/>
	<advance width="638"/>
	<outline>
		<contour>
			<point x="316.1457815141" y="-194" type="curve" smooth="yes"/>
			<point x="337.1457815141" y="-194"/>
			<point x="362.1457815141" y="-191"/>
			<point x="383.1457815141" y="-191" type="curve" smooth="yes"/>
			<point x="442.1457815141" y="-191"/>
			<point x="406.1457815141" y="-190"/>
			<point x="453.1457815141" y="-190" type="curve" smooth="yes"/>
			<point x="476.1457815141" y="-190"/>
			<point x="499.1457815141" y="-191"/>
			<point x="522.1457815141" y="-191" type="curve" smooth="yes"/>
			<point x="544.1457815141" y="-191"/>
			<point x="569.1457815141" y="-194"/>
			<point x="591.1457815141" y="-194" type="curve" smooth="yes"/>
			<point x="608.1457815141" y="-194"/>
			<point x="610.1457815141" y="-184"/>
			<point x="610.1457815141" y="-174" type="curve" smooth="yes"/>
			<point x="610.1457815141" y="-154"/>
			<point x="602.1457815141" y="-154"/>
			<point x="577.1457815141" y="-154" type="curve" smooth="yes"/>
			<point x="572.1457815141" y="-154"/>
			<point x="540.1457815141" y="-154"/>
			<point x="518.1457815141" y="-150" type="curve" smooth="yes"/>
			<point x="500.1457815141" y="-147"/>
			<point x="497.1457815141" y="-144"/>
			<point x="497.1457815141" y="-111" type="curve" smooth="yes"/>
			<point x="497.1457815141" y="0" type="line"/>
			<point x="585.1457815141" y="0" type="line" smooth="yes"/>
			<point x="607.1457815141" y="0"/>
			<point x="616.1457815141" y="0"/>
			<point x="616.1457815141" y="20" type="curve" smooth="yes"/>
			<point x="616.1457815141" y="40"/>
			<point x="607.1457815141" y="40"/>
			<point x="585.1457815141" y="40" type="curve" smooth="yes"/>
			<point x="497.1457815141" y="40" type="line"/>
			<point x="497.1457815141" y="431" type="line" smooth="yes"/>
			<point x="497.1457815141" y="457"/>
			<point x="497.1457815141" y="462"/>
			<point x="471.1457815141" y="462" type="curve" smooth="yes"/>
			<point x="453.1457815141" y="462"/>
			<point x="452.1457815141" y="461"/>
			<point x="439.1457815141" y="446" type="curve" smooth="yes"/>
			<point x="108.1457815141" y="52" type="line" smooth="yes"/>
			<point x="98.1457815141" y="41"/>
			<point x="98.1457815141" y="39"/>
			<point x="98.1457815141" y="25" type="curve" smooth="yes"/>
			<point x="98.1457815141" y="0"/>
			<point x="105.1457815141" y="0"/>
			<point x="130.1457815141" y="0" type="curve" smooth="yes"/>
			<point x="410.1457815141" y="0" type="line"/>
			<point x="410.1457815141" y="-111" type="line" smooth="yes"/>
			<point x="410.1457815141" y="-149"/>
			<point x="410.1457815141" y="-154"/>
			<point x="333.1457815141" y="-154" type="curve" smooth="yes"/>
			<point x="333.1457815141" y="-154"/>
			<point x="333.1457815141" y="-154"/>
			<point x="333.1457815141" y="-154" type="curve" smooth="yes"/>
			<point x="304.1457815141" y="-154"/>
			<point x="297.1457815141" y="-154"/>
			<point x="297.1457815141" y="-174" type="curve" smooth="yes"/>
			<point x="297.1457815141" y="-184"/>
			<point x="298.1457815141" y="-194"/>
		</contour>
		<contour>
			<point x="417.1457815141" y="40" type="line"/>
			<point x="143.1457815141" y="40" type="line"/>
			<point x="417.1457815141" y="367" type="line"/>
		</contour>
	</outline>
</glyph>
<glyph name="five" format="2">
	<unicode hex="0035"/>
	<advance width="638"/>
	<outline>
		<contour>
			<point x="337.1457815141" y="-215" type="curve" smooth="yes"/>
			<point x="476.1457815141" y="-215"/>
			<point x="590.1457815141" y="-119"/>
			<point x="590.1457815141" y="1" type="curve" smooth="yes"/>
			<point x="590.1457815141" y="109"/>
			<point x="501.1457815141" y="213"/>
			<point x="369.1457815141" y="213" type="curve" smooth="yes"/>
			<point x="321.1457815141" y="213"/>
			<point x="268.1457815141" y="202"/>
			<point x="222.1457815141" y="164" type="curve"/>
			<point x="222.1457815141" y="344" type="line"/>
			<point x="234.1457815141" y="341"/>
			<point x="278.1457815141" y="331"/>
			<point x="326.1457815141" y="331" type="curve" smooth="yes"/>
			<point x="344.1457815141" y="331"/>
			<point x="397.1457815141" y="332"/>
			<point x="457.1457815141" y="362" type="curve" smooth="yes"/>
			<point x="495.1457815141" y="381"/>
			<point x="545.1457815141" y="418"/>
			<point x="545.1457815141" y="435" type="curve" smooth="yes"/>
			<point x="545.1457815141" y="450"/>
			<point x="534.1457815141" y="452"/>
			<point x="531.1457815141" y="452" type="curve" smooth="yes"/>
			<point x="529.1457815141" y="452"/>
			<point x="527.1457815141" y="452"/>
			<point x="517.1457815141" y="448" type="curve" smooth="yes"/>
			<point x="459.1457815141" y="427"/>
			<point x="404.1457815141" y="421"/>
			<point x="364.1457815141" y="421" type="curve" smooth="yes"/>
			<point x="287.1457815141" y="421"/>
			<point x="232.1457815141" y="440"/>
			<point x="207.1457815141" y="449" type="curve"/>
			<point x="200.1457815141" y="452"/>
			<point x="198.1457815141" y="452"/>
			<point x="196.1457815141" y="452" type="curve" smooth="yes"/>
			<point x="182.1457815141" y="452"/>
			<point x="182.1457815141" y="439"/>
			<point x="182.1457815141" y="422" type="curve" smooth="yes"/>
			<point x="182.1457815141" y="135" type="line" smooth="yes"/>
			<point x="182.1457815141" y="114"/>
			<point x="182.1457815141" y="104"/>
			<point x="200.1457815141" y="104" type="curve" smooth="yes"/>
			<point x="210.1457815141" y="104"/>
			<point x="212.1457815141" y="107"/>
			<point x="219.1457815141" y="116" type="curve" smooth="yes"/>
			<point x="262.1457815141" y="170"/>
			<point x="326.1457815141" y="180"/>
			<point x="368.1457815141" y="180" type="curve" smooth="yes"/>
			<point x="433.1457815141" y="180"/>
			<point x="463.1457815141" y="134"/>
			<point x="471.1457815141" y="118" type="curve" smooth="yes"/>
			<point x="489.1457815141" y="86"/>
			<point x="493.1457815141" y="45"/>
			<point x="493.1457815141" y="4" type="curve" smooth="yes"/>
			<point x="493.1457815141" y="-26"/>
			<point x="492.1457815141" y="-79"/>
			<point x="461.1457815141" y="-121" type="curve"/>
			<point x="447.1457815141" y="-138"/>
			<point x="408.1457815141" y="-178"/>
			<point x="335.1457815141" y="-178" type="curve" smooth="yes"/>
			<point x="268.1457815141" y="-178"/>
			<point x="198.1457815141" y="-145"/>
			<point x="172.1457815141" y="-88" type="curve"/>
			<point x="207.1457815141" y="-86"/>
			<point x="224.1457815141" y="-65"/>
			<point x="224.1457815141" y="-37" type="curve" smooth="yes"/>
			<point x="224.1457815141" y="0"/>
			<point x="193.1457815141" y="13"/>
			<point x="174.1457815141" y="13" type="curve" smooth="yes"/>
			<point x="162.1457815141" y="13"/>
			<point x="124.1457815141" y="5"/>
			<point x="124.1457815141" y="-41" type="curve" smooth="yes"/>
			<point x="124.1457815141" y="-131"/>
			<point x="213.1457815141" y="-215"/>
		</contour>
	</outline>
</glyph>
<glyph name="six" format="2">
	<unicode hex="0036"/>
	<advance width="638"/>
	<outline>
		<contour>
			<point x="213.1457815141" y="330" type="curve"/>
			<point x="214.1457815141" y="390"/>
			<point x="216.1457815141" y="468"/>
			<point x="258.1457815141" y="537" type="curve" smooth="yes"/>
			<point x="287.1457815141" y="582"/>
			<point x="344.1457815141" y="631"/>
			<point x="423.1457815141" y="631" type="curve" smooth="yes"/>
			<point x="445.1457815141" y="631"/>
			<point x="489.1457815141" y="628"/>
			<point x="516.1457815141" y="601" type="curve"/>
			<point x="510.1457815141" y="600"/>
			<point x="475.1457815141" y="591"/>
			<point x="475.1457815141" y="553" type="curve" smooth="yes"/>
			<point x="475.1457815141" y="529"/>
			<point x="492.1457815141" y="506"/>
			<point x="522.1457815141" y="506" type="curve" smooth="yes"/>
			<point x="549.1457815141" y="506"/>
			<point x="570.1457815141" y="523"/>
			<point x="570.1457815141" y="556" type="curve" smooth="yes"/>
			<point x="570.1457815141" y="610"/>
			<point x="529.1457815141" y="665"/>
			<point x="422.1457815141" y="665" type="curve" smooth="yes"/>
			<point x="267.1457815141" y="665"/>
			<point x="115.1457815141" y="530"/>
			<point x="115.1457815141" y="317" type="curve" smooth="yes"/>
			<point x="115.1457815141" y="65"/>
			<point x="238.1457815141" y="-21"/>
			<point x="359.1457815141" y="-21" type="curve" smooth="yes"/>
			<point x="408.1457815141" y="-21"/>
			<point x="470.1457815141" y="-11"/>
			<point x="531.1457815141" y="47" type="curve" smooth="yes"/>
			<point x="572.1457815141" y="88"/>
			<point x="599.1457815141" y="131"/>
			<point x="599.1457815141" y="204" type="curve" smooth="yes"/>
			<point x="599.1457815141" y="272"/>
			<point x="577.1457815141" y="317"/>
			<point x="532.1457815141" y="361" type="curve" smooth="yes"/>
			<point x="468.1457815141" y="423"/>
			<point x="405.1457815141" y="426"/>
			<point x="368.1457815141" y="426" type="curve" smooth="yes"/>
			<point x="299.1457815141" y="426"/>
			<point x="245.1457815141" y="387"/>
		</contour>
		<contour>
			<point x="359.1457815141" y="16" type="curve" smooth="yes"/>
			<point x="302.1457815141" y="16"/>
			<point x="264.1457815141" y="49"/>
			<point x="243.1457815141" y="84" type="curve" smooth="yes"/>
			<point x="230.1457815141" y="107"/>
			<point x="216.1457815141" y="156"/>
			<point x="216.1457815141" y="227" type="curve" smooth="yes"/>
			<point x="216.1457815141" y="304"/>
			<point x="266.1457815141" y="393"/>
			<point x="365.1457815141" y="393" type="curve" smooth="yes"/>
			<point x="398.1457815141" y="393"/>
			<point x="435.1457815141" y="388"/>
			<point x="470.1457815141" y="343" type="curve" smooth="yes"/>
			<point x="501.1457815141" y="303"/>
			<point x="501.1457815141" y="259"/>
			<point x="501.1457815141" y="204" type="curve" smooth="yes"/>
			<point x="501.1457815141" y="140"/>
			<point x="500.1457815141" y="102"/>
			<point x="464.1457815141" y="60" type="curve" smooth="yes"/>
			<point x="435.1457815141" y="28"/>
			<point x="402.1457815141" y="16"/>
		</contour>
	</outline>
</glyph>
<glyph name="seven" format="2">
	<unicode hex="0037"/>
	<advance width="1276"/>
	<outline>
		<contour>
			<point x="477" y="-430" type="curve" smooth="yes"/>
			<point x="527" y="-430"/>
			<point x="573" y="-400"/>
			<point x="573" y="-324" type="curve"/>
			<point x="573" y="-324" type="line"/>
			<point x="573" y="-154"/>
			<point x="577" y="104"/>
			<point x="683" y="304" type="curve" smooth="yes"/>
			<point x="727" y="384"/>
			<point x="775" y="438"/>
			<point x="955" y="640" type="curve" smooth="yes"/>
			<point x="997" y="690"/>
			<point x="1039" y="738"/>
			<point x="1081" y="788" type="curve"/>
			<point x="1093" y="800"/>
			<point x="1093" y="804"/>
			<point x="1093" y="822" type="curve" smooth="yes"/>
			<point x="1093" y="862"/>
			<point x="1075" y="862"/>
			<point x="1031" y="862" type="curve" smooth="yes"/>
			<point x="551" y="862" type="line" smooth="yes"/>
			<point x="473" y="862"/>
			<point x="387" y="866"/>
			<point x="309" y="872" type="curve" smooth="yes"/>
			<point x="263" y="876"/>
			<point x="259" y="876"/>
			<point x="239" y="888" type="curve"/>
			<point x="239" y="900"/>
			<point x="239" y="926"/>
			<point x="203" y="926" type="curve" smooth="yes"/>
			<point x="175" y="926"/>
			<point x="169" y="914"/>
			<point x="161" y="878" type="curve" smooth="yes"/>
			<point x="137" y="760"/>
			<point x="115" y="642"/>
			<point x="91" y="524" type="curve"/>
			<point x="91" y="496"/>
			<point x="121" y="494"/>
			<point x="129" y="494" type="curve" smooth="yes"/>
			<point x="159" y="494"/>
			<point x="163" y="510"/>
			<point x="169" y="536" type="curve" smooth="yes"/>
			<point x="181" y="596"/>
			<point x="197" y="678"/>
			<point x="223" y="682" type="curve"/>
			<point x="283" y="688"/>
			<point x="357" y="688"/>
			<point x="423" y="688" type="curve" smooth="yes"/>
			<point x="895" y="688" type="line"/>
			<point x="849" y="634"/>
			<point x="797" y="572"/>
			<point x="757" y="528" type="curve" smooth="yes"/>
			<point x="699" y="462"/>
			<point x="575" y="324"/>
			<point x="487" y="132" type="curve" smooth="yes"/>
			<point x="427" y="4"/>
			<point x="383" y="-148"/>
			<point x="383" y="-318" type="curve" smooth="yes"/>
			<point x="383" y="-422"/>
			<point x="451" y="-430"/>
		</contour>
	</outline>
</glyph>
<glyph name="eight" format="2">
	<unicode hex="0038"/>
	<advance width="1276"/>
	<outline>
		<contour>
			<point x="604.2915630282" y="-42" type="curve" smooth="yes"/>
			<point x="868.2915630282" y="-42"/>
			<point x="1090.2915630282" y="116"/>
			<point x="1090.2915630282" y="338" type="curve" smooth="yes"/>
			<point x="1090.2915630282" y="458"/>
			<point x="1022.2915630282" y="574"/>
			<point x="880.2915630282" y="654" type="curve" smooth="yes"/>
			<point x="854.2915630282" y="670"/>
			<point x="788.2915630282" y="706"/>
			<point x="762.2915630282" y="720" type="curve"/>
			<point x="860.2915630282" y="768"/>
			<point x="1026.2915630282" y="850"/>
			<point x="1026.2915630282" y="1030" type="curve" smooth="yes"/>
			<point x="1026.2915630282" y="1224"/>
			<point x="818.2915630282" y="1330"/>
			<point x="608.2915630282" y="1330" type="curve" smooth="yes"/>
			<point x="376.2915630282" y="1330"/>
			<point x="186.2915630282" y="1188"/>
			<point x="186.2915630282" y="996" type="curve" smooth="yes"/>
			<point x="186.2915630282" y="862"/>
			<point x="280.2915630282" y="768"/>
			<point x="354.2915630282" y="724" type="curve" smooth="yes"/>
			<point x="384.2915630282" y="708"/>
			<point x="414.2915630282" y="690"/>
			<point x="444.2915630282" y="674" type="curve"/>
			<point x="304.2915630282" y="620"/>
			<point x="122.2915630282" y="506"/>
			<point x="122.2915630282" y="308" type="curve" smooth="yes"/>
			<point x="122.2915630282" y="78"/>
			<point x="368.2915630282" y="-42"/>
		</contour>
		<contour>
			<point x="608.2915630282" y="32" type="curve" smooth="yes"/>
			<point x="424.2915630282" y="32"/>
			<point x="248.2915630282" y="136"/>
			<point x="248.2915630282" y="308" type="curve" smooth="yes"/>
			<point x="248.2915630282" y="508"/>
			<point x="456.2915630282" y="604"/>
			<point x="520.2915630282" y="632" type="curve"/>
			<point x="614.2915630282" y="580"/>
			<point x="708.2915630282" y="528"/>
			<point x="802.2915630282" y="476" type="curve" smooth="yes"/>
			<point x="860.2915630282" y="444"/>
			<point x="964.2915630282" y="386"/>
			<point x="964.2915630282" y="272" type="curve" smooth="yes"/>
			<point x="964.2915630282" y="114"/>
			<point x="780.2915630282" y="32"/>
		</contour>
		<contour>
			<point x="686.2915630282" y="762" type="curve"/>
			<point x="666.2915630282" y="772"/>
			<point x="484.2915630282" y="872"/>
			<point x="446.2915630282" y="894" type="curve" smooth="yes"/>
			<point x="370.2915630282" y="936"/>
			<point x="296.2915630282" y="978"/>
			<point x="296.2915630282" y="1068" type="curve" smooth="yes"/>
			<point x="296.2915630282" y="1198"/>
			<point x="454.2915630282" y="1262"/>
			<point x="604.2915630282" y="1262" type="curve" smooth="yes"/>
			<point x="768.2915630282" y="1262"/>
			<point x="916.2915630282" y="1172"/>
			<point x="916.2915630282" y="1030" type="curve" smooth="yes"/>
			<point x="916.2915630282" y="878"/>
			<point x="758.2915630282" y="792"/>
		</contour>
	</outline>
</glyph>
<glyph name="nine" format="2">
	<unicode hex="0039"/>
	<advance width="638"/>
	<outline>
		<contour>
			<point x="501.1457815141" y="111" type="curve"/>
			<point x="501.1457815141" y="48"/>
			<point x="496.1457815141" y="-21"/>
			<point x="465.1457815141" y="-80" type="curve" smooth="yes"/>
			<point x="442.1457815141" y="-121"/>
			<point x="390.1457815141" y="-178"/>
			<point x="305.1457815141" y="-178" type="curve" smooth="yes"/>
			<point x="292.1457815141" y="-178"/>
			<point x="234.1457815141" y="-178"/>
			<point x="201.1457815141" y="-153" type="curve"/>
			<point x="207.1457815141" y="-152"/>
			<point x="239.1457815141" y="-144"/>
			<point x="239.1457815141" y="-105" type="curve" smooth="yes"/>
			<point x="239.1457815141" y="-81"/>
			<point x="222.1457815141" y="-58"/>
			<point x="192.1457815141" y="-58" type="curve" smooth="yes"/>
			<point x="165.1457815141" y="-58"/>
			<point x="144.1457815141" y="-75"/>
			<point x="144.1457815141" y="-108" type="curve" smooth="yes"/>
			<point x="144.1457815141" y="-215"/>
			<point x="283.1457815141" y="-215"/>
			<point x="306.1457815141" y="-215" type="curve" smooth="yes"/>
			<point x="460.1457815141" y="-215"/>
			<point x="599.1457815141" y="-79"/>
			<point x="599.1457815141" y="125" type="curve" smooth="yes"/>
			<point x="599.1457815141" y="358"/>
			<point x="489.1457815141" y="452"/>
			<point x="360.1457815141" y="452" type="curve" smooth="yes"/>
			<point x="267.1457815141" y="452"/>
			<point x="218.1457815141" y="416"/>
			<point x="180.1457815141" y="380" type="curve" smooth="yes"/>
			<point x="127.1457815141" y="332"/>
			<point x="115.1457815141" y="281"/>
			<point x="115.1457815141" y="234" type="curve" smooth="yes"/>
			<point x="115.1457815141" y="147"/>
			<point x="155.1457815141" y="108"/>
			<point x="183.1457815141" y="80" type="curve" smooth="yes"/>
			<point x="241.1457815141" y="24"/>
			<point x="302.1457815141" y="17"/>
			<point x="346.1457815141" y="17" type="curve" smooth="yes"/>
			<point x="400.1457815141" y="17"/>
			<point x="460.1457815141" y="42"/>
		</contour>
		<contour>
			<point x="348.1457815141" y="50" type="curve" smooth="yes"/>
			<point x="328.1457815141" y="50"/>
			<point x="281.1457815141" y="50"/>
			<point x="244.1457815141" y="98" type="curve" smooth="yes"/>
			<point x="215.1457815141" y="136"/>
			<point x="213.1457815141" y="167"/>
			<point x="213.1457815141" y="232" type="curve" smooth="yes"/>
			<point x="213.1457815141" y="289"/>
			<point x="213.1457815141" y="331"/>
			<point x="249.1457815141" y="371" type="curve" smooth="yes"/>
			<point x="271.1457815141" y="395"/>
			<point x="300.1457815141" y="418"/>
			<point x="361.1457815141" y="418" type="curve" smooth="yes"/>
			<point x="417.1457815141" y="418"/>
			<point x="454.1457815141" y="385"/>
			<point x="473.1457815141" y="350" type="curve" smooth="yes"/>
			<point x="490.1457815141" y="319"/>
			<point x="498.1457815141" y="269"/>
			<point x="498.1457815141" y="214" type="curve" smooth="yes"/>
			<point x="498.1457815141" y="134"/>
			<point x="445.1457815141" y="50"/>
		</contour>
	</outline>
</glyph>
<glyph name="less" format="2">
	<unicode hex="003C"/>
	<advance width="1924"/>
	<outline>
		<contour>
			<point x="1592.2915630282" y="1070" type="line" smooth="yes"/>
			<point x="1622.2915630282" y="1084"/>
			<point x="1642.2915630282" y="1094"/>
			<point x="1642.2915630282" y="1126" type="curve" smooth="yes"/>
			<point x="1642.2915630282" y="1154"/>
			<point x="1618.2915630282" y="1178"/>
			<point x="1590.2915630282" y="1178" type="curve" smooth="yes"/>
			<point x="1584.2915630282" y="1178"/>
			<point x="1576.2915630282" y="1178"/>
			<point x="1552.2915630282" y="1166" type="curve" smooth="yes"/>
			<point x="268.2915630282" y="556" type="line" smooth="yes"/>
			<point x="238.2915630282" y="542"/>
			<point x="218.2915630282" y="532"/>
			<point x="218.2915630282" y="500" type="curve" smooth="yes"/>
			<point x="218.2915630282" y="476"/>
			<point x="230.2915630282" y="460"/>
			<point x="264.2915630282" y="444" type="curve" smooth="yes"/>
			<point x="1546.2915630282" y="-164" type="line" smooth="yes"/>
			<point x="1574.2915630282" y="-178"/>
			<point x="1588.2915630282" y="-178"/>
			<point x="1590.2915630282" y="-178" type="curve" smooth="yes"/>
			<point x="1618.2915630282" y="-178"/>
			<point x="1642.2915630282" y="-154"/>
			<point x="1642.2915630282" y="-126" type="curve" smooth="yes"/>
			<point x="1642.2915630282" y="-104"/>
			<point x="1630.2915630282" y="-86"/>
			<point x="1596.2915630282" y="-70" type="curve" smooth="yes"/>
			<point x="392.2915630282" y="500" type="line"/>
		</contour>
	</outline>
</glyph>
<glyph name="greater" format="2">
	<unicode hex="003E"/>
	<advance width="1924"/>
	<outline>
		<contour>
			<point x="1529" y="444" type="line" smooth="yes"/>
			<point x="1559" y="458"/>
			<point x="1579" y="468"/>
			<point x="1579" y="500" type="curve" smooth="yes"/>
			<point x="1579" y="524"/>
			<point x="1567" y="540"/>
			<point x="1533" y="556" type="curve" smooth="yes"/>
			<point x="251" y="1164" type="line" smooth="yes"/>
			<point x="223" y="1178"/>
			<point x="209" y="1178"/>
			<point x="207" y="1178" type="curve" smooth="yes"/>
			<point x="179" y="1178"/>
			<point x="155" y="1154"/>
			<point x="155" y="1126" type="curve" smooth="yes"/>
			<point x="155" y="1104"/>
			<point x="167" y="1086"/>
			<point x="201" y="1070" type="curve" smooth="yes"/>
			<point x="1405" y="500" type="line"/>
			<point x="205" y="-70" type="line" smooth="yes"/>
			<point x="175" y="-84"/>
			<point x="155" y="-94"/>
			<point x="155" y="-126" type="curve" smooth="yes"/>
			<point x="155" y="-154"/>
			<point x="179" y="-178"/>
			<point x="207" y="-178" type="curve" smooth="yes"/>
			<point x="213" y="-178"/>
			<point x="221" y="-178"/>
			<point x="245" y="-166" type="curve" smooth="yes"/>
		</contour>
	</outline>
</glyph>
<glyph name="A" format="2">
	<unicode hex="0041"/>
	<advance width="1848"/>
	<outline>
		<contour>
			<point x="1248.2915630282" y="454" type="line"/>
			<point x="1259.2915630282" y="389"/>
			<point x="1270.2915630282" y="325"/>
			<point x="1280.2915630282" y="260" type="curve"/>
			<point x="1287.2915630282" y="217"/>
			<point x="1294.2915630282" y="175"/>
			<point x="1300.2915630282" y="132" type="curve"/>
			<point x="1300.2915630282" y="80"/>
			<point x="1184.2915630282" y="80"/>
			<point x="1164.2915630282" y="80" type="curve" smooth="yes"/>
			<point x="1138.2915630282" y="80"/>
			<point x="1106.2915630282" y="80"/>
			<point x="1106.2915630282" y="30" type="curve" smooth="yes"/>
			<point x="1106.2915630282" y="20"/>
			<point x="1116.2915630282" y="0"/>
			<point x="1140.2915630282" y="0" type="curve" smooth="yes"/>
			<point x="1200.2915630282" y="0"/>
			<point x="1346.2915630282" y="8"/>
			<point x="1406.2915630282" y="8" type="curve" smooth="yes"/>
			<point x="1566.2915630282" y="8"/>
			<point x="1590.2915630282" y="0"/>
			<point x="1646.2915630282" y="0" type="curve" smooth="yes"/>
			<point x="1658.2915630282" y="0"/>
			<point x="1690.2915630282" y="0"/>
			<point x="1690.2915630282" y="50" type="curve" smooth="yes"/>
			<point x="1690.2915630282" y="80"/>
			<point x="1664.2915630282" y="80"/>
			<point x="1634.2915630282" y="80" type="curve" smooth="yes"/>
			<point x="1510.2915630282" y="80"/>
			<point x="1508.2915630282" y="94"/>
			<point x="1500.2915630282" y="144" type="curve" smooth="yes"/>
			<point x="1300.2915630282" y="1374" type="line" smooth="yes"/>
			<point x="1294.2915630282" y="1410"/>
			<point x="1292.2915630282" y="1428"/>
			<point x="1248.2915630282" y="1428" type="curve" smooth="yes"/>
			<point x="1206.2915630282" y="1428"/>
			<point x="1194.2915630282" y="1412"/>
			<point x="1176.2915630282" y="1384" type="curve" smooth="yes"/>
			<point x="420.2915630282" y="244" type="line" smooth="yes"/>
			<point x="344.2915630282" y="128"/>
			<point x="276.2915630282" y="88"/>
			<point x="164.2915630282" y="80" type="curve" smooth="yes"/>
			<point x="136.2915630282" y="78"/>
			<point x="112.2915630282" y="76"/>
			<point x="112.2915630282" y="30" type="curve" smooth="yes"/>
			<point x="112.2915630282" y="10"/>
			<point x="128.2915630282" y="0"/>
			<point x="142.2915630282" y="0" type="curve" smooth="yes"/>
			<point x="198.2915630282" y="0"/>
			<point x="264.2915630282" y="8"/>
			<point x="322.2915630282" y="8" type="curve" smooth="yes"/>
			<point x="370.2915630282" y="8"/>
			<point x="488.2915630282" y="0"/>
			<point x="536.2915630282" y="0" type="curve" smooth="yes"/>
			<point x="558.2915630282" y="0"/>
			<point x="580.2915630282" y="10"/>
			<point x="580.2915630282" y="50" type="curve" smooth="yes"/>
			<point x="580.2915630282" y="78"/>
			<point x="552.2915630282" y="80"/>
			<point x="546.2915630282" y="80" type="curve" smooth="yes"/>
			<point x="498.2915630282" y="82"/>
			<point x="454.2915630282" y="94"/>
			<point x="454.2915630282" y="138" type="curve" smooth="yes"/>
			<point x="454.2915630282" y="162"/>
			<point x="476.2915630282" y="196"/>
			<point x="482.2915630282" y="208" type="curve"/>
			<point x="646.2915630282" y="454" type="line"/>
			<point x="646.2915630282" y="454"/>
			<point x="646.2915630282" y="454"/>
			<point x="646.2915630282" y="454" type="curve"/>
		</contour>
		<contour>
			<point x="698.2915630282" y="534" type="line"/>
			<point x="1130.2915630282" y="1184" type="line"/>
			<point x="1234.2915630282" y="534" type="line"/>
		</contour>
	</outline>
</glyph>
<glyph name="B" format="2">
	<unicode hex="0042"/>
	<advance width="926"/>
	<outline>
		<contour>
			<point x="787.72135955" y="213" type="curve" smooth="yes"/>
			<point x="787.72135955" y="275"/>
			<point x="733.72135955" y="341"/>
			<point x="608.72135955" y="358" type="curve"/>
			<point x="723.72135955" y="376"/>
			<point x="837.72135955" y="449"/>
			<point x="837.72135955" y="540" type="curve" smooth="yes"/>
			<point x="837.72135955" y="612"/>
			<point x="758.72135955" y="683"/>
			<point x="617.72135955" y="683" type="curve" smooth="yes"/>
			<point x="234.72135955" y="683" type="line" smooth="yes"/>
			<point x="215.72135955" y="683"/>
			<point x="200.72135955" y="683"/>
			<point x="200.72135955" y="658" type="curve" smooth="yes"/>
			<point x="200.72135955" y="643"/>
			<point x="215.72135955" y="643"/>
			<point x="233.72135955" y="643" type="curve" smooth="yes"/>
			<point x="242.72135955" y="643"/>
			<point x="249.72135955" y="643"/>
			<point x="265.72135955" y="642" type="curve" smooth="yes"/>
			<point x="287.72135955" y="641"/>
			<point x="297.72135955" y="639"/>
			<point x="297.72135955" y="629" type="curve" smooth="yes"/>
			<point x="297.72135955" y="627"/>
			<point x="297.72135955" y="620"/>
			<point x="293.72135955" y="604" type="curve" smooth="yes"/>
			<point x="162.72135955" y="83" type="line" smooth="yes"/>
			<point x="153.72135955" y="47"/>
			<point x="151.72135955" y="40"/>
			<point x="76.72135955" y="40" type="curve" smooth="yes"/>
			<point x="57.72135955" y="40"/>
			<point x="44.72135955" y="43"/>
			<point x="40.72135955" y="22" type="curve" smooth="yes"/>
			<point x="37.72135955" y="7"/>
			<point x="43.72135955" y="0"/>
			<point x="63.72135955" y="0" type="curve" smooth="yes"/>
			<point x="478.72135955" y="0" type="line" smooth="yes"/>
			<point x="651.72135955" y="0"/>
			<point x="787.72135955" y="113"/>
		</contour>
		<contour>
			<point x="735.72135955" y="538" type="curve" smooth="yes"/>
			<point x="735.72135955" y="456"/>
			<point x="631.72135955" y="372"/>
			<point x="508.72135955" y="372" type="curve" smooth="yes"/>
			<point x="326.72135955" y="372" type="line"/>
			<point x="385.72135955" y="609" type="line" smooth="yes"/>
			<point x="393.72135955" y="641"/>
			<point x="394.72135955" y="643"/>
			<point x="436.72135955" y="643" type="curve" smooth="yes"/>
			<point x="601.72135955" y="643" type="line" smooth="yes"/>
			<point x="705.72135955" y="643"/>
			<point x="735.72135955" y="580"/>
		</contour>
		<contour>
			<point x="682.72135955" y="218" type="curve" smooth="yes"/>
			<point x="682.72135955" y="122"/>
			<point x="576.72135955" y="40"/>
			<point x="452.72135955" y="40" type="curve" smooth="yes"/>
			<point x="278.72135955" y="40" type="line" smooth="yes"/>
			<point x="259.72135955" y="40"/>
			<point x="257.72135955" y="40"/>
			<point x="245.72135955" y="43" type="curve"/>
			<point x="317.72135955" y="339" type="line"/>
			<point x="535.72135955" y="339" type="line" smooth="yes"/>
			<point x="661.72135955" y="339"/>
			<point x="682.72135955" y="258"/>
		</contour>
	</outline>
</glyph>
<glyph name="C" format="2">
	<unicode hex="0043"/>
	<advance width="883"/>
	<outline>
		<contour>
			<point x="37.72135955" y="267" type="curve" smooth="yes"/>
			<point x="37.72135955" y="95"/>
			<point x="177.72135955" y="-21"/>
			<point x="363.72135955" y="-21" type="curve" smooth="yes"/>
			<point x="467.72135955" y="-21"/>
			<point x="558.72135955" y="22"/>
			<point x="617.72135955" y="68" type="curve" smooth="yes"/>
			<point x="716.72135955" y="147"/>
			<point x="732.72135955" y="236"/>
			<point x="732.72135955" y="241" type="curve" smooth="yes"/>
			<point x="732.72135955" y="251"/>
			<point x="723.72135955" y="255"/>
			<point x="714.72135955" y="255" type="curve" smooth="yes"/>
			<point x="702.72135955" y="255"/>
			<point x="698.72135955" y="251"/>
			<point x="695.72135955" y="241" type="curve" smooth="yes"/>
			<point x="676.58231955" y="178.79812"/>
			<point x="640.1138477439" y="130.904945161"/>
			<point x="596.1417558136" y="95.7990594806" type="curve" smooth="yes"/>
			<point x="529.8334777434" y="42.8606904514"/>
			<point x="446.46232955" y="19"/>
			<point x="379.72135955" y="19" type="curve" smooth="yes"/>
			<point x="305.72135955" y="19"/>
			<point x="142.72135955" y="49"/>
			<point x="142.72135955" y="239" type="curve" smooth="yes"/>
			<point x="142.72135955" y="279"/>
			<point x="151.72135955" y="417"/>
			<point x="261.72135955" y="538" type="curve" smooth="yes"/>
			<point x="314.72135955" y="597"/>
			<point x="421.72135955" y="664"/>
			<point x="546.72135955" y="664" type="curve" smooth="yes"/>
			<point x="675.72135955" y="664"/>
			<point x="742.72135955" y="572"/>
			<point x="742.72135955" y="467" type="curve" smooth="yes"/>
			<point x="742.72135955" y="450"/>
			<point x="739.72135955" y="432"/>
			<point x="739.72135955" y="430" type="curve" smooth="yes"/>
			<point x="739.72135955" y="415"/>
			<point x="754.72135955" y="415"/>
			<point x="759.72135955" y="415" type="curve" smooth="yes"/>
			<point x="772.72135955" y="415"/>
			<point x="777.72135955" y="416"/>
			<point x="782.72135955" y="437" type="curve" smooth="yes"/>
			<point x="841.72135955" y="675" type="line" smooth="yes"/>
			<point x="843.72135955" y="684"/>
			<point x="844.72135955" y="688"/>
			<point x="844.72135955" y="690" type="curve" smooth="yes"/>
			<point x="844.72135955" y="694"/>
			<point x="842.72135955" y="704"/>
			<point x="829.72135955" y="704" type="curve" smooth="yes"/>
			<point x="821.72135955" y="704"/>
			<point x="820.72135955" y="703"/>
			<point x="810.72135955" y="692" type="curve" smooth="yes"/>
			<point x="735.72135955" y="614" type="line"/>
			<point x="735.72135955" y="614"/>
			<point x="735.72135955" y="614"/>
			<point x="735.72135955" y="614" type="curve"/>
			<point x="735.72135955" y="614"/>
			<point x="735.72135955" y="614"/>
			<point x="735.72135955" y="614" type="curve"/>
			<point x="681.72135955" y="681"/>
			<point x="608.72135955" y="704"/>
			<point x="536.72135955" y="704" type="curve" smooth="yes"/>
			<point x="282.72135955" y="704"/>
			<point x="37.72135955" y="490"/>
		</contour>
	</outline>
</glyph>
<glyph name="D" format="2">
  <advance width="998"/>
  <unicode hex="0044"/>
  <outline>
    <contour>
      <point x="982.1457815140882" y="417.0" type="curve" smooth="yes"/>
      <point x="982.1457815140882" y="576.0"/>
      <point x="866.1457815140882" y="683.0"/>
      <point x="702.1457815140882" y="683.0" type="curve" smooth="yes"/>
      <point x="319.1457815140882" y="683.0" type="line" smooth="yes"/>
      <point x="299.1457815140882" y="683.0"/>
      <point x="285.1457815140882" y="683.0"/>
      <point x="285.1457815140882" y="658.0" type="curve" smooth="yes"/>
      <point x="285.1457815140882" y="643.0"/>
      <point x="300.1457815140882" y="643.0"/>
      <point x="318.1457815140882" y="643.0" type="curve" smooth="yes"/>
      <point x="336.1457815140882" y="643.0"/>
      <point x="361.1457815140882" y="643.0"/>
      <point x="382.1457815140882" y="636.0" type="curve"/>
      <point x="382.1457815140882" y="636.0"/>
      <point x="382.1457815140882" y="636.0"/>
      <point x="382.1457815140882" y="636.0" type="curve"/>
      <point x="382.1457815140882" y="626.0"/>
      <point x="382.1457815140882" y="620.0"/>
      <point x="378.1457815140882" y="604.0" type="curve" smooth="yes"/>
      <point x="247.14578151408818" y="83.0" type="line" smooth="yes"/>
      <point x="238.14578151408818" y="47.0"/>
      <point x="236.14578151408818" y="40.0"/>
      <point x="159.14578151408818" y="40.0" type="curve" smooth="yes"/>
      <point x="131.14578151408818" y="40.0"/>
      <point x="132.14578151408818" y="40.0"/>
      <point x="126.14578151408816" y="24.0" type="curve" smooth="yes"/>
      <point x="120.14578151408816" y="7.0"/>
      <point x="129.14578151408818" y="0.0"/>
      <point x="148.14578151408818" y="0.0" type="curve" smooth="yes"/>
      <point x="532.1457815140882" y="0.0" type="line" smooth="yes"/>
      <point x="758.1457815140882" y="0.0"/>
      <point x="982.1457815140882" y="197.0"/>
    </contour>
    <contour>
      <point x="473.1457815140882" y="609.0" type="line" smooth="yes"/>
      <point x="481.1457815140882" y="641.0"/>
      <point x="481.1457815140882" y="643.0"/>
      <point x="524.1457815140882" y="643.0" type="curve" smooth="yes"/>
      <point x="664.1457815140882" y="643.0" type="line" smooth="yes"/>
      <point x="781.1457815140882" y="643.0"/>
      <point x="883.1457815140882" y="587.0"/>
      <point x="883.1457815140882" y="449.0" type="curve" smooth="yes"/>
      <point x="883.1457815140882" y="416.0"/>
      <point x="870.1457815140882" y="256.0"/>
      <point x="774.1457815140882" y="150.0" type="curve" smooth="yes"/>
      <point x="722.1457815140882" y="92.0"/>
      <point x="631.1457815140882" y="40.0"/>
      <point x="514.1457815140882" y="40.0" type="curve" smooth="yes"/>
      <point x="366.1457815140882" y="40.0" type="line" smooth="yes"/>
      <point x="347.1457815140882" y="40.0"/>
      <point x="345.1457815140882" y="40.0"/>
      <point x="333.1457815140882" y="43.0" type="curve"/>
    </contour>
  </outline>
</glyph>
<glyph name="E" format="2">
	<unicode hex="0045"/>
	<advance width="899"/>
	<outline>
		<contour>
			<point x="245.1457815141" y="83" type="line" smooth="yes"/>
			<point x="236.1457815141" y="47"/>
			<point x="234.1457815141" y="40"/>
			<point x="159.1457815141" y="40" type="curve" smooth="yes"/>
			<point x="136.1457815141" y="40"/>
			<point x="123.1457815141" y="40"/>
			<point x="123.1457815141" y="15" type="curve" smooth="yes"/>
			<point x="123.1457815141" y="0"/>
			<point x="136.1457815141" y="0"/>
			<point x="154.1457815141" y="0" type="curve" smooth="yes"/>
			<point x="762.1457815141" y="0" type="line" smooth="yes"/>
			<point x="775.1457815141" y="0"/>
			<point x="777.1457815141" y="4"/>
			<point x="784.1457815141" y="20" type="curve" smooth="yes"/>
			<point x="872.1457815141" y="217" type="line" smooth="yes"/>
			<point x="880.1457815141" y="235"/>
			<point x="886.1457815141" y="250"/>
			<point x="886.1457815141" y="252" type="curve" smooth="yes"/>
			<point x="886.1457815141" y="267"/>
			<point x="871.1457815141" y="267"/>
			<point x="867.1457815141" y="267" type="curve" smooth="yes"/>
			<point x="854.1457815141" y="267"/>
			<point x="853.1457815141" y="264"/>
			<point x="842.1457815141" y="241" type="curve" smooth="yes"/>
			<point x="775.1457815141" y="91"/>
			<point x="723.1457815141" y="40"/>
			<point x="550.1457815141" y="40" type="curve" smooth="yes"/>
			<point x="368.1457815141" y="40" type="line" smooth="yes"/>
			<point x="349.1457815141" y="40"/>
			<point x="347.1457815141" y="40"/>
			<point x="335.1457815141" y="43" type="curve"/>
			<point x="405.1457815141" y="332" type="line"/>
			<point x="524.1457815141" y="332" type="line" smooth="yes"/>
			<point x="614.1457815141" y="332"/>
			<point x="618.1457815141" y="315"/>
			<point x="618.1457815141" y="284" type="curve" smooth="yes"/>
			<point x="618.1457815141" y="260"/>
			<point x="615.1457815141" y="249"/>
			<point x="609.1457815141" y="229" type="curve"/>
			<point x="609.1457815141" y="228"/>
			<point x="611.1457815141" y="215"/>
			<point x="628.1457815141" y="215" type="curve" smooth="yes"/>
			<point x="642.1457815141" y="215"/>
			<point x="644.1457815141" y="220"/>
			<point x="648.1457815141" y="237" type="curve" smooth="yes"/>
			<point x="708.1457815141" y="475" type="line"/>
			<point x="708.1457815141" y="476"/>
			<point x="706.1457815141" y="489"/>
			<point x="689.1457815141" y="489" type="curve" smooth="yes"/>
			<point x="674.1457815141" y="489"/>
			<point x="672.1457815141" y="482"/>
			<point x="669.1457815141" y="469" type="curve" smooth="yes"/>
			<point x="647.1457815141" y="387"/>
			<point x="620.1457815141" y="372"/>
			<point x="526.1457815141" y="372" type="curve" smooth="yes"/>
			<point x="416.1457815141" y="372" type="line"/>
			<point x="435.4597815141" y="449.589"/>
			<point x="454.7737815141" y="527.178"/>
			<point x="474.1457815141" y="605" type="curve" smooth="yes"/>
			<point x="482.1457815141" y="637"/>
			<point x="483.1457815141" y="639"/>
			<point x="525.1457815141" y="639" type="curve" smooth="yes"/>
			<point x="699.1457815141" y="639" type="line" smooth="yes"/>
			<point x="832.1457815141" y="639"/>
			<point x="872.1457815141" y="616"/>
			<point x="872.1457815141" y="519" type="curve" smooth="yes"/>
			<point x="872.1457815141" y="501"/>
			<point x="868.1457815141" y="479"/>
			<point x="868.1457815141" y="462" type="curve" smooth="yes"/>
			<point x="868.1457815141" y="445"/>
			<point x="882.1457815141" y="445"/>
			<point x="887.1457815141" y="445" type="curve" smooth="yes"/>
			<point x="903.1457815141" y="445"/>
			<point x="904.1457815141" y="453"/>
			<point x="906.1457815141" y="471" type="curve" smooth="yes"/>
			<point x="912.1397815141" y="529.941"/>
			<point x="918.1337815141" y="588.882"/>
			<point x="924.1457815141" y="648" type="curve" smooth="yes"/>
			<point x="927.1457815141" y="679"/>
			<point x="919.1457815141" y="679"/>
			<point x="894.1457815141" y="679" type="curve" smooth="yes"/>
			<point x="316.1457815141" y="679" type="line" smooth="yes"/>
			<point x="297.1457815141" y="679"/>
			<point x="283.1457815141" y="679"/>
			<point x="283.1457815141" y="654" type="curve" smooth="yes"/>
			<point x="283.1457815141" y="639"/>
			<point x="296.1457815141" y="639"/>
			<point x="315.1457815141" y="639" type="curve" smooth="yes"/>
			<point x="322.7396215141" y="639"/>
			<point x="333.1457815141" y="639"/>
			<point x="348.1457815141" y="638" type="curve" smooth="yes"/>
			<point x="362.1457815141" y="637"/>
			<point x="384.1457815141" y="635"/>
			<point x="376.1457815141" y="604" type="curve" smooth="yes"/>
		</contour>
	</outline>
</glyph>
<glyph name="F" format="2">
	<unicode hex="0046"/>
	<advance width="775"/>
	<outline>
		<contour>
			<point x="402.1457815141" y="320" type="line"/>
			<point x="517.1457815141" y="320" type="line" smooth="yes"/>
			<point x="597.1457815141" y="320"/>
			<point x="610.1457815141" y="307"/>
			<point x="610.1457815141" y="274" type="curve" smooth="yes"/>
			<point x="610.1457815141" y="260"/>
			<point x="604.1457815141" y="231"/>
			<point x="600.1457815141" y="217" type="curve"/>
			<point x="600.1457815141" y="216"/>
			<point x="602.1457815141" y="203"/>
			<point x="619.1457815141" y="203" type="curve" smooth="yes"/>
			<point x="633.1457815141" y="203"/>
			<point x="635.1457815141" y="208"/>
			<point x="639.1457815141" y="225" type="curve" smooth="yes"/>
			<point x="699.1457815141" y="463" type="line"/>
			<point x="699.1457815141" y="464"/>
			<point x="697.1457815141" y="477"/>
			<point x="680.1457815141" y="477" type="curve" smooth="yes"/>
			<point x="665.1457815141" y="477"/>
			<point x="663.1457815141" y="470"/>
			<point x="660.1457815141" y="457" type="curve" smooth="yes"/>
			<point x="638.1457815141" y="378"/>
			<point x="614.1457815141" y="360"/>
			<point x="520.1457815141" y="360" type="curve" smooth="yes"/>
			<point x="413.1457815141" y="360" type="line"/>
			<point x="433.4587815141" y="441.585"/>
			<point x="453.7717815141" y="523.17"/>
			<point x="474.1457815141" y="605" type="curve" smooth="yes"/>
			<point x="482.1457815141" y="637"/>
			<point x="483.1457815141" y="639"/>
			<point x="525.1457815141" y="639" type="curve" smooth="yes"/>
			<point x="689.1457815141" y="639" type="line" smooth="yes"/>
			<point x="820.1457815141" y="639"/>
			<point x="856.1457815141" y="614"/>
			<point x="856.1457815141" y="522" type="curve" smooth="yes"/>
			<point x="856.1457815141" y="500"/>
			<point x="852.1457815141" y="465"/>
			<point x="852.1457815141" y="462" type="curve" smooth="yes"/>
			<point x="852.1457815141" y="445"/>
			<point x="866.1457815141" y="445"/>
			<point x="871.1457815141" y="445" type="curve" smooth="yes"/>
			<point x="887.1457815141" y="445"/>
			<point x="888.1457815141" y="453"/>
			<point x="890.1457815141" y="471" type="curve" smooth="yes"/>
			<point x="908.1457815141" y="648" type="line" smooth="yes"/>
			<point x="911.1457815141" y="679"/>
			<point x="903.1457815141" y="679"/>
			<point x="878.1457815141" y="679" type="curve" smooth="yes"/>
			<point x="316.1457815141" y="679" type="line" smooth="yes"/>
			<point x="297.1457815141" y="679"/>
			<point x="282.1457815141" y="679"/>
			<point x="282.1457815141" y="654" type="curve" smooth="yes"/>
			<point x="282.1457815141" y="639"/>
			<point x="297.1457815141" y="639"/>
			<point x="315.1457815141" y="639" type="curve" smooth="yes"/>
			<point x="324.7082815141" y="639"/>
			<point x="336.2463674516" y="639"/>
			<point x="348.110777852" y="637.9504699707" type="curve" smooth="yes"/>
			<point x="358.5793752641" y="637.0244140625"/>
			<point x="369.3020315141" y="635.28125"/>
			<point x="379.1457815141" y="632" type="curve"/>
			<point x="379.1457815141" y="622"/>
			<point x="379.1457815141" y="616"/>
			<point x="375.1457815141" y="600" type="curve" smooth="yes"/>
			<point x="245.1457815141" y="83" type="line" smooth="yes"/>
			<point x="236.1457815141" y="47"/>
			<point x="234.1457815141" y="40"/>
			<point x="159.1457815141" y="40" type="curve" smooth="yes"/>
			<point x="134.1457815141" y="40"/>
			<point x="128.1457815141" y="41"/>
			<point x="124.1457815141" y="23" type="curve" smooth="yes"/>
			<point x="121.1457815141" y="8"/>
			<point x="124.1457815141" y="0"/>
			<point x="140.1457815141" y="0" type="curve" smooth="yes"/>
			<point x="161.1457815141" y="0"/>
			<point x="195.1457815141" y="3"/>
			<point x="217.1457815141" y="3" type="curve" smooth="yes"/>
			<point x="268.1457815141" y="4"/>
			<point x="300.1457815141" y="4"/>
			<point x="351.1457815141" y="3" type="curve" smooth="yes"/>
			<point x="375.1457815141" y="3"/>
			<point x="413.1457815141" y="0"/>
			<point x="437.1457815141" y="0" type="curve" smooth="yes"/>
			<point x="444.1457815141" y="0"/>
			<point x="461.1457815141" y="0"/>
			<point x="461.1457815141" y="25" type="curve" smooth="yes"/>
			<point x="461.1457815141" y="40"/>
			<point x="449.1457815141" y="40"/>
			<point x="424.1457815141" y="40" type="curve" smooth="yes"/>
			<point x="421.1457815141" y="40"/>
			<point x="396.1457815141" y="40"/>
			<point x="372.1457815141" y="42" type="curve" smooth="yes"/>
			<point x="341.1457815141" y="44"/>
			<point x="338.1457815141" y="47"/>
			<point x="338.1457815141" y="58" type="curve" smooth="yes"/>
			<point x="338.1457815141" y="59"/>
			<point x="338.1457815141" y="64"/>
			<point x="342.1457815141" y="79" type="curve" smooth="yes"/>
		</contour>
	</outline>
</glyph>
<glyph name="G" format="2">
	<unicode hex="0047"/>
	<advance width="1904"/>
	<outline>
		<contour>
			<point x="75" y="532" type="curve" smooth="yes"/>
			<point x="75" y="216"/>
			<point x="325" y="-42"/>
			<point x="735" y="-42" type="curve" smooth="yes"/>
			<point x="881" y="-42"/>
			<point x="1099" y="-18"/>
			<point x="1227" y="112" type="curve"/>
			<point x="1239" y="86"/>
			<point x="1297" y="0"/>
			<point x="1327" y="0" type="curve" smooth="yes"/>
			<point x="1335" y="0"/>
			<point x="1345" y="2"/>
			<point x="1349" y="12" type="curve" smooth="yes"/>
			<point x="1365" y="46"/>
			<point x="1432" y="342"/>
			<point x="1447" y="394" type="curve" smooth="yes"/>
			<point x="1467" y="472"/>
			<point x="1473" y="472"/>
			<point x="1589" y="474" type="curve" smooth="yes"/>
			<point x="1609" y="474"/>
			<point x="1639" y="474"/>
			<point x="1639" y="524" type="curve" smooth="yes"/>
			<point x="1639" y="542"/>
			<point x="1625" y="554"/>
			<point x="1607" y="554" type="curve" smooth="yes"/>
			<point x="1571" y="554"/>
			<point x="1529" y="548"/>
			<point x="1493" y="548" type="curve" smooth="yes"/>
			<point x="1401" y="546"/>
			<point x="1305" y="546"/>
			<point x="1205" y="548" type="curve" smooth="yes"/>
			<point x="1131" y="550"/>
			<point x="1091" y="554"/>
			<point x="1037" y="554" type="curve" smooth="yes"/>
			<point x="1009" y="554"/>
			<point x="1003" y="554"/>
			<point x="991" y="520" type="curve" smooth="yes"/>
			<point x="979" y="488"/>
			<point x="997" y="474"/>
			<point x="1035" y="474" type="curve" smooth="yes"/>
			<point x="1111" y="474"/>
			<point x="1151" y="472"/>
			<point x="1189" y="470" type="curve" smooth="yes"/>
			<point x="1255" y="464"/>
			<point x="1259" y="456"/>
			<point x="1259" y="434" type="curve" smooth="yes"/>
			<point x="1259" y="422"/>
			<point x="1223" y="286"/>
			<point x="1217" y="262" type="curve" smooth="yes"/>
			<point x="1207" y="218"/>
			<point x="1187" y="140"/>
			<point x="1055" y="86" type="curve" smooth="yes"/>
			<point x="939" y="38"/>
			<point x="807" y="38"/>
			<point x="781" y="38" type="curve" smooth="yes"/>
			<point x="551" y="38"/>
			<point x="285" y="144"/>
			<point x="285" y="480" type="curve" smooth="yes"/>
			<point x="285" y="612"/>
			<point x="333" y="880"/>
			<point x="535" y="1092" type="curve" smooth="yes"/>
			<point x="601" y="1160"/>
			<point x="809" y="1328"/>
			<point x="1095" y="1328" type="curve" smooth="yes"/>
			<point x="1347" y="1328"/>
			<point x="1487" y="1150"/>
			<point x="1487" y="934" type="curve" smooth="yes"/>
			<point x="1487" y="900"/>
			<point x="1481" y="864"/>
			<point x="1481" y="860" type="curve" smooth="yes"/>
			<point x="1481" y="830"/>
			<point x="1511" y="830"/>
			<point x="1521" y="830" type="curve" smooth="yes"/>
			<point x="1547" y="830"/>
			<point x="1557" y="832"/>
			<point x="1567" y="874" type="curve" smooth="yes"/>
			<point x="1689" y="1368" type="line" smooth="yes"/>
			<point x="1693" y="1386"/>
			<point x="1687" y="1408"/>
			<point x="1661" y="1408" type="curve" smooth="yes"/>
			<point x="1647" y="1408"/>
			<point x="1641" y="1404"/>
			<point x="1623" y="1384" type="curve" smooth="yes"/>
			<point x="1493" y="1248" type="line" smooth="yes"/>
			<point x="1483" y="1238"/>
			<point x="1473" y="1226"/>
			<point x="1463" y="1238" type="curve" smooth="yes"/>
			<point x="1413" y="1296"/>
			<point x="1305" y="1408"/>
			<point x="1073" y="1408" type="curve" smooth="yes"/>
			<point x="569" y="1408"/>
			<point x="75" y="986"/>
		</contour>
	</outline>
</glyph>
<glyph name="H" format="2">
	<unicode hex="0048"/>
	<advance width="1998"/>
	<outline>
		<contour>
			<point x="704.2915630282" y="670" type="line"/>
			<point x="1412.2915630282" y="670" type="line"/>
			<point x="1368.2915630282" y="491"/>
			<point x="1323.2915630282" y="312"/>
			<point x="1278.2915630282" y="132" type="curve" smooth="yes"/>
			<point x="1268.2915630282" y="92"/>
			<point x="1256.2915630282" y="80"/>
			<point x="1102.2915630282" y="80" type="curve" smooth="yes"/>
			<point x="1054.2915630282" y="80"/>
			<point x="1052.2915630282" y="78"/>
			<point x="1042.2915630282" y="40" type="curve" smooth="yes"/>
			<point x="1036.2915630282" y="18"/>
			<point x="1044.2915630282" y="0"/>
			<point x="1076.2915630282" y="0" type="curve" smooth="yes"/>
			<point x="1118.2915630282" y="0"/>
			<point x="1166.2915630282" y="6"/>
			<point x="1210.2915630282" y="6" type="curve" smooth="yes"/>
			<point x="1304.2915630282" y="6"/>
			<point x="1392.2915630282" y="6"/>
			<point x="1482.2915630282" y="6" type="curve" smooth="yes"/>
			<point x="1526.2915630282" y="6"/>
			<point x="1576.2915630282" y="0"/>
			<point x="1620.2915630282" y="0" type="curve" smooth="yes"/>
			<point x="1632.2915630282" y="0"/>
			<point x="1652.2915630282" y="-4"/>
			<point x="1662.2915630282" y="30" type="curve" smooth="yes"/>
			<point x="1676.2915630282" y="76"/>
			<point x="1650.2915630282" y="78"/>
			<point x="1612.2915630282" y="80" type="curve" smooth="yes"/>
			<point x="1588.2915630282" y="82"/>
			<point x="1542.2915630282" y="82"/>
			<point x="1520.2915630282" y="84" type="curve" smooth="yes"/>
			<point x="1484.2915630282" y="88"/>
			<point x="1470.2915630282" y="88"/>
			<point x="1470.2915630282" y="110" type="curve" smooth="yes"/>
			<point x="1470.2915630282" y="118"/>
			<point x="1472.2915630282" y="126"/>
			<point x="1478.2915630282" y="146" type="curve" smooth="yes"/>
			<point x="1742.2915630282" y="1204" type="line" smooth="yes"/>
			<point x="1758.2915630282" y="1270"/>
			<point x="1762.2915630282" y="1286"/>
			<point x="1922.2915630282" y="1286" type="curve" smooth="yes"/>
			<point x="1958.2915630282" y="1286"/>
			<point x="1986.2915630282" y="1286"/>
			<point x="1986.2915630282" y="1334" type="curve" smooth="yes"/>
			<point x="1986.2915630282" y="1354"/>
			<point x="1972.2915630282" y="1366"/>
			<point x="1952.2915630282" y="1366" type="curve" smooth="yes"/>
			<point x="1910.2915630282" y="1366"/>
			<point x="1862.2915630282" y="1360"/>
			<point x="1818.2915630282" y="1360" type="curve" smooth="yes"/>
			<point x="1728.2915630282" y="1360"/>
			<point x="1636.2915630282" y="1360"/>
			<point x="1546.2915630282" y="1360" type="curve" smooth="yes"/>
			<point x="1502.2915630282" y="1360"/>
			<point x="1452.2915630282" y="1366"/>
			<point x="1408.2915630282" y="1366" type="curve" smooth="yes"/>
			<point x="1396.2915630282" y="1366"/>
			<point x="1362.2915630282" y="1366"/>
			<point x="1362.2915630282" y="1316" type="curve" smooth="yes"/>
			<point x="1362.2915630282" y="1286"/>
			<point x="1392.2915630282" y="1286"/>
			<point x="1428.2915630282" y="1286" type="curve" smooth="yes"/>
			<point x="1450.2915630282" y="1286"/>
			<point x="1476.2915630282" y="1286"/>
			<point x="1503.2915630282" y="1283" type="curve" smooth="yes"/>
			<point x="1521.2915630282" y="1281"/>
			<point x="1539.2915630282" y="1278"/>
			<point x="1556.2915630282" y="1272" type="curve"/>
			<point x="1556.2915630282" y="1252"/>
			<point x="1556.2915630282" y="1240"/>
			<point x="1548.2915630282" y="1208" type="curve" smooth="yes"/>
			<point x="1432.2915630282" y="750" type="line"/>
			<point x="724.2915630282" y="750" type="line"/>
			<point x="838.2915630282" y="1204" type="line" smooth="yes"/>
			<point x="854.2915630282" y="1270"/>
			<point x="858.2915630282" y="1286"/>
			<point x="1018.2915630282" y="1286" type="curve" smooth="yes"/>
			<point x="1054.2915630282" y="1286"/>
			<point x="1082.2915630282" y="1286"/>
			<point x="1082.2915630282" y="1334" type="curve" smooth="yes"/>
			<point x="1082.2915630282" y="1354"/>
			<point x="1068.2915630282" y="1366"/>
			<point x="1048.2915630282" y="1366" type="curve" smooth="yes"/>
			<point x="1006.2915630282" y="1366"/>
			<point x="958.2915630282" y="1360"/>
			<point x="914.2915630282" y="1360" type="curve" smooth="yes"/>
			<point x="824.2915630282" y="1360"/>
			<point x="732.2915630282" y="1360"/>
			<point x="642.2915630282" y="1360" type="curve" smooth="yes"/>
			<point x="598.2915630282" y="1360"/>
			<point x="548.2915630282" y="1366"/>
			<point x="504.2915630282" y="1366" type="curve" smooth="yes"/>
			<point x="492.2915630282" y="1366"/>
			<point x="458.2915630282" y="1366"/>
			<point x="458.2915630282" y="1316" type="curve" smooth="yes"/>
			<point x="458.2915630282" y="1286"/>
			<point x="488.2915630282" y="1286"/>
			<point x="524.2915630282" y="1286" type="curve" smooth="yes"/>
			<point x="546.2915630282" y="1286"/>
			<point x="574.2915630282" y="1286"/>
			<point x="601.2915630282" y="1283" type="curve" smooth="yes"/>
			<point x="618.2915630282" y="1281"/>
			<point x="636.2915630282" y="1277"/>
			<point x="652.2915630282" y="1272" type="curve"/>
			<point x="652.2915630282" y="1252"/>
			<point x="652.2915630282" y="1240"/>
			<point x="644.2915630282" y="1208" type="curve" smooth="yes"/>
			<point x="382.2915630282" y="166" type="line" smooth="yes"/>
			<point x="364.2915630282" y="94"/>
			<point x="360.2915630282" y="80"/>
			<point x="210.2915630282" y="80" type="curve" smooth="yes"/>
			<point x="146.2915630282" y="80"/>
			<point x="150.2915630282" y="78"/>
			<point x="140.2915630282" y="48" type="curve" smooth="yes"/>
			<point x="132.2915630282" y="22"/>
			<point x="140.2915630282" y="0"/>
			<point x="172.2915630282" y="0" type="curve" smooth="yes"/>
			<point x="214.2915630282" y="0"/>
			<point x="262.2915630282" y="6"/>
			<point x="306.2915630282" y="6" type="curve" smooth="yes"/>
			<point x="400.2915630282" y="6"/>
			<point x="488.2915630282" y="6"/>
			<point x="578.2915630282" y="6" type="curve" smooth="yes"/>
			<point x="622.2915630282" y="6"/>
			<point x="672.2915630282" y="0"/>
			<point x="716.2915630282" y="0" type="curve" smooth="yes"/>
			<point x="728.2915630282" y="0"/>
			<point x="746.2915630282" y="-4"/>
			<point x="756.2915630282" y="26" type="curve" smooth="yes"/>
			<point x="772.2915630282" y="76"/>
			<point x="748.2915630282" y="80"/>
			<point x="708.2915630282" y="80" type="curve" smooth="yes"/>
			<point x="684.2915630282" y="80"/>
			<point x="638.2915630282" y="82"/>
			<point x="616.2915630282" y="84" type="curve" smooth="yes"/>
			<point x="580.2915630282" y="88"/>
			<point x="566.2915630282" y="88"/>
			<point x="566.2915630282" y="110" type="curve" smooth="yes"/>
			<point x="566.2915630282" y="118"/>
			<point x="568.2915630282" y="126"/>
			<point x="574.2915630282" y="146" type="curve" smooth="yes"/>
		</contour>
	</outline>
</glyph>
<glyph name="I" format="2">
	<unicode hex="0049"/>
	<advance width="1094"/>
	<outline>
		<contour>
			<point x="317" y="164" type="line" smooth="yes"/>
			<point x="301" y="98"/>
			<point x="295" y="80"/>
			<point x="139" y="80" type="curve" smooth="yes"/>
			<point x="79" y="80"/>
			<point x="73" y="78"/>
			<point x="63" y="46" type="curve" smooth="yes"/>
			<point x="55" y="18"/>
			<point x="69" y="0"/>
			<point x="97" y="0" type="curve" smooth="yes"/>
			<point x="139" y="0"/>
			<point x="189" y="6"/>
			<point x="231" y="6" type="curve" smooth="yes"/>
			<point x="369" y="8"/>
			<point x="415" y="8"/>
			<point x="523" y="6" type="curve" smooth="yes"/>
			<point x="567" y="6"/>
			<point x="617" y="0"/>
			<point x="659" y="0" type="curve" smooth="yes"/>
			<point x="693" y="0"/>
			<point x="697" y="10"/>
			<point x="703" y="32" type="curve" smooth="yes"/>
			<point x="713" y="64"/>
			<point x="703" y="80"/>
			<point x="653" y="80" type="curve" smooth="yes"/>
			<point x="635" y="80"/>
			<point x="591" y="80"/>
			<point x="551" y="84" type="curve" smooth="yes"/>
			<point x="519" y="88"/>
			<point x="503" y="88"/>
			<point x="503" y="108" type="curve" smooth="yes"/>
			<point x="503" y="122"/>
			<point x="503" y="124"/>
			<point x="507" y="142" type="curve" smooth="yes"/>
			<point x="773" y="1202" type="line" smooth="yes"/>
			<point x="789" y="1270"/>
			<point x="795" y="1286"/>
			<point x="951" y="1286" type="curve" smooth="yes"/>
			<point x="1001" y="1286"/>
			<point x="1027" y="1286"/>
			<point x="1027" y="1334" type="curve" smooth="yes"/>
			<point x="1027" y="1354"/>
			<point x="1013" y="1366"/>
			<point x="993" y="1366" type="curve" smooth="yes"/>
			<point x="951" y="1366"/>
			<point x="901" y="1362"/>
			<point x="859" y="1360" type="curve" smooth="yes"/>
			<point x="801" y="1358"/>
			<point x="673" y="1358"/>
			<point x="565" y="1360" type="curve" smooth="yes"/>
			<point x="521" y="1360"/>
			<point x="471" y="1366"/>
			<point x="429" y="1366" type="curve" smooth="yes"/>
			<point x="417" y="1366"/>
			<point x="383" y="1366"/>
			<point x="383" y="1316" type="curve" smooth="yes"/>
			<point x="383" y="1286"/>
			<point x="411" y="1286"/>
			<point x="451" y="1286" type="curve" smooth="yes"/>
			<point x="459" y="1286"/>
			<point x="497" y="1286"/>
			<point x="537" y="1282" type="curve" smooth="yes"/>
			<point x="585" y="1278"/>
			<point x="587" y="1272"/>
			<point x="587" y="1254" type="curve" smooth="yes"/>
			<point x="587" y="1252"/>
			<point x="587" y="1240"/>
			<point x="579" y="1210" type="curve" smooth="yes"/>
		</contour>
	</outline>
</glyph>
<glyph name="J" format="2">
	<unicode hex="004A"/>
	<advance width="681"/>
	<outline>
		<contour>
			<point x="226.72135955" y="-21" type="curve" smooth="yes"/>
			<point x="334.72135955" y="-21"/>
			<point x="445.72135955" y="47"/>
			<point x="468.72135955" y="140" type="curve" smooth="yes"/>
			<point x="585.72135955" y="605" type="line" smooth="yes"/>
			<point x="593.72135955" y="637"/>
			<point x="595.72135955" y="643"/>
			<point x="649.72135955" y="643" type="curve" smooth="yes"/>
			<point x="665.72135955" y="643"/>
			<point x="679.72135955" y="643"/>
			<point x="679.72135955" y="668" type="curve" smooth="yes"/>
			<point x="679.72135955" y="675"/>
			<point x="673.72135955" y="683"/>
			<point x="664.72135955" y="683" type="curve" smooth="yes"/>
			<point x="646.72135955" y="683"/>
			<point x="625.72135955" y="680"/>
			<point x="607.72135955" y="680" type="curve" smooth="yes"/>
			<point x="563.72135955" y="680"/>
			<point x="512.72135955" y="678.23077"/>
			<point x="466.72135955" y="680" type="curve" smooth="yes"/>
			<point x="442.72135955" y="681"/>
			<point x="414.72135955" y="683"/>
			<point x="390.72135955" y="683" type="curve" smooth="yes"/>
			<point x="380.72135955" y="683"/>
			<point x="373.72135955" y="684"/>
			<point x="368.72135955" y="666" type="curve" smooth="yes"/>
			<point x="362.72135955" y="643"/>
			<point x="377.72135955" y="643"/>
			<point x="403.72135955" y="643" type="curve" smooth="yes"/>
			<point x="427.72135955" y="643"/>
			<point x="435.72135955" y="643"/>
			<point x="461.72135955" y="641" type="curve" smooth="yes"/>
			<point x="483.72135955" y="639"/>
			<point x="495.72135955" y="638"/>
			<point x="495.72135955" y="625" type="curve" smooth="yes"/>
			<point x="495.72135955" y="620"/>
			<point x="493.72135955" y="613"/>
			<point x="491.72135955" y="606" type="curve" smooth="yes"/>
			<point x="453.75935955" y="454.152"/>
			<point x="415.79735955" y="302.304"/>
			<point x="377.72135955" y="150" type="curve" smooth="yes"/>
			<point x="356.72135955" y="67"/>
			<point x="287.72135955" y="12"/>
			<point x="224.72135955" y="12" type="curve" smooth="yes"/>
			<point x="210.72135955" y="12"/>
			<point x="148.72135955" y="14"/>
			<point x="121.72135955" y="58" type="curve"/>
			<point x="178.72135955" y="63"/>
			<point x="188.72135955" y="109"/>
			<point x="188.72135955" y="125" type="curve" smooth="yes"/>
			<point x="188.72135955" y="148"/>
			<point x="172.72135955" y="169"/>
			<point x="141.72135955" y="169" type="curve" smooth="yes"/>
			<point x="102.72135955" y="169"/>
			<point x="72.72135955" y="138"/>
			<point x="72.72135955" y="90" type="curve" smooth="yes"/>
			<point x="72.72135955" y="26"/>
			<point x="133.72135955" y="-21"/>
		</contour>
	</outline>
</glyph>
<glyph name="K" format="2">
  <advance width="1025"/>
  <unicode hex="004B"/>
  <outline>
    <contour>
      <point x="395.1457815140882" y="291.0" type="line"/>
      <point x="473.1457815140882" y="602.0" type="line" smooth="yes"/>
      <point x="481.1457815140882" y="635.0"/>
      <point x="483.1457815140882" y="643.0"/>
      <point x="563.1457815140882" y="643.0" type="curve" smooth="yes"/>
      <point x="581.1457815140882" y="643.0"/>
      <point x="595.1457815140882" y="643.0"/>
      <point x="595.1457815140882" y="668.0" type="curve" smooth="yes"/>
      <point x="595.1457815140882" y="673.0"/>
      <point x="592.1457815140882" y="683.0"/>
      <point x="578.1457815140882" y="683.0" type="curve" smooth="yes"/>
      <point x="557.1457815140882" y="683.0"/>
      <point x="533.1457815140882" y="680.0"/>
      <point x="511.1457815140882" y="680.0" type="curve" smooth="yes"/>
      <point x="466.1457815140882" y="679.0"/>
      <point x="421.1457815140882" y="679.0"/>
      <point x="375.1457815140882" y="680.0" type="curve" smooth="yes"/>
      <point x="353.1457815140882" y="680.0"/>
      <point x="328.1457815140882" y="683.0"/>
      <point x="306.1457815140882" y="683.0" type="curve" smooth="yes"/>
      <point x="300.1457815140882" y="683.0"/>
      <point x="284.1457815140882" y="683.0"/>
      <point x="284.1457815140882" y="658.0" type="curve" smooth="yes"/>
      <point x="284.1457815140882" y="643.0"/>
      <point x="297.1457815140882" y="643.0"/>
      <point x="316.1457815140882" y="643.0" type="curve" smooth="yes"/>
      <point x="330.1457815140882" y="643.0"/>
      <point x="342.1457815140882" y="643.0"/>
      <point x="359.1457815140882" y="641.0" type="curve" smooth="yes"/>
      <point x="364.1457815140882" y="640.0"/>
      <point x="375.1457815140882" y="638.0"/>
      <point x="380.1457815140882" y="636.0" type="curve"/>
      <point x="380.1457815140882" y="626.0"/>
      <point x="380.1457815140882" y="620.0"/>
      <point x="376.1457815140882" y="604.0" type="curve" smooth="yes"/>
      <point x="245.14578151408818" y="83.0" type="line" smooth="yes"/>
      <point x="236.14578151408818" y="47.0"/>
      <point x="234.14578151408818" y="40.0"/>
      <point x="159.14578151408818" y="40.0" type="curve" smooth="yes"/>
      <point x="136.14578151408818" y="40.0"/>
      <point x="123.14578151408816" y="40.0"/>
      <point x="123.14578151408816" y="15.0" type="curve" smooth="yes"/>
      <point x="123.14578151408816" y="7.0"/>
      <point x="129.14578151408818" y="0.0"/>
      <point x="140.14578151408818" y="0.0" type="curve" smooth="yes"/>
      <point x="161.14578151408818" y="0.0"/>
      <point x="185.14578151408818" y="3.0"/>
      <point x="207.14578151408818" y="3.0" type="curve" smooth="yes"/>
      <point x="254.14578151408818" y="4.0"/>
      <point x="297.1457815140882" y="4.0"/>
      <point x="343.1457815140882" y="3.0" type="curve" smooth="yes"/>
      <point x="365.1457815140882" y="3.0"/>
      <point x="390.1457815140882" y="0.0"/>
      <point x="411.1457815140882" y="0.0" type="curve" smooth="yes"/>
      <point x="418.1457815140882" y="0.0"/>
      <point x="434.1457815140882" y="0.0"/>
      <point x="434.1457815140882" y="25.0" type="curve" smooth="yes"/>
      <point x="434.1457815140882" y="40.0"/>
      <point x="422.1457815140882" y="40.0"/>
      <point x="401.1457815140882" y="40.0" type="curve" smooth="yes"/>
      <point x="399.1457815140882" y="40.0"/>
      <point x="381.1457815140882" y="40.0"/>
      <point x="363.1457815140882" y="42.0" type="curve" smooth="yes"/>
      <point x="343.1457815140882" y="44.0"/>
      <point x="337.1457815140882" y="44.0"/>
      <point x="337.1457815140882" y="55.0" type="curve" smooth="yes"/>
      <point x="337.1457815140882" y="59.0"/>
      <point x="343.1457815140882" y="84.0"/>
      <point x="347.1457815140882" y="99.0" type="curve" smooth="yes"/>
      <point x="359.1337815140882" y="147.285"/>
      <point x="371.1217815140882" y="195.57"/>
      <point x="383.1457815140882" y="244.0" type="curve"/>
      <point x="383.1457815140882" y="244.0"/>
      <point x="383.1457815140882" y="244.0"/>
      <point x="383.1457815140882" y="244.0" type="curve"/>
      <point x="557.1457815140882" y="361.0" type="line"/>
      <point x="557.1457815140882" y="361.0"/>
      <point x="557.1457815140882" y="361.0"/>
      <point x="557.1457815140882" y="361.0" type="curve"/>
      <point x="608.4277815140882" y="269.758"/>
      <point x="659.7097815140881" y="178.516"/>
      <point x="711.1457815140882" y="87.0" type="curve" smooth="yes"/>
      <point x="716.1457815140882" y="77.0"/>
      <point x="723.1457815140882" y="68.0"/>
      <point x="723.1457815140882" y="62.0" type="curve" smooth="yes"/>
      <point x="723.1457815140882" y="57.0"/>
      <point x="721.1457815140882" y="41.0"/>
      <point x="676.1457815140882" y="40.0" type="curve" smooth="yes"/>
      <point x="664.1457815140882" y="40.0"/>
      <point x="649.1457815140882" y="40.0"/>
      <point x="649.1457815140882" y="15.0" type="curve" smooth="yes"/>
      <point x="649.1457815140882" y="7.0"/>
      <point x="655.1457815140882" y="0.0"/>
      <point x="666.1457815140882" y="0.0" type="curve" smooth="yes"/>
      <point x="695.1457815140882" y="0.0"/>
      <point x="769.1457815140882" y="4.0"/>
      <point x="798.1457815140882" y="4.0" type="curve" smooth="yes"/>
      <point x="815.1457815140882" y="4.0"/>
      <point x="832.1457815140882" y="3.0"/>
      <point x="849.1457815140882" y="3.0" type="curve" smooth="yes"/>
      <point x="866.1457815140882" y="3.0"/>
      <point x="885.1457815140882" y="0.0"/>
      <point x="901.1457815140882" y="0.0" type="curve" smooth="yes"/>
      <point x="912.1457815140882" y="0.0"/>
      <point x="923.1457815140882" y="6.0"/>
      <point x="923.1457815140882" y="25.0" type="curve" smooth="yes"/>
      <point x="923.1457815140882" y="40.0"/>
      <point x="907.1457815140882" y="40.0"/>
      <point x="899.1457815140882" y="40.0" type="curve" smooth="yes"/>
      <point x="847.1457815140882" y="41.0"/>
      <point x="839.1457815140882" y="55.0"/>
      <point x="827.1457815140882" y="77.0" type="curve" smooth="yes"/>
      <point x="645.1457815140882" y="402.0" type="line"/>
      <point x="644.1457815140882" y="403.0"/>
      <point x="639.1457815140882" y="413.0"/>
      <point x="639.1457815140882" y="414.0" type="curve" smooth="yes"/>
      <point x="639.1457815140882" y="415.0"/>
      <point x="640.1457815140882" y="416.0"/>
      <point x="656.1457815140882" y="427.0" type="curve" smooth="yes"/>
      <point x="758.1457815140882" y="497.0"/>
      <point x="893.1457815140882" y="589.0"/>
      <point x="949.1457815140882" y="616.0" type="curve" smooth="yes"/>
      <point x="983.1457815140882" y="632.0"/>
      <point x="1011.1457815140882" y="641.0"/>
      <point x="1044.1457815140882" y="643.0" type="curve" smooth="yes"/>
      <point x="1054.1457815140882" y="644.0"/>
      <point x="1067.1457815140882" y="645.0"/>
      <point x="1067.1457815140882" y="668.0" type="curve" smooth="yes"/>
      <point x="1067.1457815140882" y="675.0"/>
      <point x="1061.1457815140882" y="682.0"/>
      <point x="1053.1457815140882" y="682.0" type="curve" smooth="yes"/>
      <point x="1044.1457815140882" y="682.0"/>
      <point x="1003.1457815140882" y="679.0"/>
      <point x="979.1457815140882" y="679.0" type="curve" smooth="yes"/>
      <point x="964.1457815140882" y="679.0"/>
      <point x="944.1457815140882" y="679.0"/>
      <point x="916.1457815140882" y="680.0" type="curve" smooth="yes"/>
      <point x="903.1457815140882" y="680.0"/>
      <point x="866.1457815140882" y="683.0"/>
      <point x="856.1457815140882" y="683.0" type="curve" smooth="yes"/>
      <point x="850.1457815140882" y="683.0"/>
      <point x="833.1457815140882" y="683.0"/>
      <point x="833.1457815140882" y="658.0" type="curve" smooth="yes"/>
      <point x="833.1457815140882" y="644.0"/>
      <point x="847.1457815140882" y="643.0"/>
      <point x="850.1457815140882" y="643.0" type="curve" smooth="yes"/>
      <point x="873.1457815140882" y="642.0"/>
      <point x="873.1457815140882" y="635.0"/>
      <point x="873.1457815140882" y="630.0" type="curve" smooth="yes"/>
      <point x="873.1457815140882" y="614.0"/>
      <point x="840.1457815140882" y="592.0"/>
      <point x="830.1457815140882" y="585.0" type="curve" smooth="yes"/>
    </contour>
  </outline>
</glyph>
<glyph name="L" format="2">
	<unicode hex="004C"/>
	<advance width="846"/>
	<outline>
		<contour>
			<point x="244.1457815141" y="83" type="line" smooth="yes"/>
			<point x="235.1457815141" y="47"/>
			<point x="233.1457815141" y="40"/>
			<point x="158.1457815141" y="40" type="curve" smooth="yes"/>
			<point x="135.1457815141" y="40"/>
			<point x="122.1457815141" y="40"/>
			<point x="122.1457815141" y="15" type="curve" smooth="yes"/>
			<point x="122.1457815141" y="0"/>
			<point x="135.1457815141" y="0"/>
			<point x="153.1457815141" y="0" type="curve" smooth="yes"/>
			<point x="683.1457815141" y="0" type="line" smooth="yes"/>
			<point x="709.1457815141" y="0"/>
			<point x="710.1457815141" y="1"/>
			<point x="717.1457815141" y="20" type="curve" smooth="yes"/>
			<point x="795.1457815141" y="222" type="line" smooth="yes"/>
			<point x="798.1457815141" y="230"/>
			<point x="805.1457815141" y="249"/>
			<point x="805.1457815141" y="251" type="curve" smooth="yes"/>
			<point x="805.1457815141" y="261"/>
			<point x="797.1457815141" y="267"/>
			<point x="786.1457815141" y="267" type="curve" smooth="yes"/>
			<point x="773.1457815141" y="267"/>
			<point x="770.1457815141" y="260"/>
			<point x="765.1457815141" y="248" type="curve" smooth="yes"/>
			<point x="720.1457815141" y="135"/>
			<point x="670.1457815141" y="40"/>
			<point x="490.1457815141" y="40" type="curve" smooth="yes"/>
			<point x="367.1457815141" y="40" type="line" smooth="yes"/>
			<point x="348.1457815141" y="40"/>
			<point x="346.1457815141" y="40"/>
			<point x="334.1457815141" y="43" type="curve"/>
			<point x="334.1457815141" y="43"/>
			<point x="334.1457815141" y="43"/>
			<point x="334.1457815141" y="43" type="curve"/>
			<point x="472.1457815141" y="601" type="line" smooth="yes"/>
			<point x="480.1457815141" y="634"/>
			<point x="482.1457815141" y="643"/>
			<point x="584.1457815141" y="643" type="curve" smooth="yes"/>
			<point x="608.1457815141" y="643"/>
			<point x="620.1457815141" y="643"/>
			<point x="620.1457815141" y="668" type="curve" smooth="yes"/>
			<point x="620.1457815141" y="671"/>
			<point x="618.1457815141" y="683"/>
			<point x="603.1457815141" y="683" type="curve" smooth="yes"/>
			<point x="579.1457815141" y="683"/>
			<point x="553.1457815141" y="680"/>
			<point x="529.1457815141" y="680" type="curve" smooth="yes"/>
			<point x="479.1457815141" y="680"/>
			<point x="427.1457815141" y="680"/>
			<point x="377.1457815141" y="680" type="curve" smooth="yes"/>
			<point x="354.1457815141" y="680"/>
			<point x="328.1457815141" y="683"/>
			<point x="305.1457815141" y="683" type="curve" smooth="yes"/>
			<point x="299.1457815141" y="683"/>
			<point x="283.1457815141" y="683"/>
			<point x="283.1457815141" y="658" type="curve" smooth="yes"/>
			<point x="283.1457815141" y="643"/>
			<point x="296.1457815141" y="643"/>
			<point x="315.1457815141" y="643" type="curve" smooth="yes"/>
			<point x="325.1457815141" y="643"/>
			<point x="335.1457815141" y="635"/>
			<point x="348.1457815141" y="634" type="curve" smooth="yes"/>
			<point x="358.1457815141" y="633"/>
			<point x="370.1457815141" y="639"/>
			<point x="379.1457815141" y="636" type="curve"/>
			<point x="379.1457815141" y="626"/>
			<point x="379.1457815141" y="620"/>
			<point x="375.1457815141" y="604" type="curve" smooth="yes"/>
		</contour>
	</outline>
</glyph>
<glyph name="M" format="2">
  <advance width="1161"/>
  <unicode hex="004D"/>
  <outline>
    <contour>
      <point x="257.1457815140882" y="111.0" type="line" smooth="yes"/>
      <point x="247.14578151408818" y="70.0"/>
      <point x="229.14578151408818" y="43.0"/>
      <point x="148.14578151408818" y="40.0" type="curve" smooth="yes"/>
      <point x="134.14578151408818" y="39.0"/>
      <point x="127.14578151408816" y="29.0"/>
      <point x="127.14578151408816" y="16.0" type="curve" smooth="yes"/>
      <point x="127.14578151408816" y="10.0"/>
      <point x="129.14578151408818" y="0.0"/>
      <point x="144.14578151408818" y="0.0" type="curve" smooth="yes"/>
      <point x="168.14578151408818" y="0.0"/>
      <point x="227.14578151408818" y="5.0"/>
      <point x="265.1457815140882" y="4.0" type="curve" smooth="yes"/>
      <point x="314.1457815140882" y="3.0"/>
      <point x="345.1457815140882" y="0.0"/>
      <point x="362.1457815140882" y="0.0" type="curve" smooth="yes"/>
      <point x="381.1457815140882" y="0.0"/>
      <point x="384.1457815140882" y="17.0"/>
      <point x="384.1457815140882" y="22.0" type="curve" smooth="yes"/>
      <point x="384.1457815140882" y="40.0"/>
      <point x="371.1457815140882" y="40.0"/>
      <point x="359.1457815140882" y="40.0" type="curve" smooth="yes"/>
      <point x="313.1457815140882" y="40.0"/>
      <point x="293.1457815140882" y="54.0"/>
      <point x="293.1457815140882" y="80.0" type="curve" smooth="yes"/>
      <point x="293.1457815140882" y="86.0"/>
      <point x="294.1457815140882" y="90.0"/>
      <point x="297.1457815140882" y="101.0" type="curve" smooth="yes"/>
      <point x="430.1457815140882" y="634.0" type="line"/>
      <point x="431.1457815140882" y="634.0" type="line"/>
      <point x="550.1457815140882" y="28.0" type="line" smooth="yes"/>
      <point x="554.1457815140882" y="10.0"/>
      <point x="557.1457815140882" y="0.0"/>
      <point x="573.1457815140882" y="0.0" type="curve" smooth="yes"/>
      <point x="588.1457815140882" y="0.0"/>
      <point x="596.1457815140882" y="10.0"/>
      <point x="603.1457815140882" y="21.0" type="curve" smooth="yes"/>
      <point x="1037.1457815140882" y="643.0" type="line"/>
      <point x="1038.1457815140882" y="642.0" type="line"/>
      <point x="898.1457815140882" y="83.0" type="line" smooth="yes"/>
      <point x="889.1457815140882" y="47.0"/>
      <point x="887.1457815140882" y="40.0"/>
      <point x="812.1457815140882" y="40.0" type="curve" smooth="yes"/>
      <point x="782.1457815140882" y="40.0"/>
      <point x="782.1457815140882" y="39.0"/>
      <point x="776.1457815140882" y="22.0" type="curve" smooth="yes"/>
      <point x="772.1457815140882" y="11.0"/>
      <point x="777.1457815140882" y="0.0"/>
      <point x="792.1457815140882" y="0.0" type="curve" smooth="yes"/>
      <point x="812.1457815140882" y="0.0"/>
      <point x="854.1457815140882" y="3.0"/>
      <point x="884.1457815140882" y="3.0" type="curve" smooth="yes"/>
      <point x="906.1457815140882" y="3.0"/>
      <point x="929.1457815140882" y="4.0"/>
      <point x="980.1457815140882" y="3.0" type="curve" smooth="yes"/>
      <point x="1000.1457815140882" y="3.0"/>
      <point x="1034.1457815140882" y="0.0"/>
      <point x="1054.1457815140882" y="0.0" type="curve" smooth="yes"/>
      <point x="1065.1457815140882" y="0.0"/>
      <point x="1070.1457815140882" y="1.0"/>
      <point x="1075.1457815140882" y="17.0" type="curve" smooth="yes"/>
      <point x="1081.1457815140882" y="37.0"/>
      <point x="1068.1457815140882" y="40.0"/>
      <point x="1051.1457815140882" y="40.0" type="curve" smooth="yes"/>
      <point x="1030.1457815140882" y="40.0"/>
      <point x="1015.1457815140882" y="41.0"/>
      <point x="1004.1457815140882" y="42.0" type="curve" smooth="yes"/>
      <point x="986.1457815140882" y="44.0"/>
      <point x="979.1457815140882" y="44.0"/>
      <point x="979.1457815140882" y="54.0" type="curve" smooth="yes"/>
      <point x="979.1457815140882" y="58.0"/>
      <point x="980.1457815140882" y="63.0"/>
      <point x="983.1457815140882" y="73.0" type="curve" smooth="yes"/>
      <point x="1115.1457815140882" y="602.0" type="line" smooth="yes"/>
      <point x="1123.1457815140882" y="635.0"/>
      <point x="1125.1457815140882" y="643.0"/>
      <point x="1205.1457815140882" y="643.0" type="curve" smooth="yes"/>
      <point x="1223.1457815140882" y="643.0"/>
      <point x="1237.1457815140882" y="643.0"/>
      <point x="1237.1457815140882" y="668.0" type="curve" smooth="yes"/>
      <point x="1237.1457815140882" y="683.0"/>
      <point x="1224.1457815140882" y="683.0"/>
      <point x="1206.1457815140882" y="683.0" type="curve" smooth="yes"/>
      <point x="1064.1457815140882" y="683.0" type="line" smooth="yes"/>
      <point x="1035.1457815140882" y="683.0"/>
      <point x="1032.1457815140882" y="682.0"/>
      <point x="1016.1457815140882" y="659.0" type="curve" smooth="yes"/>
      <point x="620.1457815140882" y="92.0" type="line"/>
      <point x="509.1457815140882" y="656.0" type="line" smooth="yes"/>
      <point x="504.1457815140882" y="683.0"/>
      <point x="498.1457815140882" y="683.0"/>
      <point x="472.1457815140882" y="683.0" type="curve" smooth="yes"/>
      <point x="322.1457815140882" y="683.0" type="line" smooth="yes"/>
      <point x="302.1457815140882" y="683.0"/>
      <point x="288.1457815140882" y="683.0"/>
      <point x="288.1457815140882" y="658.0" type="curve" smooth="yes"/>
      <point x="288.1457815140882" y="643.0"/>
      <point x="303.1457815140882" y="643.0"/>
      <point x="321.1457815140882" y="643.0" type="curve" smooth="yes"/>
      <point x="333.8019415140882" y="643.0"/>
      <point x="349.9187456548882" y="643.0"/>
      <point x="365.6725183377882" y="640.5667518917" type="curve" smooth="yes"/>
      <point x="372.3242705764882" y="639.5393558592"/>
      <point x="378.91130151408817" y="638.07816"/>
      <point x="385.1457815140882" y="636.0" type="curve"/>
      <point x="385.1457815140882" y="626.0"/>
      <point x="385.1457815140882" y="620.0"/>
      <point x="381.1457815140882" y="604.0" type="curve" smooth="yes"/>
    </contour>
  </outline>
</glyph>
<glyph name="N" format="2">
	<unicode hex="004E"/>
	<advance width="1934"/>
	<outline>
		<contour>
			<point x="396.2915630282" y="222" type="line" smooth="yes"/>
			<point x="376.2915630282" y="146"/>
			<point x="346.2915630282" y="86"/>
			<point x="180.2915630282" y="80" type="curve" smooth="yes"/>
			<point x="154.2915630282" y="80"/>
			<point x="136.2915630282" y="66"/>
			<point x="136.2915630282" y="30" type="curve" smooth="yes"/>
			<point x="136.2915630282" y="20"/>
			<point x="140.2915630282" y="0"/>
			<point x="170.2915630282" y="0" type="curve" smooth="yes"/>
			<point x="218.2915630282" y="0"/>
			<point x="336.2915630282" y="8"/>
			<point x="418.2915630282" y="8" type="curve" smooth="yes"/>
			<point x="550.2915630282" y="6"/>
			<point x="572.2915630282" y="0"/>
			<point x="606.2915630282" y="0" type="curve" smooth="yes"/>
			<point x="648.2915630282" y="0"/>
			<point x="650.2915630282" y="42"/>
			<point x="650.2915630282" y="52" type="curve"/>
			<point x="644.2915630282" y="80"/>
			<point x="624.2915630282" y="80"/>
			<point x="600.2915630282" y="80" type="curve" smooth="yes"/>
			<point x="508.2915630282" y="82"/>
			<point x="468.2915630282" y="108"/>
			<point x="468.2915630282" y="160" type="curve" smooth="yes"/>
			<point x="468.2915630282" y="172"/>
			<point x="470.2915630282" y="180"/>
			<point x="476.2915630282" y="202" type="curve" smooth="yes"/>
			<point x="732.2915630282" y="1224" type="line"/>
			<point x="732.2915630282" y="1224"/>
			<point x="732.2915630282" y="1224"/>
			<point x="732.2915630282" y="1224" type="curve"/>
			<point x="1360.2915630282" y="34" type="line" smooth="yes"/>
			<point x="1374.2915630282" y="6"/>
			<point x="1378.2915630282" y="0"/>
			<point x="1406.2915630282" y="0" type="curve" smooth="yes"/>
			<point x="1440.2915630282" y="0"/>
			<point x="1444.2915630282" y="10"/>
			<point x="1452.2915630282" y="46" type="curve" smooth="yes"/>
			<point x="1728.2915630282" y="1146" type="line" smooth="yes"/>
			<point x="1750.2915630282" y="1230"/>
			<point x="1790.2915630282" y="1280"/>
			<point x="1942.2915630282" y="1286" type="curve" smooth="yes"/>
			<point x="1954.2915630282" y="1286"/>
			<point x="1986.2915630282" y="1288"/>
			<point x="1986.2915630282" y="1334" type="curve" smooth="yes"/>
			<point x="1986.2915630282" y="1354"/>
			<point x="1974.2915630282" y="1366"/>
			<point x="1954.2915630282" y="1366" type="curve" smooth="yes"/>
			<point x="1906.2915630282" y="1366"/>
			<point x="1788.2915630282" y="1358"/>
			<point x="1740.2915630282" y="1358" type="curve" smooth="yes"/>
			<point x="1574.2915630282" y="1360"/>
			<point x="1552.2915630282" y="1366"/>
			<point x="1518.2915630282" y="1366" type="curve" smooth="yes"/>
			<point x="1484.2915630282" y="1366"/>
			<point x="1474.2915630282" y="1340"/>
			<point x="1474.2915630282" y="1316" type="curve" smooth="yes"/>
			<point x="1474.2915630282" y="1286"/>
			<point x="1506.2915630282" y="1286"/>
			<point x="1522.2915630282" y="1286" type="curve" smooth="yes"/>
			<point x="1616.2915630282" y="1284"/>
			<point x="1654.2915630282" y="1258"/>
			<point x="1654.2915630282" y="1206" type="curve" smooth="yes"/>
			<point x="1654.2915630282" y="1198"/>
			<point x="1652.2915630282" y="1186"/>
			<point x="1650.2915630282" y="1174" type="curve" smooth="yes"/>
			<point x="1430.2915630282" y="296" type="line"/>
			<point x="884.2915630282" y="1330" type="line" smooth="yes"/>
			<point x="864.2915630282" y="1364"/>
			<point x="862.2915630282" y="1366"/>
			<point x="814.2915630282" y="1366" type="curve" smooth="yes"/>
			<point x="526.2915630282" y="1366" type="line" smooth="yes"/>
			<point x="488.2915630282" y="1366"/>
			<point x="458.2915630282" y="1366"/>
			<point x="458.2915630282" y="1316" type="curve" smooth="yes"/>
			<point x="458.2915630282" y="1286"/>
			<point x="486.2915630282" y="1286"/>
			<point x="532.2915630282" y="1286" type="curve" smooth="yes"/>
			<point x="544.2915630282" y="1286"/>
			<point x="612.2915630282" y="1286"/>
			<point x="660.2915630282" y="1276" type="curve"/>
			<point x="660.2915630282" y="1276"/>
			<point x="660.2915630282" y="1276"/>
			<point x="660.2915630282" y="1276" type="curve"/>
		</contour>
	</outline>
</glyph>
<glyph name="O" format="2">
	<unicode hex="004F"/>
	<advance width="1868"/>
	<outline>
		<contour>
			<point x="1665" y="844" type="curve" smooth="yes"/>
			<point x="1665" y="1170"/>
			<point x="1419" y="1408"/>
			<point x="1049" y="1408" type="curve" smooth="yes"/>
			<point x="543" y="1408"/>
			<point x="71" y="956"/>
			<point x="71" y="516" type="curve" smooth="yes"/>
			<point x="71" y="202"/>
			<point x="311" y="-42"/>
			<point x="689" y="-42" type="curve" smooth="yes"/>
			<point x="1183" y="-42"/>
			<point x="1665" y="384"/>
		</contour>
		<contour>
			<point x="709" y="34" type="curve" smooth="yes"/>
			<point x="479" y="34"/>
			<point x="287" y="182"/>
			<point x="287" y="482" type="curve" smooth="yes"/>
			<point x="287" y="522"/>
			<point x="291" y="818"/>
			<point x="499" y="1074" type="curve" smooth="yes"/>
			<point x="607" y="1206"/>
			<point x="807" y="1336"/>
			<point x="1033" y="1336" type="curve" smooth="yes"/>
			<point x="1247" y="1336"/>
			<point x="1461" y="1210"/>
			<point x="1461" y="906" type="curve" smooth="yes"/>
			<point x="1461" y="780"/>
			<point x="1411" y="508"/>
			<point x="1225" y="290" type="curve" smooth="yes"/>
			<point x="1085" y="128"/>
			<point x="889" y="34"/>
		</contour>
	</outline>
</glyph>
<glyph name="P" format="2">
	<unicode hex="0050"/>
	<advance width="779"/>
	<outline>
		<contour>
			<point x="161.72135955" y="83" type="line" smooth="yes"/>
			<point x="152.72135955" y="47"/>
			<point x="150.72135955" y="40"/>
			<point x="75.72135955" y="40" type="curve" smooth="yes"/>
			<point x="52.72135955" y="40"/>
			<point x="39.72135955" y="40"/>
			<point x="39.72135955" y="15" type="curve" smooth="yes"/>
			<point x="39.72135955" y="7"/>
			<point x="45.72135955" y="0"/>
			<point x="56.72135955" y="0" type="curve" smooth="yes"/>
			<point x="77.72135955" y="0"/>
			<point x="101.72135955" y="3"/>
			<point x="123.72135955" y="3" type="curve" smooth="yes"/>
			<point x="170.72135955" y="4"/>
			<point x="214.72135955" y="4"/>
			<point x="259.72135955" y="3" type="curve" smooth="yes"/>
			<point x="281.72135955" y="3"/>
			<point x="306.72135955" y="0"/>
			<point x="327.72135955" y="0" type="curve" smooth="yes"/>
			<point x="334.72135955" y="0"/>
			<point x="350.72135955" y="0"/>
			<point x="350.72135955" y="25" type="curve" smooth="yes"/>
			<point x="350.72135955" y="40"/>
			<point x="338.72135955" y="40"/>
			<point x="317.72135955" y="40" type="curve" smooth="yes"/>
			<point x="315.72135955" y="40"/>
			<point x="297.72135955" y="40"/>
			<point x="279.72135955" y="42" type="curve" smooth="yes"/>
			<point x="259.72135955" y="44"/>
			<point x="253.72135955" y="44"/>
			<point x="253.72135955" y="55" type="curve" smooth="yes"/>
			<point x="253.72135955" y="59"/>
			<point x="254.72135955" y="63"/>
			<point x="257.72135955" y="73" type="curve" smooth="yes"/>
			<point x="315.72135955" y="306" type="line"/>
			<point x="516.72135955" y="306" type="line" smooth="yes"/>
			<point x="665.72135955" y="306"/>
			<point x="831.72135955" y="404"/>
			<point x="831.72135955" y="525" type="curve" smooth="yes"/>
			<point x="831.72135955" y="613"/>
			<point x="739.72135955" y="683"/>
			<point x="601.72135955" y="683" type="curve" smooth="yes"/>
			<point x="233.72135955" y="683" type="line" smooth="yes"/>
			<point x="214.72135955" y="683"/>
			<point x="200.72135955" y="683"/>
			<point x="200.72135955" y="658" type="curve" smooth="yes"/>
			<point x="200.72135955" y="643"/>
			<point x="213.72135955" y="643"/>
			<point x="232.72135955" y="643" type="curve" smooth="yes"/>
			<point x="244.25251955" y="643"/>
			<point x="258.6564374408" y="643"/>
			<point x="273.0411406852" y="641.15965384" type="curve" smooth="yes"/>
			<point x="281.1107836124" y="640.1272421092"/>
			<point x="289.17437955" y="638.51566"/>
			<point x="296.72135955" y="636" type="curve"/>
			<point x="296.72135955" y="625"/>
			<point x="296.72135955" y="620"/>
			<point x="292.72135955" y="604" type="curve" smooth="yes"/>
		</contour>
		<contour>
			<point x="320.72135955" y="342" type="line"/>
			<point x="387.72135955" y="609" type="line" smooth="yes"/>
			<point x="395.72135955" y="641"/>
			<point x="396.72135955" y="643"/>
			<point x="438.72135955" y="643" type="curve" smooth="yes"/>
			<point x="567.72135955" y="643" type="line" smooth="yes"/>
			<point x="658.72135955" y="643"/>
			<point x="725.72135955" y="619"/>
			<point x="725.72135955" y="543" type="curve" smooth="yes"/>
			<point x="725.72135955" y="513"/>
			<point x="712.72135955" y="430"/>
			<point x="656.72135955" y="387" type="curve" smooth="yes"/>
			<point x="611.72135955" y="353"/>
			<point x="548.72135955" y="342"/>
			<point x="491.72135955" y="342" type="curve" smooth="yes"/>
		</contour>
	</outline>
</glyph>
<glyph name="Q" format="2">
	<unicode hex="0051"/>
	<advance width="1932"/>
	<outline>
		<contour>
			<point x="134.2915630282" y="516" type="curve" smooth="yes"/>
			<point x="134.2915630282" y="202"/>
			<point x="374.2915630282" y="-42"/>
			<point x="752.2915630282" y="-42" type="curve" smooth="yes"/>
			<point x="824.2915630282" y="-42"/>
			<point x="888.2915630282" y="-34"/>
			<point x="972.2915630282" y="-14" type="curve"/>
			<point x="974.2915630282" y="-36"/>
			<point x="974.2915630282" y="-58"/>
			<point x="974.2915630282" y="-68" type="curve" smooth="yes"/>
			<point x="974.2915630282" y="-238"/>
			<point x="1006.2915630282" y="-388"/>
			<point x="1178.2915630282" y="-388" type="curve" smooth="yes"/>
			<point x="1426.2915630282" y="-388"/>
			<point x="1550.2915630282" y="-50"/>
			<point x="1550.2915630282" y="0" type="curve" smooth="yes"/>
			<point x="1550.2915630282" y="16"/>
			<point x="1536.2915630282" y="30"/>
			<point x="1520.2915630282" y="30" type="curve" smooth="yes"/>
			<point x="1498.2915630282" y="30"/>
			<point x="1494.2915630282" y="14"/>
			<point x="1488.2915630282" y="-2" type="curve" smooth="yes"/>
			<point x="1450.2915630282" y="-116"/>
			<point x="1326.2915630282" y="-170"/>
			<point x="1234.2915630282" y="-170" type="curve" smooth="yes"/>
			<point x="1146.2915630282" y="-170"/>
			<point x="1108.2915630282" y="-126"/>
			<point x="1068.2915630282" y="14" type="curve"/>
			<point x="1422.2915630282" y="140"/>
			<point x="1728.2915630282" y="476"/>
			<point x="1728.2915630282" y="844" type="curve" smooth="yes"/>
			<point x="1728.2915630282" y="1170"/>
			<point x="1482.2915630282" y="1408"/>
			<point x="1112.2915630282" y="1408" type="curve" smooth="yes"/>
			<point x="606.2915630282" y="1408"/>
			<point x="134.2915630282" y="956"/>
		</contour>
		<contour>
			<point x="338.2915630282" y="470" type="curve" smooth="yes"/>
			<point x="338.2915630282" y="709"/>
			<point x="443.2915630282" y="954"/>
			<point x="611.2915630282" y="1122" type="curve" smooth="yes"/>
			<point x="741.2915630282" y="1252"/>
			<point x="908.2915630282" y="1336"/>
			<point x="1094.2915630282" y="1336" type="curve" smooth="yes"/>
			<point x="1330.2915630282" y="1336"/>
			<point x="1526.2915630282" y="1188"/>
			<point x="1526.2915630282" y="890" type="curve" smooth="yes"/>
			<point x="1526.2915630282" y="726"/>
			<point x="1450.2915630282" y="290"/>
			<point x="1048.2915630282" y="96" type="curve"/>
			<point x="1008.2915630282" y="220"/>
			<point x="954.2915630282" y="306"/>
			<point x="832.2915630282" y="306" type="curve" smooth="yes"/>
			<point x="714.2915630282" y="306"/>
			<point x="598.2915630282" y="216"/>
			<point x="598.2915630282" y="102" type="curve" smooth="yes"/>
			<point x="598.2915630282" y="90"/>
			<point x="600.2915630282" y="68"/>
			<point x="604.2915630282" y="58" type="curve"/>
			<point x="448.2915630282" y="112"/>
			<point x="338.2915630282" y="246"/>
		</contour>
		<contour>
			<point x="664.2915630282" y="104" type="curve" smooth="yes"/>
			<point x="664.2915630282" y="178"/>
			<point x="748.2915630282" y="240"/>
			<point x="830.2915630282" y="240" type="curve" smooth="yes"/>
			<point x="922.2915630282" y="240"/>
			<point x="958.2915630282" y="186"/>
			<point x="968.2915630282" y="64" type="curve"/>
			<point x="888.2915630282" y="36"/>
			<point x="814.2915630282" y="30"/>
			<point x="770.2915630282" y="30" type="curve" smooth="yes"/>
			<point x="742.2915630282" y="30"/>
			<point x="664.2915630282" y="30"/>
		</contour>
	</outline>
</glyph>
<glyph name="R" format="2">
	<unicode hex="0052"/>
	<advance width="1844"/>
	<outline>
		<contour>
			<point x="649" y="716" type="line"/>
			<point x="775" y="1218" type="line" smooth="yes"/>
			<point x="791" y="1282"/>
			<point x="793" y="1286"/>
			<point x="877" y="1286" type="curve" smooth="yes"/>
			<point x="943" y="1286"/>
			<point x="1008" y="1286"/>
			<point x="1073" y="1286" type="curve" smooth="yes"/>
			<point x="1273" y="1286"/>
			<point x="1419" y="1236"/>
			<point x="1419" y="1078" type="curve" smooth="yes"/>
			<point x="1419" y="1008"/>
			<point x="1389" y="864"/>
			<point x="1251" y="786" type="curve" smooth="yes"/>
			<point x="1173" y="742"/>
			<point x="1065" y="716"/>
			<point x="929" y="716" type="curve" smooth="yes"/>
		</contour>
		<contour>
			<point x="1635" y="1056" type="curve" smooth="yes"/>
			<point x="1635" y="1222"/>
			<point x="1425" y="1366"/>
			<point x="1113" y="1366" type="curve" smooth="yes"/>
			<point x="467" y="1366" type="line" smooth="yes"/>
			<point x="429" y="1366"/>
			<point x="399" y="1366"/>
			<point x="399" y="1316" type="curve" smooth="yes"/>
			<point x="399" y="1286"/>
			<point x="429" y="1286"/>
			<point x="465" y="1286" type="curve" smooth="yes"/>
			<point x="486" y="1286"/>
			<point x="512" y="1286"/>
			<point x="538" y="1283" type="curve" smooth="yes"/>
			<point x="557" y="1281"/>
			<point x="576" y="1278"/>
			<point x="593" y="1272" type="curve"/>
			<point x="593" y="1252"/>
			<point x="593" y="1240"/>
			<point x="585" y="1208" type="curve" smooth="yes"/>
			<point x="323" y="166" type="line" smooth="yes"/>
			<point x="305" y="94"/>
			<point x="301" y="80"/>
			<point x="151" y="80" type="curve" smooth="yes"/>
			<point x="93" y="80"/>
			<point x="93" y="80"/>
			<point x="81" y="48" type="curve" smooth="yes"/>
			<point x="71" y="20"/>
			<point x="81" y="0"/>
			<point x="111" y="0" type="curve" smooth="yes"/>
			<point x="171" y="0"/>
			<point x="305" y="8"/>
			<point x="365" y="8" type="curve" smooth="yes"/>
			<point x="407" y="8"/>
			<point x="449" y="8"/>
			<point x="515" y="6" type="curve" smooth="yes"/>
			<point x="579" y="4"/>
			<point x="607" y="0"/>
			<point x="649" y="0" type="curve" smooth="yes"/>
			<point x="677" y="0"/>
			<point x="683" y="8"/>
			<point x="691" y="34" type="curve" smooth="yes"/>
			<point x="705" y="74"/>
			<point x="675" y="80"/>
			<point x="643" y="80" type="curve" smooth="yes"/>
			<point x="601" y="80"/>
			<point x="571" y="82"/>
			<point x="549" y="84" type="curve" smooth="yes"/>
			<point x="513" y="88"/>
			<point x="499" y="88"/>
			<point x="499" y="110" type="curve" smooth="yes"/>
			<point x="499" y="118"/>
			<point x="503" y="132"/>
			<point x="507" y="146" type="curve" smooth="yes"/>
			<point x="633" y="650" type="line"/>
			<point x="921" y="650" type="line" smooth="yes"/>
			<point x="1097" y="650"/>
			<point x="1185" y="570"/>
			<point x="1185" y="474" type="curve" smooth="yes"/>
			<point x="1185" y="450"/>
			<point x="1167" y="382"/>
			<point x="1155" y="336" type="curve" smooth="yes"/>
			<point x="1133" y="244"/>
			<point x="1125" y="216"/>
			<point x="1125" y="180" type="curve" smooth="yes"/>
			<point x="1125" y="32"/>
			<point x="1261" y="-42"/>
			<point x="1435" y="-42" type="curve" smooth="yes"/>
			<point x="1623" y="-42"/>
			<point x="1711" y="148"/>
			<point x="1711" y="194" type="curve" smooth="yes"/>
			<point x="1711" y="206"/>
			<point x="1701" y="224"/>
			<point x="1675" y="224" type="curve" smooth="yes"/>
			<point x="1647" y="224"/>
			<point x="1641" y="208"/>
			<point x="1637" y="194" type="curve" smooth="yes"/>
			<point x="1591" y="58"/>
			<point x="1495" y="24"/>
			<point x="1445" y="24" type="curve" smooth="yes"/>
			<point x="1391" y="24"/>
			<point x="1347" y="44"/>
			<point x="1347" y="162" type="curve" smooth="yes"/>
			<point x="1347" y="208"/>
			<point x="1361" y="318"/>
			<point x="1367" y="370" type="curve" smooth="yes"/>
			<point x="1369" y="390"/>
			<point x="1375" y="432"/>
			<point x="1375" y="448" type="curve" smooth="yes"/>
			<point x="1375" y="580"/>
			<point x="1271" y="650"/>
			<point x="1185" y="680" type="curve"/>
			<point x="1379" y="724"/>
			<point x="1635" y="860"/>
		</contour>
	</outline>
</glyph>
<glyph name="S" format="2">
	<unicode hex="0053"/>
	<advance width="1512"/>
	<outline>
		<contour>
			<point x="402.2915630282" y="956" type="curve" smooth="yes"/>
			<point x="402.2915630282" y="860"/>
			<point x="448.2915630282" y="794"/>
			<point x="482.2915630282" y="760" type="curve" smooth="yes"/>
			<point x="556.2915630282" y="684"/>
			<point x="618.2915630282" y="670"/>
			<point x="762.2915630282" y="640" type="curve" smooth="yes"/>
			<point x="806.2915630282" y="630"/>
			<point x="960.2915630282" y="594"/>
			<point x="974.2915630282" y="592" type="curve"/>
			<point x="1066.2915630282" y="570"/>
			<point x="1150.2915630282" y="500"/>
			<point x="1150.2915630282" y="386" type="curve" smooth="yes"/>
			<point x="1150.2915630282" y="220"/>
			<point x="966.2915630282" y="38"/>
			<point x="730.2915630282" y="38" type="curve" smooth="yes"/>
			<point x="624.2915630282" y="38"/>
			<point x="320.2915630282" y="58"/>
			<point x="320.2915630282" y="318" type="curve" smooth="yes"/>
			<point x="320.2915630282" y="380"/>
			<point x="334.2915630282" y="418"/>
			<point x="334.2915630282" y="426" type="curve" smooth="yes"/>
			<point x="334.2915630282" y="450"/>
			<point x="314.2915630282" y="454"/>
			<point x="298.2915630282" y="454" type="curve" smooth="yes"/>
			<point x="278.2915630282" y="454"/>
			<point x="266.2915630282" y="452"/>
			<point x="256.2915630282" y="414" type="curve" smooth="yes"/>
			<point x="222.2915630282" y="271"/>
			<point x="187.2915630282" y="129"/>
			<point x="152.2915630282" y="-14" type="curve"/>
			<point x="152.2915630282" y="-18"/>
			<point x="154.2915630282" y="-42"/>
			<point x="182.2915630282" y="-42" type="curve" smooth="yes"/>
			<point x="194.2915630282" y="-42"/>
			<point x="196.2915630282" y="-40"/>
			<point x="224.2915630282" y="-14" type="curve" smooth="yes"/>
			<point x="226.2915630282" y="-12"/>
			<point x="318.2915630282" y="90"/>
			<point x="322.2915630282" y="96" type="curve"/>
			<point x="428.2915630282" y="-22"/>
			<point x="622.2915630282" y="-42"/>
			<point x="724.2915630282" y="-42" type="curve" smooth="yes"/>
			<point x="1038.2915630282" y="-42"/>
			<point x="1290.2915630282" y="212"/>
			<point x="1290.2915630282" y="448" type="curve" smooth="yes"/>
			<point x="1290.2915630282" y="558"/>
			<point x="1236.2915630282" y="630"/>
			<point x="1216.2915630282" y="652" type="curve" smooth="yes"/>
			<point x="1132.2915630282" y="738"/>
			<point x="1084.2915630282" y="748"/>
			<point x="938.2915630282" y="782" type="curve" smooth="yes"/>
			<point x="874.2915630282" y="796"/>
			<point x="776.2915630282" y="816"/>
			<point x="724.2915630282" y="828" type="curve" smooth="yes"/>
			<point x="616.2915630282" y="854"/>
			<point x="542.2915630282" y="922"/>
			<point x="542.2915630282" y="1020" type="curve" smooth="yes"/>
			<point x="542.2915630282" y="1174"/>
			<point x="726.2915630282" y="1334"/>
			<point x="950.2915630282" y="1334" type="curve" smooth="yes"/>
			<point x="1126.2915630282" y="1334"/>
			<point x="1290.2915630282" y="1260"/>
			<point x="1290.2915630282" y="1022" type="curve" smooth="yes"/>
			<point x="1290.2915630282" y="988"/>
			<point x="1286.2915630282" y="946"/>
			<point x="1286.2915630282" y="940" type="curve" smooth="yes"/>
			<point x="1286.2915630282" y="912"/>
			<point x="1316.2915630282" y="912"/>
			<point x="1322.2915630282" y="912" type="curve" smooth="yes"/>
			<point x="1352.2915630282" y="912"/>
			<point x="1356.2915630282" y="922"/>
			<point x="1364.2915630282" y="958" type="curve" smooth="yes"/>
			<point x="1466.2915630282" y="1366" type="line" smooth="yes"/>
			<point x="1470.2915630282" y="1384"/>
			<point x="1466.2915630282" y="1408"/>
			<point x="1438.2915630282" y="1408" type="curve" smooth="yes"/>
			<point x="1422.2915630282" y="1408"/>
			<point x="1418.2915630282" y="1404"/>
			<point x="1396.2915630282" y="1380" type="curve" smooth="yes"/>
			<point x="1372.2915630282" y="1352"/>
			<point x="1328.2915630282" y="1304"/>
			<point x="1294.2915630282" y="1268" type="curve"/>
			<point x="1212.2915630282" y="1374"/>
			<point x="1076.2915630282" y="1408"/>
			<point x="954.2915630282" y="1408" type="curve" smooth="yes"/>
			<point x="658.2915630282" y="1408"/>
			<point x="402.2915630282" y="1184"/>
		</contour>
	</outline>
</glyph>
<glyph name="T" format="2">
	<unicode hex="0054"/>
	<advance width="731"/>
	<outline>
		<contour>
			<point x="245.72135955" y="86" type="line" smooth="yes"/>
			<point x="238.72135955" y="58"/>
			<point x="233.72135955" y="49"/>
			<point x="205.72135955" y="45" type="curve" smooth="yes"/>
			<point x="177.72135955" y="41"/>
			<point x="119.72135955" y="40"/>
			<point x="104.72135955" y="40" type="curve" smooth="yes"/>
			<point x="83.72135955" y="40"/>
			<point x="84.72135955" y="37"/>
			<point x="79.72135955" y="23" type="curve" smooth="yes"/>
			<point x="74.72135955" y="9"/>
			<point x="82.72135955" y="0"/>
			<point x="96.72135955" y="0" type="curve" smooth="yes"/>
			<point x="123.72135955" y="0"/>
			<point x="153.72135955" y="3"/>
			<point x="180.72135955" y="3" type="curve" smooth="yes"/>
			<point x="264.72135955" y="3"/>
			<point x="306.72135955" y="3"/>
			<point x="363.72135955" y="3" type="curve" smooth="yes"/>
			<point x="392.72135955" y="3"/>
			<point x="424.72135955" y="0"/>
			<point x="453.72135955" y="0" type="curve" smooth="yes"/>
			<point x="461.72135955" y="0"/>
			<point x="471.72135955" y="-3"/>
			<point x="476.72135955" y="18" type="curve" smooth="yes"/>
			<point x="481.72135955" y="37"/>
			<point x="472.72135955" y="40"/>
			<point x="445.72135955" y="40" type="curve" smooth="yes"/>
			<point x="415.72135955" y="40"/>
			<point x="394.72135955" y="41"/>
			<point x="372.72135955" y="42" type="curve" smooth="yes"/>
			<point x="349.72135955" y="44"/>
			<point x="333.72135955" y="46"/>
			<point x="338.72135955" y="64" type="curve" smooth="yes"/>
			<point x="472.72135955" y="602" type="line" smooth="yes"/>
			<point x="480.72135955" y="634"/>
			<point x="482.72135955" y="636"/>
			<point x="523.72135955" y="636" type="curve" smooth="yes"/>
			<point x="554.35735955" y="636"/>
			<point x="584.99335955" y="636"/>
			<point x="615.72135955" y="636" type="curve" smooth="yes"/>
			<point x="722.72135955" y="636"/>
			<point x="737.72135955" y="605"/>
			<point x="737.72135955" y="547" type="curve" smooth="yes"/>
			<point x="737.72135955" y="533"/>
			<point x="736.72135955" y="506"/>
			<point x="729.72135955" y="466" type="curve" smooth="yes"/>
			<point x="726.72135955" y="449"/>
			<point x="733.72135955" y="442"/>
			<point x="747.72135955" y="442" type="curve" smooth="yes"/>
			<point x="763.72135955" y="442"/>
			<point x="765.72135955" y="452"/>
			<point x="767.72135955" y="467" type="curve" smooth="yes"/>
			<point x="794.72135955" y="659" type="line"/>
			<point x="794.72135955" y="676"/>
			<point x="783.72135955" y="676"/>
			<point x="763.72135955" y="676" type="curve" smooth="yes"/>
			<point x="113.72135955" y="676" type="line" smooth="yes"/>
			<point x="87.72135955" y="676"/>
			<point x="85.72135955" y="676"/>
			<point x="78.72135955" y="655" type="curve" smooth="yes"/>
			<point x="13.72135955" y="473" type="line" smooth="yes"/>
			<point x="9.72135955" y="461"/>
			<point x="9.72135955" y="458"/>
			<point x="9.72135955" y="457" type="curve" smooth="yes"/>
			<point x="9.72135955" y="454"/>
			<point x="10.72135955" y="442"/>
			<point x="27.72135955" y="442" type="curve" smooth="yes"/>
			<point x="41.72135955" y="442"/>
			<point x="42.72135955" y="445"/>
			<point x="51.72135955" y="471" type="curve" smooth="yes"/>
			<point x="96.72135955" y="593"/>
			<point x="127.72135955" y="636"/>
			<point x="256.72135955" y="636" type="curve" smooth="yes"/>
			<point x="347.72135955" y="636" type="line" smooth="yes"/>
			<point x="366.72135955" y="636"/>
			<point x="368.72135955" y="636"/>
			<point x="380.72135955" y="633" type="curve"/>
			<point x="380.72135955" y="633"/>
			<point x="380.72135955" y="633"/>
			<point x="380.72135955" y="633" type="curve"/>
		</contour>
	</outline>
</glyph>
<glyph name="U" format="2">
	<unicode hex="0055"/>
	<advance width="838"/>
	<outline>
		<contour>
			<point x="382.1457815141" y="-21" type="curve" smooth="yes"/>
			<point x="518.1457815141" y="-21"/>
			<point x="665.1457815141" y="79"/>
			<point x="703.1457815141" y="230" type="curve" smooth="yes"/>
			<point x="731.4507815141" y="343.22"/>
			<point x="759.7557815141" y="456.44"/>
			<point x="788.1457815141" y="570" type="curve" smooth="yes"/>
			<point x="799.1457815141" y="612"/>
			<point x="816.1457815141" y="640"/>
			<point x="897.1457815141" y="643" type="curve" smooth="yes"/>
			<point x="910.1457815141" y="643"/>
			<point x="918.1457815141" y="651"/>
			<point x="918.1457815141" y="667" type="curve" smooth="yes"/>
			<point x="918.1457815141" y="677"/>
			<point x="912.1457815141" y="683"/>
			<point x="902.1457815141" y="683" type="curve" smooth="yes"/>
			<point x="878.1457815141" y="683"/>
			<point x="819.1457815141" y="679"/>
			<point x="795.1457815141" y="679" type="curve" smooth="yes"/>
			<point x="776.8307815141" y="679.333"/>
			<point x="758.5157815141" y="679.666"/>
			<point x="740.1457815141" y="680" type="curve" smooth="yes"/>
			<point x="723.1457815141" y="680"/>
			<point x="702.1457815141" y="683"/>
			<point x="685.1457815141" y="683" type="curve" smooth="yes"/>
			<point x="668.1457815141" y="683"/>
			<point x="663.1457815141" y="670"/>
			<point x="663.1457815141" y="658" type="curve" smooth="yes"/>
			<point x="663.1457815141" y="643"/>
			<point x="679.1457815141" y="643"/>
			<point x="687.1457815141" y="643" type="curve" smooth="yes"/>
			<point x="734.1457815141" y="642"/>
			<point x="753.1457815141" y="629"/>
			<point x="753.1457815141" y="603" type="curve" smooth="yes"/>
			<point x="753.1457815141" y="600"/>
			<point x="753.1457815141" y="594"/>
			<point x="751.1457815141" y="587" type="curve" smooth="yes"/>
			<point x="721.5087815141" y="468.452"/>
			<point x="691.8717815141" y="349.904"/>
			<point x="662.1457815141" y="231" type="curve" smooth="yes"/>
			<point x="631.1457815141" y="107"/>
			<point x="507.1457815141" y="19"/>
			<point x="387.1457815141" y="19" type="curve" smooth="yes"/>
			<point x="328.1457815141" y="19"/>
			<point x="240.1457815141" y="43"/>
			<point x="240.1457815141" y="154" type="curve" smooth="yes"/>
			<point x="240.1457815141" y="178"/>
			<point x="243.1457815141" y="201"/>
			<point x="249.1457815141" y="224" type="curve" smooth="yes"/>
			<point x="344.1457815141" y="602" type="line" smooth="yes"/>
			<point x="352.1457815141" y="635"/>
			<point x="354.1457815141" y="643"/>
			<point x="434.1457815141" y="643" type="curve" smooth="yes"/>
			<point x="452.1457815141" y="643"/>
			<point x="466.1457815141" y="643"/>
			<point x="466.1457815141" y="667" type="curve" smooth="yes"/>
			<point x="466.1457815141" y="677"/>
			<point x="459.1457815141" y="683"/>
			<point x="449.1457815141" y="683" type="curve" smooth="yes"/>
			<point x="428.1457815141" y="683"/>
			<point x="404.1457815141" y="680"/>
			<point x="382.1457815141" y="680" type="curve" smooth="yes"/>
			<point x="337.1457815141" y="679"/>
			<point x="292.1457815141" y="679"/>
			<point x="246.1457815141" y="680" type="curve" smooth="yes"/>
			<point x="224.1457815141" y="680"/>
			<point x="199.1457815141" y="683"/>
			<point x="177.1457815141" y="683" type="curve" smooth="yes"/>
			<point x="171.1457815141" y="683"/>
			<point x="154.1457815141" y="683"/>
			<point x="154.1457815141" y="658" type="curve" smooth="yes"/>
			<point x="154.1457815141" y="643"/>
			<point x="169.1457815141" y="643"/>
			<point x="187.1457815141" y="643" type="curve" smooth="yes"/>
			<point x="198.9582815141" y="643"/>
			<point x="213.7854299516" y="643"/>
			<point x="228.5183706254" y="641.0216369629" type="curve" smooth="yes"/>
			<point x="236.2356252641" y="639.9853515625"/>
			<point x="244.1457815141" y="638"/>
			<point x="251.1457815141" y="636" type="curve"/>
			<point x="250.1457815141" y="616"/>
			<point x="243.1457815141" y="592"/>
			<point x="238.1457815141" y="570" type="curve" smooth="yes"/>
			<point x="236.1457815141" y="560"/>
			<point x="218.1457815141" y="492"/>
			<point x="153.1457815141" y="230" type="curve" smooth="yes"/>
			<point x="147.1457815141" y="205"/>
			<point x="147.1457815141" y="192"/>
			<point x="147.1457815141" y="180" type="curve" smooth="yes"/>
			<point x="147.1457815141" y="61"/>
			<point x="248.1457815141" y="-21"/>
		</contour>
	</outline>
</glyph>
<glyph name="V" format="2">
  <advance width="729"/>
  <unicode hex="0056"/>
  <outline>
    <contour>
      <point x="373.1457815140882" y="-21.0" type="curve" smooth="yes"/>
      <point x="393.1457815140882" y="-21.0"/>
      <point x="398.1457815140882" y="-14.0"/>
      <point x="408.1457815140882" y="0.0" type="curve" smooth="yes"/>
      <point x="807.1457815140882" y="568.0" type="line" smooth="yes"/>
      <point x="848.1457815140882" y="626.0"/>
      <point x="881.1457815140882" y="641.0"/>
      <point x="937.1457815140882" y="643.0" type="curve" smooth="yes"/>
      <point x="948.1457815140882" y="643.0"/>
      <point x="954.1457815140882" y="658.0"/>
      <point x="954.1457815140882" y="669.0" type="curve"/>
      <point x="953.1457815140882" y="672.0"/>
      <point x="952.1457815140882" y="683.0"/>
      <point x="938.1457815140882" y="683.0" type="curve" smooth="yes"/>
      <point x="912.1457815140882" y="683.0"/>
      <point x="881.1457815140882" y="679.0"/>
      <point x="853.1457815140882" y="679.0" type="curve" smooth="yes"/>
      <point x="829.1457815140882" y="679.0"/>
      <point x="770.1457815140882" y="683.0"/>
      <point x="746.1457815140882" y="683.0" type="curve" smooth="yes"/>
      <point x="729.1457815140882" y="683.0"/>
      <point x="724.1457815140882" y="670.0"/>
      <point x="724.1457815140882" y="658.0" type="curve" smooth="yes"/>
      <point x="724.1457815140882" y="644.0"/>
      <point x="738.1457815140882" y="643.0"/>
      <point x="745.1457815140882" y="643.0" type="curve" smooth="yes"/>
      <point x="752.1457815140882" y="643.0"/>
      <point x="786.1457815140882" y="640.0"/>
      <point x="786.1457815140882" y="616.0" type="curve" smooth="yes"/>
      <point x="786.1457815140882" y="603.0"/>
      <point x="773.1457815140882" y="584.0"/>
      <point x="767.1457815140882" y="576.0" type="curve" smooth="yes"/>
      <point x="430.1457815140882" y="93.0" type="line"/>
      <point x="328.1457815140882" y="604.0" type="line" smooth="yes"/>
      <point x="326.1457815140882" y="614.0"/>
      <point x="326.1457815140882" y="616.0"/>
      <point x="326.1457815140882" y="620.0" type="curve" smooth="yes"/>
      <point x="326.1457815140882" y="632.0"/>
      <point x="347.1457815140882" y="643.0"/>
      <point x="392.1457815140882" y="643.0" type="curve" smooth="yes"/>
      <point x="405.1457815140882" y="643.0"/>
      <point x="420.1457815140882" y="643.0"/>
      <point x="420.1457815140882" y="668.0" type="curve" smooth="yes"/>
      <point x="420.1457815140882" y="671.0"/>
      <point x="419.1457815140882" y="683.0"/>
      <point x="403.1457815140882" y="683.0" type="curve" smooth="yes"/>
      <point x="382.1457815140882" y="683.0"/>
      <point x="358.1457815140882" y="681.0"/>
      <point x="336.1457815140882" y="680.0" type="curve" smooth="yes"/>
      <point x="314.1457815140882" y="679.0"/>
      <point x="273.1457815140882" y="679.0"/>
      <point x="212.14578151408818" y="680.0" type="curve" smooth="yes"/>
      <point x="194.14578151408818" y="680.0"/>
      <point x="173.14578151408818" y="683.0"/>
      <point x="155.14578151408818" y="683.0" type="curve" smooth="yes"/>
      <point x="144.14578151408818" y="683.0"/>
      <point x="133.14578151408818" y="678.0"/>
      <point x="133.14578151408818" y="658.0" type="curve" smooth="yes"/>
      <point x="133.14578151408818" y="643.0"/>
      <point x="147.14578151408818" y="643.0"/>
      <point x="160.14578151408818" y="643.0" type="curve" smooth="yes"/>
      <point x="219.14578151408818" y="643.0"/>
      <point x="221.14578151408818" y="635.0"/>
      <point x="225.14578151408818" y="613.0" type="curve" smooth="yes"/>
      <point x="345.1457815140882" y="5.0" type="line" smooth="yes"/>
      <point x="349.1457815140882" y="-13.0"/>
      <point x="351.1457815140882" y="-21.0"/>
    </contour>
  </outline>
</glyph>
<glyph name="W" format="2">
  <advance width="1150"/>
  <unicode hex="0057"/>
  <outline>
    <contour>
      <point x="668.1457815140882" y="514.0" type="line"/>
      <point x="732.1457815140882" y="7.0" type="line" smooth="yes"/>
      <point x="735.1457815140882" y="-13.0"/>
      <point x="736.1457815140882" y="-21.0"/>
      <point x="755.1457815140882" y="-21.0" type="curve" smooth="yes"/>
      <point x="772.1457815140882" y="-21.0"/>
      <point x="779.1457815140882" y="-14.0"/>
      <point x="788.1457815140882" y="0.0" type="curve" smooth="yes"/>
      <point x="1140.1457815140882" y="563.0" type="line" smooth="yes"/>
      <point x="1181.1457815140882" y="629.0"/>
      <point x="1217.1457815140882" y="640.0"/>
      <point x="1254.1457815140882" y="643.0" type="curve" smooth="yes"/>
      <point x="1266.1457815140882" y="644.0"/>
      <point x="1279.1457815140882" y="645.0"/>
      <point x="1279.1457815140882" y="668.0" type="curve" smooth="yes"/>
      <point x="1279.1457815140882" y="676.0"/>
      <point x="1273.1457815140882" y="683.0"/>
      <point x="1264.1457815140882" y="683.0" type="curve" smooth="yes"/>
      <point x="1242.1457815140882" y="683.0"/>
      <point x="1209.1457815140882" y="679.0"/>
      <point x="1184.1457815140882" y="679.0" type="curve" smooth="yes"/>
      <point x="1159.1457815140882" y="679.0"/>
      <point x="1095.1457815140882" y="683.0"/>
      <point x="1070.1457815140882" y="683.0" type="curve" smooth="yes"/>
      <point x="1064.1457815140882" y="683.0"/>
      <point x="1048.1457815140882" y="683.0"/>
      <point x="1048.1457815140882" y="658.0" type="curve" smooth="yes"/>
      <point x="1048.1457815140882" y="644.0"/>
      <point x="1061.1457815140882" y="643.0"/>
      <point x="1069.1457815140882" y="643.0" type="curve" smooth="yes"/>
      <point x="1096.1457815140882" y="642.0"/>
      <point x="1123.1457815140882" y="633.0"/>
      <point x="1123.1457815140882" y="610.0" type="curve" smooth="yes"/>
      <point x="1123.1457815140882" y="597.0"/>
      <point x="1114.1457815140882" y="583.0"/>
      <point x="1108.1457815140882" y="574.0" type="curve" smooth="yes"/>
      <point x="818.1457815140882" y="112.0" type="line"/>
      <point x="755.1457815140882" y="618.0" type="line" smooth="yes"/>
      <point x="754.1457815140882" y="624.0"/>
      <point x="760.1457815140882" y="642.0"/>
      <point x="827.1457815140882" y="643.0" type="curve" smooth="yes"/>
      <point x="838.1457815140882" y="643.0"/>
      <point x="853.1457815140882" y="643.0"/>
      <point x="853.1457815140882" y="668.0" type="curve" smooth="yes"/>
      <point x="853.1457815140882" y="676.0"/>
      <point x="847.1457815140882" y="683.0"/>
      <point x="836.1457815140882" y="683.0" type="curve" smooth="yes"/>
      <point x="817.1457815140882" y="683.0"/>
      <point x="784.1457815140882" y="680.0"/>
      <point x="764.1457815140882" y="680.0" type="curve" smooth="yes"/>
      <point x="724.1457815140882" y="679.0"/>
      <point x="700.1457815140882" y="679.0"/>
      <point x="660.1457815140882" y="680.0" type="curve" smooth="yes"/>
      <point x="643.1457815140882" y="680.0"/>
      <point x="612.1457815140882" y="683.0"/>
      <point x="595.1457815140882" y="683.0" type="curve" smooth="yes"/>
      <point x="589.1457815140882" y="683.0"/>
      <point x="573.1457815140882" y="683.0"/>
      <point x="573.1457815140882" y="658.0" type="curve" smooth="yes"/>
      <point x="573.1457815140882" y="643.0"/>
      <point x="587.1457815140882" y="643.0"/>
      <point x="599.1457815140882" y="643.0" type="curve" smooth="yes"/>
      <point x="617.1457815140882" y="643.0"/>
      <point x="646.1457815140882" y="643.0"/>
      <point x="652.1457815140882" y="632.0" type="curve"/>
      <point x="654.1457815140882" y="626.0"/>
      <point x="661.1457815140882" y="578.0"/>
      <point x="661.1457815140882" y="569.0" type="curve"/>
      <point x="661.1457815140882" y="567.0"/>
      <point x="659.1457815140882" y="563.0"/>
      <point x="653.1457815140882" y="554.0" type="curve" smooth="yes"/>
      <point x="377.1457815140882" y="112.0" type="line"/>
      <point x="314.1457815140882" y="611.0" type="line" smooth="yes"/>
      <point x="312.1457815140882" y="629.0"/>
      <point x="325.1457815140882" y="643.0"/>
      <point x="384.1457815140882" y="643.0" type="curve" smooth="yes"/>
      <point x="397.1457815140882" y="643.0"/>
      <point x="412.1457815140882" y="643.0"/>
      <point x="412.1457815140882" y="668.0" type="curve" smooth="yes"/>
      <point x="412.1457815140882" y="673.0"/>
      <point x="409.1457815140882" y="683.0"/>
      <point x="395.1457815140882" y="683.0" type="curve" smooth="yes"/>
      <point x="376.1457815140882" y="683.0"/>
      <point x="353.1457815140882" y="680.0"/>
      <point x="333.1457815140882" y="680.0" type="curve" smooth="yes"/>
      <point x="292.1457815140882" y="679.0"/>
      <point x="249.14578151408818" y="679.0"/>
      <point x="209.14578151408818" y="680.0" type="curve" smooth="yes"/>
      <point x="191.14578151408818" y="680.0"/>
      <point x="170.14578151408818" y="683.0"/>
      <point x="153.14578151408818" y="683.0" type="curve" smooth="yes"/>
      <point x="132.14578151408818" y="683.0"/>
      <point x="131.14578151408818" y="662.0"/>
      <point x="131.14578151408818" y="657.0" type="curve"/>
      <point x="134.14578151408818" y="643.0"/>
      <point x="144.14578151408818" y="643.0"/>
      <point x="161.14578151408818" y="643.0" type="curve" smooth="yes"/>
      <point x="210.14578151408818" y="643.0"/>
      <point x="211.14578151408818" y="638.0"/>
      <point x="214.14578151408818" y="611.0" type="curve" smooth="yes"/>
      <point x="290.1457815140882" y="7.0" type="line" smooth="yes"/>
      <point x="293.1457815140882" y="-13.0"/>
      <point x="295.1457815140882" y="-21.0"/>
      <point x="314.1457815140882" y="-21.0" type="curve" smooth="yes"/>
      <point x="331.1457815140882" y="-21.0"/>
      <point x="339.1457815140882" y="-13.0"/>
      <point x="348.1457815140882" y="2.0" type="curve" smooth="yes"/>
    </contour>
  </outline>
</glyph>
<glyph name="X" format="2">
  <advance width="1001"/>
  <unicode hex="0058"/>
  <outline>
    <contour>
      <point x="630.1457815140882" y="380.0" type="curve"/>
      <point x="688.1457815140882" y="438.0"/>
      <point x="752.1457815140882" y="498.0"/>
      <point x="814.1457815140882" y="558.0" type="curve" smooth="yes"/>
      <point x="895.1457815140882" y="637.0"/>
      <point x="948.1457815140882" y="640.0"/>
      <point x="992.1457815140882" y="643.0" type="curve" smooth="yes"/>
      <point x="1006.1457815140882" y="644.0"/>
      <point x="1019.1457815140882" y="644.0"/>
      <point x="1019.1457815140882" y="668.0" type="curve" smooth="yes"/>
      <point x="1019.1457815140882" y="674.0"/>
      <point x="1013.1457815140882" y="683.0"/>
      <point x="1003.1457815140882" y="683.0" type="curve" smooth="yes"/>
      <point x="974.1457815140882" y="683.0"/>
      <point x="936.1457815140882" y="679.0"/>
      <point x="905.1457815140882" y="679.0" type="curve" smooth="yes"/>
      <point x="827.1457815140882" y="679.0"/>
      <point x="808.1457815140882" y="683.0"/>
      <point x="786.1457815140882" y="683.0" type="curve" smooth="yes"/>
      <point x="779.1457815140882" y="683.0"/>
      <point x="763.1457815140882" y="683.0"/>
      <point x="763.1457815140882" y="658.0" type="curve" smooth="yes"/>
      <point x="763.1457815140882" y="644.0"/>
      <point x="777.1457815140882" y="643.0"/>
      <point x="781.1457815140882" y="643.0" type="curve" smooth="yes"/>
      <point x="794.1457815140882" y="643.0"/>
      <point x="813.1457815140882" y="638.0"/>
      <point x="813.1457815140882" y="620.0" type="curve" smooth="yes"/>
      <point x="813.1457815140882" y="606.0"/>
      <point x="805.1457815140882" y="596.0"/>
      <point x="773.1457815140882" y="566.0" type="curve" smooth="yes"/>
      <point x="611.1457815140882" y="414.0" type="line"/>
      <point x="505.1457815140882" y="608.0" type="line" smooth="yes"/>
      <point x="504.1457815140882" y="610.0"/>
      <point x="499.1457815140882" y="619.0"/>
      <point x="499.1457815140882" y="621.0" type="curve" smooth="yes"/>
      <point x="499.1457815140882" y="627.0"/>
      <point x="520.1457815140882" y="643.0"/>
      <point x="551.1457815140882" y="643.0" type="curve" smooth="yes"/>
      <point x="559.1457815140882" y="643.0"/>
      <point x="573.1457815140882" y="644.0"/>
      <point x="573.1457815140882" y="668.0" type="curve" smooth="yes"/>
      <point x="573.1457815140882" y="671.0"/>
      <point x="572.1457815140882" y="683.0"/>
      <point x="556.1457815140882" y="683.0" type="curve" smooth="yes"/>
      <point x="535.1457815140882" y="683.0"/>
      <point x="511.1457815140882" y="680.0"/>
      <point x="489.1457815140882" y="680.0" type="curve" smooth="yes"/>
      <point x="431.1457815140882" y="679.0"/>
      <point x="384.1457815140882" y="679.0"/>
      <point x="362.1457815140882" y="680.0" type="curve" smooth="yes"/>
      <point x="342.1457815140882" y="681.0"/>
      <point x="320.1457815140882" y="683.0"/>
      <point x="301.1457815140882" y="683.0" type="curve" smooth="yes"/>
      <point x="290.1457815140882" y="683.0"/>
      <point x="279.1457815140882" y="678.0"/>
      <point x="279.1457815140882" y="658.0" type="curve" smooth="yes"/>
      <point x="279.1457815140882" y="643.0"/>
      <point x="291.1457815140882" y="643.0"/>
      <point x="311.1457815140882" y="643.0" type="curve" smooth="yes"/>
      <point x="370.1457815140882" y="643.0"/>
      <point x="376.1457815140882" y="633.0"/>
      <point x="385.1457815140882" y="616.0" type="curve" smooth="yes"/>
      <point x="435.0957815140882" y="524.758"/>
      <point x="485.04578151408816" y="433.516"/>
      <point x="535.1457815140882" y="342.0" type="curve"/>
      <point x="499.8477815140882" y="308.7"/>
      <point x="464.5497815140882" y="275.4"/>
      <point x="429.1457815140882" y="242.0" type="curve" smooth="yes"/>
      <point x="261.1457815140882" y="83.0"/>
      <point x="225.14578151408818" y="44.0"/>
      <point x="130.14578151408818" y="40.0" type="curve" smooth="yes"/>
      <point x="116.14578151408816" y="39.0"/>
      <point x="103.14578151408816" y="39.0"/>
      <point x="103.14578151408816" y="18.0" type="curve" smooth="yes"/>
      <point x="103.14578151408816" y="8.0"/>
      <point x="109.14578151408816" y="0.0"/>
      <point x="118.14578151408816" y="0.0" type="curve" smooth="yes"/>
      <point x="147.14578151408818" y="0.0"/>
      <point x="185.14578151408818" y="4.0"/>
      <point x="216.14578151408818" y="4.0" type="curve" smooth="yes"/>
      <point x="243.14578151408818" y="4.0"/>
      <point x="309.1457815140882" y="0.0"/>
      <point x="336.1457815140882" y="0.0" type="curve" smooth="yes"/>
      <point x="342.1457815140882" y="0.0"/>
      <point x="358.1457815140882" y="0.0"/>
      <point x="358.1457815140882" y="25.0" type="curve" smooth="yes"/>
      <point x="358.1457815140882" y="39.0"/>
      <point x="345.1457815140882" y="40.0"/>
      <point x="340.1457815140882" y="40.0" type="curve" smooth="yes"/>
      <point x="326.1457815140882" y="41.0"/>
      <point x="308.1457815140882" y="46.0"/>
      <point x="308.1457815140882" y="63.0" type="curve" smooth="yes"/>
      <point x="308.1457815140882" y="72.0"/>
      <point x="314.1457815140882" y="84.0"/>
      <point x="324.1457815140882" y="94.0" type="curve" smooth="yes"/>
      <point x="400.4027815140882" y="165.595"/>
      <point x="476.6597815140882" y="237.19"/>
      <point x="553.1457815140882" y="309.0" type="curve"/>
      <point x="681.1457815140882" y="75.0" type="line" smooth="yes"/>
      <point x="685.1457815140882" y="67.0"/>
      <point x="687.1457815140882" y="64.0"/>
      <point x="687.1457815140882" y="62.0" type="curve" smooth="yes"/>
      <point x="687.1457815140882" y="56.0"/>
      <point x="667.1457815140882" y="42.0"/>
      <point x="635.1457815140882" y="40.0" type="curve" smooth="yes"/>
      <point x="628.1457815140882" y="40.0"/>
      <point x="612.1457815140882" y="39.0"/>
      <point x="612.1457815140882" y="15.0" type="curve" smooth="yes"/>
      <point x="612.1457815140882" y="12.0"/>
      <point x="614.1457815140882" y="0.0"/>
      <point x="630.1457815140882" y="0.0" type="curve" smooth="yes"/>
      <point x="651.1457815140882" y="0.0"/>
      <point x="675.1457815140882" y="3.0"/>
      <point x="712.1457815140882" y="3.0" type="curve" smooth="yes"/>
      <point x="765.1457815140882" y="4.0"/>
      <point x="787.1457815140882" y="3.0"/>
      <point x="807.1457815140882" y="3.0" type="curve" smooth="yes"/>
      <point x="831.1457815140882" y="3.0"/>
      <point x="866.1457815140882" y="0.0"/>
      <point x="885.1457815140882" y="0.0" type="curve" smooth="yes"/>
      <point x="897.1457815140882" y="0.0"/>
      <point x="907.1457815140882" y="6.0"/>
      <point x="907.1457815140882" y="25.0" type="curve" smooth="yes"/>
      <point x="907.1457815140882" y="40.0"/>
      <point x="891.1457815140882" y="40.0"/>
      <point x="878.1457815140882" y="40.0" type="curve" smooth="yes"/>
      <point x="816.1457815140882" y="40.0"/>
      <point x="811.1457815140882" y="49.0"/>
      <point x="801.1457815140882" y="67.0" type="curve" smooth="yes"/>
      <point x="744.1457815140882" y="172.0"/>
      <point x="655.1457815140882" y="329.0"/>
    </contour>
  </outline>
</glyph>
<glyph name="Y" format="2">
	<unicode hex="0059"/>
	<advance width="1452"/>
	<outline>
		<contour>
			<point x="779" y="644" type="line"/>
			<point x="493" y="1226" type="line" smooth="yes"/>
			<point x="489" y="1234"/>
			<point x="483" y="1248"/>
			<point x="483" y="1254" type="curve" smooth="yes"/>
			<point x="483" y="1286"/>
			<point x="579" y="1286"/>
			<point x="591" y="1286" type="curve" smooth="yes"/>
			<point x="613" y="1286"/>
			<point x="645" y="1286"/>
			<point x="645" y="1336" type="curve" smooth="yes"/>
			<point x="645" y="1342"/>
			<point x="641" y="1366"/>
			<point x="609" y="1366" type="curve" smooth="yes"/>
			<point x="567" y="1366"/>
			<point x="517" y="1360"/>
			<point x="475" y="1360" type="curve" smooth="yes"/>
			<point x="375" y="1358"/>
			<point x="257" y="1358"/>
			<point x="217" y="1360" type="curve" smooth="yes"/>
			<point x="177" y="1362"/>
			<point x="133" y="1366"/>
			<point x="95" y="1366" type="curve" smooth="yes"/>
			<point x="83" y="1366"/>
			<point x="51" y="1366"/>
			<point x="51" y="1316" type="curve" smooth="yes"/>
			<point x="51" y="1286"/>
			<point x="77" y="1286"/>
			<point x="107" y="1286" type="curve" smooth="yes"/>
			<point x="227" y="1286"/>
			<point x="241" y="1268"/>
			<point x="259" y="1232" type="curve" smooth="yes"/>
			<point x="595" y="548" type="line"/>
			<point x="595" y="548"/>
			<point x="595" y="548"/>
			<point x="595" y="548" type="curve"/>
			<point x="565" y="426"/>
			<point x="536" y="304"/>
			<point x="505" y="182" type="curve" smooth="yes"/>
			<point x="479" y="82"/>
			<point x="471" y="80"/>
			<point x="309" y="80" type="curve" smooth="yes"/>
			<point x="265" y="80"/>
			<point x="267" y="74"/>
			<point x="257" y="48" type="curve" smooth="yes"/>
			<point x="249" y="26"/>
			<point x="253" y="0"/>
			<point x="287" y="0" type="curve" smooth="yes"/>
			<point x="347" y="0"/>
			<point x="493" y="8"/>
			<point x="553" y="8" type="curve" smooth="yes"/>
			<point x="595" y="8"/>
			<point x="649" y="6"/>
			<point x="691" y="6" type="curve" smooth="yes"/>
			<point x="735" y="6"/>
			<point x="783" y="0"/>
			<point x="825" y="0" type="curve" smooth="yes"/>
			<point x="837" y="0"/>
			<point x="871" y="0"/>
			<point x="871" y="50" type="curve" smooth="yes"/>
			<point x="871" y="80"/>
			<point x="841" y="80"/>
			<point x="805" y="80" type="curve" smooth="yes"/>
			<point x="787" y="80"/>
			<point x="765" y="80"/>
			<point x="742" y="82" type="curve" smooth="yes"/>
			<point x="720" y="84"/>
			<point x="698" y="87"/>
			<point x="677" y="94" type="curve"/>
			<point x="679" y="128"/>
			<point x="679" y="132"/>
			<point x="695" y="198" type="curve" smooth="yes"/>
			<point x="724" y="314"/>
			<point x="753" y="430"/>
			<point x="781" y="546" type="curve"/>
			<point x="781" y="546"/>
			<point x="781" y="546"/>
			<point x="781" y="546" type="curve"/>
			<point x="1353" y="1122" type="line" smooth="yes"/>
			<point x="1357" y="1128"/>
			<point x="1385" y="1150"/>
			<point x="1403" y="1166" type="curve" smooth="yes"/>
			<point x="1477" y="1232"/>
			<point x="1557" y="1280"/>
			<point x="1657" y="1286" type="curve" smooth="yes"/>
			<point x="1693" y="1288"/>
			<point x="1717" y="1290"/>
			<point x="1717" y="1336" type="curve" smooth="yes"/>
			<point x="1717" y="1350"/>
			<point x="1703" y="1366"/>
			<point x="1687" y="1366" type="curve" smooth="yes"/>
			<point x="1633" y="1366"/>
			<point x="1571" y="1358"/>
			<point x="1515" y="1358" type="curve" smooth="yes"/>
			<point x="1467" y="1358"/>
			<point x="1347" y="1366"/>
			<point x="1299" y="1366" type="curve" smooth="yes"/>
			<point x="1275" y="1366"/>
			<point x="1255" y="1354"/>
			<point x="1255" y="1316" type="curve" smooth="yes"/>
			<point x="1255" y="1314"/>
			<point x="1255" y="1288"/>
			<point x="1291" y="1286" type="curve" smooth="yes"/>
			<point x="1311" y="1284"/>
			<point x="1353" y="1282"/>
			<point x="1353" y="1254" type="curve" smooth="yes"/>
			<point x="1353" y="1222"/>
			<point x="1307" y="1178"/>
			<point x="1249" y="1118" type="curve" smooth="yes"/>
		</contour>
	</outline>
</glyph>
<glyph name="Z" format="2">
	<unicode hex="005A"/>
	<advance width="837"/>
	<outline>
		<contour>
			<point x="754.1457815141" y="643" type="line"/>
			<point x="152.1457815141" y="47" type="line" smooth="yes"/>
			<point x="147.1457815141" y="42"/>
			<point x="135.1457815141" y="29"/>
			<point x="135.1457815141" y="12" type="curve" smooth="yes"/>
			<point x="135.1457815141" y="0"/>
			<point x="143.1457815141" y="0"/>
			<point x="162.1457815141" y="0" type="curve" smooth="yes"/>
			<point x="693.1457815141" y="0" type="line"/>
			<point x="696.4757815141" y="2.664"/>
			<point x="699.8057815141" y="5.328"/>
			<point x="703.1457815141" y="8" type="curve"/>
			<point x="781.1457815141" y="247" type="line" smooth="yes"/>
			<point x="782.1457815141" y="250"/>
			<point x="785.1457815141" y="259"/>
			<point x="785.1457815141" y="261" type="curve" smooth="yes"/>
			<point x="785.1457815141" y="271"/>
			<point x="777.1457815141" y="276"/>
			<point x="767.1457815141" y="276" type="curve" smooth="yes"/>
			<point x="753.1457815141" y="276"/>
			<point x="751.1457815141" y="270"/>
			<point x="746.1457815141" y="255" type="curve" smooth="yes"/>
			<point x="696.1457815141" y="110"/>
			<point x="643.1457815141" y="43"/>
			<point x="465.1457815141" y="43" type="curve" smooth="yes"/>
			<point x="262.1457815141" y="43" type="line"/>
			<point x="864.1457815141" y="639" type="line" smooth="yes"/>
			<point x="871.1457815141" y="646"/>
			<point x="880.1457815141" y="655"/>
			<point x="880.1457815141" y="670" type="curve" smooth="yes"/>
			<point x="880.1457815141" y="683"/>
			<point x="873.1457815141" y="683"/>
			<point x="852.1457815141" y="683" type="curve" smooth="yes"/>
			<point x="359.1457815141" y="683" type="line" smooth="yes"/>
			<point x="333.1457815141" y="683"/>
			<point x="331.1457815141" y="683"/>
			<point x="324.1457815141" y="661" type="curve" smooth="yes"/>
			<point x="267.1457815141" y="480" type="line" smooth="yes"/>
			<point x="266.1457815141" y="476"/>
			<point x="263.1457815141" y="467"/>
			<point x="263.1457815141" y="464" type="curve" smooth="yes"/>
			<point x="263.1457815141" y="449"/>
			<point x="278.1457815141" y="449"/>
			<point x="282.1457815141" y="449" type="curve" smooth="yes"/>
			<point x="295.1457815141" y="449"/>
			<point x="297.1457815141" y="453"/>
			<point x="303.1457815141" y="470" type="curve" smooth="yes"/>
			<point x="356.1457815141" y="620"/>
			<point x="452.1457815141" y="643"/>
			<point x="562.1457815141" y="643" type="curve" smooth="yes"/>
		</contour>
	</outline>
</glyph>
<glyph name="a" format="2">
  <advance width="674"/>
  <unicode hex="0061"/>
  <outline>
    <contour>
      <point x="113.14578151408816" y="160.0" type="curve" smooth="yes"/>
      <point x="113.14578151408816" y="52.0"/>
      <point x="189.14578151408818" y="-10.0"/>
      <point x="274.1457815140882" y="-10.0" type="curve" smooth="yes"/>
      <point x="341.1457815140882" y="-10.0"/>
      <point x="398.1457815140882" y="36.0"/>
      <point x="423.1457815140882" y="61.0" type="curve"/>
      <point x="442.1457815140882" y="-2.0"/>
      <point x="509.1457815140882" y="-10.0"/>
      <point x="531.1457815140882" y="-10.0" type="curve" smooth="yes"/>
      <point x="567.1457815140882" y="-10.0"/>
      <point x="593.1457815140882" y="10.0"/>
      <point x="612.1457815140882" y="41.0" type="curve" smooth="yes"/>
      <point x="637.1457815140882" y="81.0"/>
      <point x="651.1457815140882" y="139.0"/>
      <point x="651.1457815140882" y="144.0" type="curve" smooth="yes"/>
      <point x="651.1457815140882" y="146.0"/>
      <point x="650.1457815140882" y="158.0"/>
      <point x="632.1457815140882" y="158.0" type="curve" smooth="yes"/>
      <point x="617.1457815140882" y="158.0"/>
      <point x="615.1457815140882" y="151.0"/>
      <point x="611.1457815140882" y="135.0" type="curve" smooth="yes"/>
      <point x="595.1457815140882" y="74.0"/>
      <point x="574.1457815140882" y="23.0"/>
      <point x="535.1457815140882" y="23.0" type="curve" smooth="yes"/>
      <point x="501.1457815140882" y="23.0"/>
      <point x="498.1457815140882" y="59.0"/>
      <point x="498.1457815140882" y="74.0" type="curve" smooth="yes"/>
      <point x="498.1457815140882" y="87.0"/>
      <point x="508.1457815140882" y="127.0"/>
      <point x="515.1457815140882" y="153.0" type="curve" smooth="yes"/>
      <point x="529.1317815140882" y="208.944"/>
      <point x="543.1177815140882" y="264.888"/>
      <point x="557.1457815140882" y="321.0" type="curve" smooth="yes"/>
      <point x="562.1457815140882" y="344.0"/>
      <point x="572.1457815140882" y="382.0"/>
      <point x="572.1457815140882" y="389.0" type="curve" smooth="yes"/>
      <point x="572.1457815140882" y="411.0"/>
      <point x="555.1457815140882" y="422.0"/>
      <point x="537.1457815140882" y="422.0" type="curve" smooth="yes"/>
      <point x="509.1457815140882" y="422.0"/>
      <point x="492.1457815140882" y="396.0"/>
      <point x="489.1457815140882" y="381.0" type="curve"/>
      <point x="475.1457815140882" y="404.0"/>
      <point x="441.1457815140882" y="441.0"/>
      <point x="379.1457815140882" y="441.0" type="curve" smooth="yes"/>
      <point x="251.14578151408818" y="441.0"/>
      <point x="113.14578151408816" y="307.0"/>
    </contour>
    <contour>
      <point x="198.14578151408818" y="121.0" type="curve" smooth="yes"/>
      <point x="198.14578151408818" y="162.0"/>
      <point x="219.14578151408818" y="260.0"/>
      <point x="251.14578151408818" y="317.0" type="curve" smooth="yes"/>
      <point x="281.1457815140882" y="371.0"/>
      <point x="332.1457815140882" y="408.0"/>
      <point x="380.1457815140882" y="408.0" type="curve" smooth="yes"/>
      <point x="455.1457815140882" y="408.0"/>
      <point x="474.1457815140882" y="329.0"/>
      <point x="474.1457815140882" y="322.0" type="curve"/>
      <point x="473.14678151408816" y="317.338"/>
      <point x="472.1477815140882" y="312.676"/>
      <point x="471.1457815140882" y="308.0" type="curve"/>
      <point x="456.4937815140882" y="249.059"/>
      <point x="441.84178151408815" y="190.118"/>
      <point x="427.1457815140882" y="131.0" type="curve" smooth="yes"/>
      <point x="422.1457815140882" y="113.0"/>
      <point x="422.1457815140882" y="111.0"/>
      <point x="408.1457815140882" y="96.0" type="curve" smooth="yes"/>
      <point x="353.1457815140882" y="34.0"/>
      <point x="302.1457815140882" y="23.0"/>
      <point x="277.1457815140882" y="23.0" type="curve" smooth="yes"/>
      <point x="237.14578151408818" y="23.0"/>
      <point x="198.14578151408818" y="50.0"/>
    </contour>
  </outline>
</glyph>
<glyph name="b" format="2">
  <advance width="547"/>
  <unicode hex="0062"/>
  <outline>
    <contour>
      <point x="275.1457815140882" y="-10.0" type="curve" smooth="yes"/>
      <point x="409.1457815140882" y="-10.0"/>
      <point x="543.1457815140882" y="128.0"/>
      <point x="543.1457815140882" y="271.0" type="curve" smooth="yes"/>
      <point x="543.1457815140882" y="374.0"/>
      <point x="471.1457815140882" y="441.0"/>
      <point x="381.1457815140882" y="441.0" type="curve" smooth="yes"/>
      <point x="320.1457815140882" y="441.0"/>
      <point x="268.1457815140882" y="403.0"/>
      <point x="249.14578151408818" y="386.0" type="curve"/>
      <point x="319.1457815140882" y="664.0" type="line" smooth="yes"/>
      <point x="320.1457815140882" y="668.0"/>
      <point x="322.1457815140882" y="674.0"/>
      <point x="322.1457815140882" y="679.0" type="curve" smooth="yes"/>
      <point x="322.1457815140882" y="695.0"/>
      <point x="302.1457815140882" y="694.0"/>
      <point x="290.1457815140882" y="693.0" type="curve" smooth="yes"/>
      <point x="252.84978151408814" y="690.003"/>
      <point x="215.55378151408814" y="687.006"/>
      <point x="178.14578151408818" y="684.0" type="curve" smooth="yes"/>
      <point x="161.14578151408818" y="683.0"/>
      <point x="148.14578151408818" y="682.0"/>
      <point x="148.14578151408818" y="658.0" type="curve" smooth="yes"/>
      <point x="148.14578151408818" y="643.0"/>
      <point x="161.14578151408818" y="643.0"/>
      <point x="177.14578151408818" y="643.0" type="curve" smooth="yes"/>
      <point x="206.14578151408818" y="643.0"/>
      <point x="213.14578151408818" y="640.0"/>
      <point x="226.14578151408818" y="636.0" type="curve"/>
      <point x="225.14578151408818" y="619.0"/>
      <point x="225.14578151408818" y="617.0"/>
      <point x="220.14578151408818" y="597.0" type="curve" smooth="yes"/>
      <point x="166.14578151408818" y="383.0"/>
      <point x="125.14578151408816" y="225.0"/>
      <point x="123.14578151408816" y="211.0" type="curve" smooth="yes"/>
      <point x="119.14578151408816" y="187.0"/>
      <point x="118.14578151408816" y="171.0"/>
      <point x="118.14578151408816" y="159.0" type="curve" smooth="yes"/>
      <point x="118.14578151408816" y="47.0"/>
      <point x="193.14578151408818" y="-10.0"/>
    </contour>
    <contour>
      <point x="276.1457815140882" y="23.0" type="curve" smooth="yes"/>
      <point x="245.14578151408818" y="23.0"/>
      <point x="193.14578151408818" y="41.0"/>
      <point x="193.14578151408818" y="127.0" type="curve" smooth="yes"/>
      <point x="193.14578151408818" y="158.0"/>
      <point x="196.14578151408818" y="174.0"/>
      <point x="209.14578151408818" y="227.0" type="curve" smooth="yes"/>
      <point x="215.14578151408818" y="250.0"/>
      <point x="227.14578151408818" y="298.0"/>
      <point x="231.14578151408818" y="316.0" type="curve"/>
      <point x="231.14578151408818" y="316.0"/>
      <point x="231.14578151408818" y="316.0"/>
      <point x="231.14578151408818" y="316.0" type="curve"/>
      <point x="262.1457815140882" y="359.0"/>
      <point x="320.1457815140882" y="408.0"/>
      <point x="378.1457815140882" y="408.0" type="curve" smooth="yes"/>
      <point x="429.1457815140882" y="408.0"/>
      <point x="458.1457815140882" y="368.0"/>
      <point x="458.1457815140882" y="310.0" type="curve" smooth="yes"/>
      <point x="458.1457815140882" y="275.0"/>
      <point x="438.1457815140882" y="166.0"/>
      <point x="401.1457815140882" y="107.0" type="curve" smooth="yes"/>
      <point x="367.1457815140882" y="52.0"/>
      <point x="317.1457815140882" y="23.0"/>
    </contour>
  </outline>
</glyph>
<glyph name="c" format="2">
	<unicode hex="0063"/>
	<advance width="559"/>
	<outline>
		<contour>
			<point x="27.72135955" y="168" type="curve" smooth="yes"/>
			<point x="27.72135955" y="73"/>
			<point x="96.72135955" y="-10"/>
			<point x="225.72135955" y="-10" type="curve" smooth="yes"/>
			<point x="294.41279955" y="-10"/>
			<point x="347.6179443996" y="3.35025444"/>
			<point x="387.4830771244" y="20.8315021418" type="curve" smooth="yes"/>
			<point x="456.7238963532" y="51.1942735484"/>
			<point x="485.72135955" y="94.01918"/>
			<point x="485.72135955" y="101" type="curve" smooth="yes"/>
			<point x="485.72135955" y="110"/>
			<point x="474.72135955" y="121"/>
			<point x="466.72135955" y="121" type="curve" smooth="yes"/>
			<point x="461.72135955" y="121"/>
			<point x="460.72135955" y="120"/>
			<point x="445.72135955" y="105" type="curve"/>
			<point x="391.72135955" y="43"/>
			<point x="298.72135955" y="23"/>
			<point x="227.72135955" y="23" type="curve" smooth="yes"/>
			<point x="144.72135955" y="23"/>
			<point x="114.72135955" y="77"/>
			<point x="114.72135955" y="135" type="curve" smooth="yes"/>
			<point x="114.72135955" y="138"/>
			<point x="116.72135955" y="254"/>
			<point x="185.72135955" y="339" type="curve" smooth="yes"/>
			<point x="200.72135955" y="356"/>
			<point x="252.72135955" y="408"/>
			<point x="328.72135955" y="408" type="curve" smooth="yes"/>
			<point x="333.72135955" y="408"/>
			<point x="386.72135955" y="408"/>
			<point x="416.72135955" y="384" type="curve"/>
			<point x="409.80652955" y="382.40427"/>
			<point x="396.9502063399" y="376.8475445266"/>
			<point x="386.4294699643" y="366.4268693931" type="curve" smooth="yes"/>
			<point x="377.1710399854" y="357.256495038"/>
			<point x="369.72135955" y="344.31933"/>
			<point x="369.72135955" y="327" type="curve" smooth="yes"/>
			<point x="369.72135955" y="302"/>
			<point x="388.72135955" y="289"/>
			<point x="409.72135955" y="289" type="curve" smooth="yes"/>
			<point x="433.72135955" y="289"/>
			<point x="467.72135955" y="306"/>
			<point x="467.72135955" y="354" type="curve" smooth="yes"/>
			<point x="467.72135955" y="419"/>
			<point x="391.72135955" y="441"/>
			<point x="327.72135955" y="441" type="curve" smooth="yes"/>
			<point x="172.72135955" y="441"/>
			<point x="27.72135955" y="307"/>
		</contour>
	</outline>
</glyph>
<glyph name="d" format="2">
	<unicode hex="0064"/>
	<advance width="642"/>
	<outline>
		<contour>
			<point x="188.72135955" y="-10" type="curve" smooth="yes"/>
			<point x="255.72135955" y="-10"/>
			<point x="312.72135955" y="36"/>
			<point x="337.72135955" y="61" type="curve"/>
			<point x="356.72135955" y="-2"/>
			<point x="423.72135955" y="-10"/>
			<point x="445.72135955" y="-10" type="curve" smooth="yes"/>
			<point x="481.72135955" y="-10"/>
			<point x="507.72135955" y="10"/>
			<point x="526.72135955" y="41" type="curve" smooth="yes"/>
			<point x="551.72135955" y="81"/>
			<point x="565.72135955" y="139"/>
			<point x="565.72135955" y="144" type="curve" smooth="yes"/>
			<point x="565.72135955" y="146"/>
			<point x="564.72135955" y="158"/>
			<point x="546.72135955" y="158" type="curve" smooth="yes"/>
			<point x="531.72135955" y="158"/>
			<point x="529.72135955" y="151"/>
			<point x="525.72135955" y="135" type="curve" smooth="yes"/>
			<point x="509.72135955" y="74"/>
			<point x="488.72135955" y="23"/>
			<point x="449.72135955" y="23" type="curve" smooth="yes"/>
			<point x="415.72135955" y="23"/>
			<point x="412.72135955" y="59"/>
			<point x="412.72135955" y="74" type="curve" smooth="yes"/>
			<point x="412.72135955" y="87"/>
			<point x="412.72135955" y="90"/>
			<point x="417.72135955" y="108" type="curve" smooth="yes"/>
			<point x="557.72135955" y="664" type="line" smooth="yes"/>
			<point x="558.72135955" y="668"/>
			<point x="560.72135955" y="674"/>
			<point x="560.72135955" y="679" type="curve" smooth="yes"/>
			<point x="560.72135955" y="695"/>
			<point x="540.72135955" y="694"/>
			<point x="528.72135955" y="693" type="curve" smooth="yes"/>
			<point x="491.42535955" y="690.003"/>
			<point x="454.12935955" y="687.006"/>
			<point x="416.72135955" y="684" type="curve" smooth="yes"/>
			<point x="399.72135955" y="683"/>
			<point x="386.72135955" y="682"/>
			<point x="386.72135955" y="659" type="curve" smooth="yes"/>
			<point x="386.72135955" y="643"/>
			<point x="399.72135955" y="643"/>
			<point x="414.72135955" y="643" type="curve" smooth="yes"/>
			<point x="444.72135955" y="643"/>
			<point x="451.72135955" y="641"/>
			<point x="464.72135955" y="636" type="curve"/>
			<point x="463.72135955" y="621"/>
			<point x="463.72135955" y="619"/>
			<point x="460.72135955" y="606" type="curve" smooth="yes"/>
			<point x="439.72135955" y="520"/>
			<point x="423.72135955" y="453"/>
			<point x="403.72135955" y="381" type="curve"/>
			<point x="389.72135955" y="404"/>
			<point x="355.72135955" y="441"/>
			<point x="293.72135955" y="441" type="curve" smooth="yes"/>
			<point x="165.72135955" y="441"/>
			<point x="27.72135955" y="307"/>
			<point x="27.72135955" y="160" type="curve" smooth="yes"/>
			<point x="27.72135955" y="52"/>
			<point x="103.72135955" y="-10"/>
		</contour>
		<contour>
			<point x="191.72135955" y="23" type="curve" smooth="yes"/>
			<point x="151.72135955" y="23"/>
			<point x="112.72135955" y="50"/>
			<point x="112.72135955" y="121" type="curve" smooth="yes"/>
			<point x="112.72135955" y="162"/>
			<point x="133.72135955" y="260"/>
			<point x="165.72135955" y="317" type="curve" smooth="yes"/>
			<point x="195.72135955" y="371"/>
			<point x="246.72135955" y="408"/>
			<point x="294.72135955" y="408" type="curve" smooth="yes"/>
			<point x="369.72135955" y="408"/>
			<point x="388.72135955" y="329"/>
			<point x="388.72135955" y="322" type="curve"/>
			<point x="387.72235955" y="317.338"/>
			<point x="386.72335955" y="312.676"/>
			<point x="385.72135955" y="308" type="curve"/>
			<point x="371.06935955" y="249.059"/>
			<point x="356.41735955" y="190.118"/>
			<point x="341.72135955" y="131" type="curve" smooth="yes"/>
			<point x="336.72135955" y="113"/>
			<point x="336.72135955" y="111"/>
			<point x="322.72135955" y="96" type="curve" smooth="yes"/>
			<point x="267.72135955" y="34"/>
			<point x="216.72135955" y="23"/>
		</contour>
	</outline>
</glyph>
<glyph name="e" format="2">
  <advance width="589"/>
  <unicode hex="0065"/>
  <outline>
    <contour>
      <point x="118.14578151408816" y="182.0" type="curve" smooth="yes"/>
      <point x="118.14578151408816" y="76.0"/>
      <point x="187.14578151408818" y="-10.0"/>
      <point x="312.1457815140882" y="-10.0" type="curve" smooth="yes"/>
      <point x="384.6783415140882" y="-10.0"/>
      <point x="440.0271269332882" y="5.0548113584"/>
      <point x="480.5641677665882" y="24.134494599" type="curve" smooth="yes"/>
      <point x="543.9789189972881" y="53.9820942608"/>
      <point x="571.1457815140882" y="93.67952"/>
      <point x="571.1457815140882" y="101.0" type="curve" smooth="yes"/>
      <point x="571.1457815140882" y="110.0"/>
      <point x="560.1457815140882" y="121.0"/>
      <point x="552.1457815140882" y="121.0" type="curve" smooth="yes"/>
      <point x="547.1457815140882" y="121.0"/>
      <point x="546.1457815140882" y="120.0"/>
      <point x="531.1457815140882" y="105.0" type="curve"/>
      <point x="471.1457815140882" y="37.0"/>
      <point x="369.1457815140882" y="23.0"/>
      <point x="314.1457815140882" y="23.0" type="curve" smooth="yes"/>
      <point x="233.14578151408818" y="23.0"/>
      <point x="204.14578151408818" y="81.0"/>
      <point x="204.14578151408818" y="145.0" type="curve" smooth="yes"/>
      <point x="204.14578151408818" y="153.0"/>
      <point x="205.14578151408818" y="186.0"/>
      <point x="215.14578151408818" y="225.0" type="curve"/>
      <point x="229.79778151408817" y="225.0"/>
      <point x="244.44978151408816" y="225.0"/>
      <point x="259.1457815140882" y="225.0" type="curve" smooth="yes"/>
      <point x="325.1457815140882" y="225.0"/>
      <point x="401.1457815140882" y="230.0"/>
      <point x="453.1457815140882" y="247.0" type="curve" smooth="yes"/>
      <point x="540.1457815140882" y="276.0"/>
      <point x="544.1457815140882" y="337.0"/>
      <point x="544.1457815140882" y="352.0" type="curve" smooth="yes"/>
      <point x="544.1457815140882" y="401.0"/>
      <point x="496.1457815140882" y="441.0"/>
      <point x="411.1457815140882" y="441.0" type="curve" smooth="yes"/>
      <point x="288.1457815140882" y="441.0"/>
      <point x="118.14578151408816" y="353.0"/>
    </contour>
    <contour>
      <point x="224.14578151408818" y="258.0" type="curve"/>
      <point x="257.1457815140882" y="376.0"/>
      <point x="355.1457815140882" y="408.0"/>
      <point x="411.1457815140882" y="408.0" type="curve" smooth="yes"/>
      <point x="458.1457815140882" y="408.0"/>
      <point x="498.1457815140882" y="387.0"/>
      <point x="498.1457815140882" y="351.0" type="curve" smooth="yes"/>
      <point x="498.1457815140882" y="272.93394"/>
      <point x="380.4732501352882" y="260.3980920852"/>
      <point x="279.39348987968816" y="258.385085627" type="curve" smooth="yes"/>
      <point x="260.05705769808816" y="258.0"/>
      <point x="241.32784151408816" y="258.0"/>
    </contour>
  </outline>
</glyph>
<glyph name="f" format="2">
	<unicode hex="0066"/>
	<advance width="1200"/>
	<outline>
		<contour>
			<point x="830.2915630282" y="782" type="curve"/>
			<point x="1034.2915630282" y="782" type="line" smooth="yes"/>
			<point x="1074.2915630282" y="782"/>
			<point x="1102.2915630282" y="782"/>
			<point x="1102.2915630282" y="832" type="curve" smooth="yes"/>
			<point x="1102.2915630282" y="862"/>
			<point x="1076.2915630282" y="862"/>
			<point x="1040.2915630282" y="862" type="curve" smooth="yes"/>
			<point x="844.2915630282" y="862" type="line"/>
			<point x="904.2915630282" y="1190"/>
			<point x="904.2915630282" y="1194"/>
			<point x="912.2915630282" y="1230" type="curve" smooth="yes"/>
			<point x="922.2915630282" y="1274"/>
			<point x="926.2915630282" y="1292"/>
			<point x="956.2915630282" y="1316" type="curve" smooth="yes"/>
			<point x="980.2915630282" y="1334"/>
			<point x="998.2915630282" y="1342"/>
			<point x="1028.2915630282" y="1342" type="curve" smooth="yes"/>
			<point x="1060.2915630282" y="1342"/>
			<point x="1092.2915630282" y="1338"/>
			<point x="1120.2915630282" y="1324" type="curve"/>
			<point x="1080.2915630282" y="1308"/>
			<point x="1044.2915630282" y="1264"/>
			<point x="1044.2915630282" y="1216" type="curve" smooth="yes"/>
			<point x="1044.2915630282" y="1174"/>
			<point x="1078.2915630282" y="1140"/>
			<point x="1126.2915630282" y="1140" type="curve" smooth="yes"/>
			<point x="1178.2915630282" y="1140"/>
			<point x="1240.2915630282" y="1184"/>
			<point x="1240.2915630282" y="1262" type="curve" smooth="yes"/>
			<point x="1240.2915630282" y="1372"/>
			<point x="1116.2915630282" y="1408"/>
			<point x="1028.2915630282" y="1408" type="curve" smooth="yes"/>
			<point x="938.2915630282" y="1408"/>
			<point x="802.2915630282" y="1366"/>
			<point x="742.2915630282" y="1166" type="curve" smooth="yes"/>
			<point x="714.2915630282" y="1076"/>
			<point x="707.2915630282" y="992"/>
			<point x="680.2915630282" y="862" type="curve"/>
			<point x="516.2915630282" y="862" type="line" smooth="yes"/>
			<point x="476.2915630282" y="862"/>
			<point x="448.2915630282" y="862"/>
			<point x="448.2915630282" y="812" type="curve" smooth="yes"/>
			<point x="448.2915630282" y="782"/>
			<point x="474.2915630282" y="782"/>
			<point x="510.2915630282" y="782" type="curve" smooth="yes"/>
			<point x="666.2915630282" y="782" type="line"/>
			<point x="588.2915630282" y="334"/>
			<point x="558.2915630282" y="180"/>
			<point x="552.2915630282" y="144" type="curve" smooth="yes"/>
			<point x="496.2915630282" y="-164"/>
			<point x="480.2915630282" y="-220"/>
			<point x="462.2915630282" y="-254" type="curve" smooth="yes"/>
			<point x="434.2915630282" y="-302"/>
			<point x="400.2915630282" y="-342"/>
			<point x="350.2915630282" y="-342" type="curve" smooth="yes"/>
			<point x="338.2915630282" y="-342"/>
			<point x="294.2915630282" y="-338"/>
			<point x="262.2915630282" y="-324" type="curve"/>
			<point x="302.2915630282" y="-308"/>
			<point x="338.2915630282" y="-264"/>
			<point x="338.2915630282" y="-216" type="curve" smooth="yes"/>
			<point x="338.2915630282" y="-174"/>
			<point x="304.2915630282" y="-140"/>
			<point x="256.2915630282" y="-140" type="curve" smooth="yes"/>
			<point x="204.2915630282" y="-140"/>
			<point x="142.2915630282" y="-184"/>
			<point x="142.2915630282" y="-262" type="curve" smooth="yes"/>
			<point x="142.2915630282" y="-374"/>
			<point x="268.2915630282" y="-408"/>
			<point x="348.2915630282" y="-408" type="curve" smooth="yes"/>
			<point x="458.2915630282" y="-408"/>
			<point x="536.2915630282" y="-318"/>
			<point x="572.2915630282" y="-274" type="curve" smooth="yes"/>
			<point x="660.2915630282" y="-156"/>
			<point x="702.2915630282" y="82"/>
			<point x="706.2915630282" y="100" type="curve" smooth="yes"/>
			<point x="748.2915630282" y="327"/>
			<point x="789.2915630282" y="554"/>
		</contour>
	</outline>
</glyph>
<glyph name="g" format="2">
	<unicode hex="0067"/>
	<advance width="1214"/>
	<outline>
		<contour>
			<point x="192.2915630282" y="336" type="curve" smooth="yes"/>
			<point x="192.2915630282" y="138"/>
			<point x="330.2915630282" y="0"/>
			<point x="518.2915630282" y="0" type="curve" smooth="yes"/>
			<point x="622.2915630282" y="0"/>
			<point x="716.2915630282" y="52"/>
			<point x="782.2915630282" y="108" type="curve"/>
			<point x="782.2915630282" y="108" type="line"/>
			<point x="768.2915630282" y="48"/>
			<point x="753.2915630282" y="-12"/>
			<point x="738.2915630282" y="-72" type="curve" smooth="yes"/>
			<point x="718.2915630282" y="-154"/>
			<point x="702.2915630282" y="-210"/>
			<point x="620.2915630282" y="-272" type="curve" smooth="yes"/>
			<point x="528.2915630282" y="-342"/>
			<point x="448.2915630282" y="-342"/>
			<point x="388.2915630282" y="-342" type="curve" smooth="yes"/>
			<point x="300.2915630282" y="-342"/>
			<point x="274.2915630282" y="-338"/>
			<point x="236.2915630282" y="-330" type="curve"/>
			<point x="280.2915630282" y="-302"/>
			<point x="288.2915630282" y="-258"/>
			<point x="288.2915630282" y="-238" type="curve" smooth="yes"/>
			<point x="288.2915630282" y="-174"/>
			<point x="236.2915630282" y="-160"/>
			<point x="208.2915630282" y="-160" type="curve" smooth="yes"/>
			<point x="144.2915630282" y="-160"/>
			<point x="92.2915630282" y="-216"/>
			<point x="92.2915630282" y="-282" type="curve" smooth="yes"/>
			<point x="92.2915630282" y="-408"/>
			<point x="282.2915630282" y="-408"/>
			<point x="390.2915630282" y="-408" type="curve" smooth="yes"/>
			<point x="652.2915630282" y="-408"/>
			<point x="842.2915630282" y="-308"/>
			<point x="888.2915630282" y="-124" type="curve" smooth="yes"/>
			<point x="1102.2915630282" y="730" type="line" smooth="yes"/>
			<point x="1110.2915630282" y="762"/>
			<point x="1110.2915630282" y="772"/>
			<point x="1110.2915630282" y="778" type="curve" smooth="yes"/>
			<point x="1110.2915630282" y="822"/>
			<point x="1076.2915630282" y="844"/>
			<point x="1040.2915630282" y="844" type="curve" smooth="yes"/>
			<point x="1006.2915630282" y="844"/>
			<point x="958.2915630282" y="820"/>
			<point x="946.2915630282" y="764" type="curve"/>
			<point x="924.2915630282" y="798"/>
			<point x="856.2915630282" y="882"/>
			<point x="724.2915630282" y="882" type="curve" smooth="yes"/>
			<point x="456.2915630282" y="882"/>
			<point x="192.2915630282" y="608"/>
		</contour>
		<contour>
			<point x="824.2915630282" y="278" type="line" smooth="yes"/>
			<point x="814.2915630282" y="244"/>
			<point x="814.2915630282" y="240"/>
			<point x="786.2915630282" y="208" type="curve" smooth="yes"/>
			<point x="714.2915630282" y="124"/>
			<point x="614.2915630282" y="66"/>
			<point x="524.2915630282" y="66" type="curve" smooth="yes"/>
			<point x="450.2915630282" y="66"/>
			<point x="364.2915630282" y="112"/>
			<point x="364.2915630282" y="260" type="curve" smooth="yes"/>
			<point x="364.2915630282" y="348"/>
			<point x="410.2915630282" y="548"/>
			<point x="472.2915630282" y="648" type="curve" smooth="yes"/>
			<point x="546.2915630282" y="766"/>
			<point x="646.2915630282" y="816"/>
			<point x="724.2915630282" y="816" type="curve" smooth="yes"/>
			<point x="874.2915630282" y="816"/>
			<point x="916.2915630282" y="668"/>
			<point x="916.2915630282" y="648" type="curve" smooth="yes"/>
			<point x="916.2915630282" y="638"/>
			<point x="912.2915630282" y="626"/>
			<point x="910.2915630282" y="616" type="curve"/>
		</contour>
	</outline>
</glyph>
<glyph name="h" format="2">
  <advance width="725"/>
  <unicode hex="0068"/>
  <outline>
    <contour>
      <point x="465.1457815140882" y="441.0" type="curve" smooth="yes"/>
      <point x="386.1457815140882" y="441.0"/>
      <point x="333.1457815140882" y="398.0"/>
      <point x="293.1457815140882" y="353.0" type="curve"/>
      <point x="371.1457815140882" y="664.0" type="line" smooth="yes"/>
      <point x="372.1457815140882" y="668.0"/>
      <point x="374.1457815140882" y="674.0"/>
      <point x="374.1457815140882" y="679.0" type="curve" smooth="yes"/>
      <point x="374.1457815140882" y="695.0"/>
      <point x="354.1457815140882" y="694.0"/>
      <point x="342.1457815140882" y="693.0" type="curve" smooth="yes"/>
      <point x="304.8497815140882" y="690.003"/>
      <point x="267.5537815140882" y="687.006"/>
      <point x="230.14578151408818" y="684.0" type="curve" smooth="yes"/>
      <point x="213.14578151408818" y="683.0"/>
      <point x="200.14578151408818" y="682.0"/>
      <point x="200.14578151408818" y="659.0" type="curve" smooth="yes"/>
      <point x="200.14578151408818" y="643.0"/>
      <point x="213.14578151408818" y="643.0"/>
      <point x="228.14578151408818" y="643.0" type="curve" smooth="yes"/>
      <point x="258.1457815140882" y="643.0"/>
      <point x="265.1457815140882" y="641.0"/>
      <point x="278.1457815140882" y="636.0" type="curve"/>
      <point x="278.1457815140882" y="624.0"/>
      <point x="278.1457815140882" y="622.0"/>
      <point x="274.1457815140882" y="606.0" type="curve" smooth="yes"/>
      <point x="134.14578151408818" y="47.0" type="line" smooth="yes"/>
      <point x="130.14578151408818" y="31.0"/>
      <point x="130.14578151408818" y="26.0"/>
      <point x="130.14578151408818" y="24.0" type="curve" smooth="yes"/>
      <point x="130.14578151408818" y="-1.0"/>
      <point x="150.14578151408818" y="-10.0"/>
      <point x="165.14578151408818" y="-10.0" type="curve" smooth="yes"/>
      <point x="175.14578151408818" y="-10.0"/>
      <point x="193.14578151408818" y="-6.0"/>
      <point x="206.14578151408818" y="13.0" type="curve"/>
      <point x="209.14578151408818" y="20.0"/>
      <point x="218.14578151408818" y="53.0"/>
      <point x="223.14578151408818" y="74.0" type="curve" smooth="yes"/>
      <point x="233.14578151408818" y="113.0"/>
      <point x="252.37157151408815" y="186.03862"/>
      <point x="262.1457815140882" y="231.0" type="curve" smooth="yes"/>
      <point x="266.1457815140882" y="246.0"/>
      <point x="271.1457815140882" y="264.0"/>
      <point x="299.1457815140882" y="305.0" type="curve" smooth="yes"/>
      <point x="332.1457815140882" y="353.0"/>
      <point x="384.1457815140882" y="408.0"/>
      <point x="461.1457815140882" y="408.0" type="curve" smooth="yes"/>
      <point x="524.1457815140882" y="408.0"/>
      <point x="524.1457815140882" y="356.0"/>
      <point x="524.1457815140882" y="338.0" type="curve" smooth="yes"/>
      <point x="524.1457815140882" y="279.0"/>
      <point x="482.1457815140882" y="173.0"/>
      <point x="463.1457815140882" y="127.0" type="curve"/>
      <point x="457.1457815140882" y="110.0"/>
      <point x="450.1457815140882" y="94.0"/>
      <point x="450.1457815140882" y="77.0" type="curve" smooth="yes"/>
      <point x="450.1457815140882" y="26.0"/>
      <point x="496.1457815140882" y="-10.0"/>
      <point x="551.1457815140882" y="-10.0" type="curve" smooth="yes"/>
      <point x="652.1457815140882" y="-10.0"/>
      <point x="702.1457815140882" y="122.0"/>
      <point x="702.1457815140882" y="144.0" type="curve" smooth="yes"/>
      <point x="702.1457815140882" y="146.0"/>
      <point x="701.1457815140882" y="158.0"/>
      <point x="683.1457815140882" y="158.0" type="curve" smooth="yes"/>
      <point x="669.1457815140882" y="158.0"/>
      <point x="668.1457815140882" y="153.0"/>
      <point x="662.1457815140882" y="134.0" type="curve" smooth="yes"/>
      <point x="646.1457815140882" y="82.0"/>
      <point x="605.1457815140882" y="23.0"/>
      <point x="554.1457815140882" y="23.0" type="curve" smooth="yes"/>
      <point x="535.1457815140882" y="23.0"/>
      <point x="527.1457815140882" y="38.0"/>
      <point x="527.1457815140882" y="59.0" type="curve" smooth="yes"/>
      <point x="527.1457815140882" y="79.0"/>
      <point x="534.1457815140882" y="96.0"/>
      <point x="543.1457815140882" y="117.0" type="curve" smooth="yes"/>
      <point x="558.1457815140882" y="156.0"/>
      <point x="603.1457815140882" y="269.0"/>
      <point x="603.1457815140882" y="325.0" type="curve" smooth="yes"/>
      <point x="603.1457815140882" y="404.0"/>
      <point x="546.1457815140882" y="441.0"/>
    </contour>
  </outline>
</glyph>
<glyph name="i" format="2">
	<unicode hex="0069"/>
	<advance width="445"/>
	<outline>
		<contour>
			<point x="386.1457815141" y="624" type="curve" smooth="yes"/>
			<point x="386.1457815141" y="648"/>
			<point x="368.1457815141" y="664"/>
			<point x="345.1457815141" y="664" type="curve" smooth="yes"/>
			<point x="318.1457815141" y="664"/>
			<point x="289.1457815141" y="638"/>
			<point x="289.1457815141" y="609" type="curve" smooth="yes"/>
			<point x="289.1457815141" y="584"/>
			<point x="307.1457815141" y="569"/>
			<point x="329.1457815141" y="569" type="curve" smooth="yes"/>
			<point x="361.1457815141" y="569"/>
			<point x="386.1457815141" y="599"/>
		</contour>
		<contour>
			<point x="170.1457815141" y="77" type="curve" smooth="yes"/>
			<point x="170.1457815141" y="26"/>
			<point x="216.1457815141" y="-10"/>
			<point x="271.1457815141" y="-10" type="curve" smooth="yes"/>
			<point x="372.1457815141" y="-10"/>
			<point x="422.1457815141" y="122"/>
			<point x="422.1457815141" y="144" type="curve" smooth="yes"/>
			<point x="422.1457815141" y="146"/>
			<point x="421.1457815141" y="158"/>
			<point x="403.1457815141" y="158" type="curve" smooth="yes"/>
			<point x="389.1457815141" y="158"/>
			<point x="388.1457815141" y="153"/>
			<point x="382.1457815141" y="134" type="curve" smooth="yes"/>
			<point x="366.1457815141" y="83"/>
			<point x="325.1457815141" y="23"/>
			<point x="274.1457815141" y="23" type="curve" smooth="yes"/>
			<point x="256.1457815141" y="23"/>
			<point x="247.1457815141" y="35"/>
			<point x="247.1457815141" y="59" type="curve" smooth="yes"/>
			<point x="247.1457815141" y="79"/>
			<point x="253.1457815141" y="94"/>
			<point x="266.1457815141" y="125" type="curve" smooth="yes"/>
			<point x="330.1457815141" y="285"/>
			<point x="338.1457815141" y="304"/>
			<point x="343.1457815141" y="318" type="curve" smooth="yes"/>
			<point x="346.1457815141" y="327"/>
			<point x="350.1457815141" y="337"/>
			<point x="350.1457815141" y="354" type="curve" smooth="yes"/>
			<point x="350.1457815141" y="410"/>
			<point x="300.1457815141" y="441"/>
			<point x="250.1457815141" y="441" type="curve" smooth="yes"/>
			<point x="148.1457815141" y="441"/>
			<point x="99.1457815141" y="309"/>
			<point x="99.1457815141" y="287" type="curve" smooth="yes"/>
			<point x="99.1457815141" y="282"/>
			<point x="103.1457815141" y="273"/>
			<point x="117.1457815141" y="273" type="curve" smooth="yes"/>
			<point x="131.1457815141" y="273"/>
			<point x="134.1457815141" y="279"/>
			<point x="137.1457815141" y="288" type="curve" smooth="yes"/>
			<point x="165.1457815141" y="385"/>
			<point x="218.1457815141" y="408"/>
			<point x="246.1457815141" y="408" type="curve" smooth="yes"/>
			<point x="266.1457815141" y="408"/>
			<point x="273.1457815141" y="395"/>
			<point x="273.1457815141" y="372" type="curve" smooth="yes"/>
			<point x="273.1457815141" y="352"/>
			<point x="267.1457815141" y="337"/>
			<point x="265.1457815141" y="330" type="curve"/>
			<point x="205.1457815141" y="182"/>
			<point x="201.1457815141" y="171"/>
			<point x="188.1457815141" y="137" type="curve" smooth="yes"/>
			<point x="175.1457815141" y="107"/>
			<point x="170.1457815141" y="94"/>
		</contour>
	</outline>
</glyph>
<glyph name="j" format="2">
	<unicode hex="006A"/>
	<advance width="511"/>
	<outline>
		<contour>
			<point x="416.72135955" y="624" type="curve" smooth="yes"/>
			<point x="416.72135955" y="654"/>
			<point x="392.72135955" y="664"/>
			<point x="376.72135955" y="664" type="curve" smooth="yes"/>
			<point x="344.72135955" y="664"/>
			<point x="319.72135955" y="633"/>
			<point x="319.72135955" y="609" type="curve" smooth="yes"/>
			<point x="319.72135955" y="588"/>
			<point x="335.72135955" y="569"/>
			<point x="360.72135955" y="569" type="curve" smooth="yes"/>
			<point x="386.72135955" y="569"/>
			<point x="416.72135955" y="594"/>
		</contour>
		<contour>
			<point x="203.72135955" y="-45" type="line" smooth="yes"/>
			<point x="184.72135955" y="-120"/>
			<point x="125.72135955" y="-171"/>
			<point x="67.72135955" y="-171" type="curve" smooth="yes"/>
			<point x="64.72135955" y="-171"/>
			<point x="36.72135955" y="-170"/>
			<point x="36.72135955" y="-166" type="curve" smooth="yes"/>
			<point x="36.72135955" y="-162"/>
			<point x="61.72135955" y="-150"/>
			<point x="61.72135955" y="-118" type="curve" smooth="yes"/>
			<point x="61.72135955" y="-88"/>
			<point x="36.72135955" y="-80"/>
			<point x="21.72135955" y="-80" type="curve" smooth="yes"/>
			<point x="-5.27864045" y="-80"/>
			<point x="-35.27864045" y="-102"/>
			<point x="-35.27864045" y="-139" type="curve" smooth="yes"/>
			<point x="-35.27864045" y="-192"/>
			<point x="27.72135955" y="-204"/>
			<point x="68.72135955" y="-204" type="curve" smooth="yes"/>
			<point x="135.72135955" y="-204"/>
			<point x="255.72135955" y="-166"/>
			<point x="285.72135955" y="-46" type="curve" smooth="yes"/>
			<point x="375.72135955" y="312" type="line" smooth="yes"/>
			<point x="377.72135955" y="322"/>
			<point x="380.72135955" y="331"/>
			<point x="380.72135955" y="345" type="curve" smooth="yes"/>
			<point x="380.72135955" y="401"/>
			<point x="330.72135955" y="441"/>
			<point x="266.72135955" y="441" type="curve" smooth="yes"/>
			<point x="153.72135955" y="441"/>
			<point x="83.72135955" y="306"/>
			<point x="83.72135955" y="287" type="curve" smooth="yes"/>
			<point x="83.72135955" y="281"/>
			<point x="87.72135955" y="273"/>
			<point x="101.72135955" y="273" type="curve" smooth="yes"/>
			<point x="115.72135955" y="273"/>
			<point x="116.72135955" y="277"/>
			<point x="123.72135955" y="291" type="curve" smooth="yes"/>
			<point x="152.72135955" y="356"/>
			<point x="208.72135955" y="408"/>
			<point x="263.72135955" y="408" type="curve" smooth="yes"/>
			<point x="293.72135955" y="408"/>
			<point x="300.72135955" y="383"/>
			<point x="300.72135955" y="358" type="curve" smooth="yes"/>
			<point x="300.72135955" y="345"/>
			<point x="298.72135955" y="331"/>
			<point x="297.72135955" y="328" type="curve"/>
		</contour>
	</outline>
</glyph>
<glyph name="k" format="2">
	<unicode hex="006B"/>
	<advance width="1320"/>
	<outline>
		<contour>
			<point x="902.2915630282" y="-20" type="curve" smooth="yes"/>
			<point x="991.2915630282" y="-20"/>
			<point x="1053.2915630282" y="40"/>
			<point x="1095.2915630282" y="108" type="curve" smooth="yes"/>
			<point x="1146.2915630282" y="188"/>
			<point x="1166.2915630282" y="279"/>
			<point x="1166.2915630282" y="288" type="curve" smooth="yes"/>
			<point x="1166.2915630282" y="292"/>
			<point x="1164.2915630282" y="316"/>
			<point x="1128.2915630282" y="316" type="curve" smooth="yes"/>
			<point x="1100.2915630282" y="316"/>
			<point x="1096.2915630282" y="304"/>
			<point x="1086.2915630282" y="270" type="curve" smooth="yes"/>
			<point x="1066.2915630282" y="198"/>
			<point x="1010.2915630282" y="46"/>
			<point x="908.2915630282" y="46" type="curve" smooth="yes"/>
			<point x="832.2915630282" y="46"/>
			<point x="832.2915630282" y="132"/>
			<point x="832.2915630282" y="154" type="curve" smooth="yes"/>
			<point x="832.2915630282" y="186"/>
			<point x="832.2915630282" y="188"/>
			<point x="842.2915630282" y="228" type="curve"/>
			<point x="842.2915630282" y="230"/>
			<point x="852.2915630282" y="270"/>
			<point x="852.2915630282" y="294" type="curve" smooth="yes"/>
			<point x="852.2915630282" y="448"/>
			<point x="678.2915630282" y="496"/>
			<point x="524.2915630282" y="510" type="curve"/>
			<point x="572.2915630282" y="540"/>
			<point x="614.2915630282" y="572"/>
			<point x="694.2915630282" y="642" type="curve" smooth="yes"/>
			<point x="794.2915630282" y="730"/>
			<point x="898.2915630282" y="816"/>
			<point x="1008.2915630282" y="816" type="curve" smooth="yes"/>
			<point x="1034.2915630282" y="816"/>
			<point x="1058.2915630282" y="810"/>
			<point x="1076.2915630282" y="790" type="curve"/>
			<point x="1006.2915630282" y="776"/>
			<point x="976.2915630282" y="720"/>
			<point x="976.2915630282" y="678" type="curve" smooth="yes"/>
			<point x="976.2915630282" y="614"/>
			<point x="1028.2915630282" y="600"/>
			<point x="1056.2915630282" y="600" type="curve" smooth="yes"/>
			<point x="1100.2915630282" y="600"/>
			<point x="1172.2915630282" y="632"/>
			<point x="1172.2915630282" y="732" type="curve" smooth="yes"/>
			<point x="1172.2915630282" y="818"/>
			<point x="1108.2915630282" y="882"/>
			<point x="1010.2915630282" y="882" type="curve" smooth="yes"/>
			<point x="884.2915630282" y="882"/>
			<point x="766.2915630282" y="786"/>
			<point x="674.2915630282" y="706" type="curve" smooth="yes"/>
			<point x="570.2915630282" y="616"/>
			<point x="508.2915630282" y="564"/>
			<point x="434.2915630282" y="536" type="curve"/>
			<point x="632.2915630282" y="1328" type="line" smooth="yes"/>
			<point x="634.2915630282" y="1336"/>
			<point x="638.2915630282" y="1348"/>
			<point x="638.2915630282" y="1358" type="curve" smooth="yes"/>
			<point x="638.2915630282" y="1390"/>
			<point x="598.2915630282" y="1388"/>
			<point x="574.2915630282" y="1386" type="curve" smooth="yes"/>
			<point x="500.2915630282" y="1380"/>
			<point x="425.2915630282" y="1374"/>
			<point x="350.2915630282" y="1368" type="curve" smooth="yes"/>
			<point x="316.2915630282" y="1366"/>
			<point x="290.2915630282" y="1364"/>
			<point x="290.2915630282" y="1316" type="curve" smooth="yes"/>
			<point x="290.2915630282" y="1286"/>
			<point x="316.2915630282" y="1286"/>
			<point x="348.2915630282" y="1286" type="curve" smooth="yes"/>
			<point x="406.2915630282" y="1286"/>
			<point x="420.2915630282" y="1280"/>
			<point x="446.2915630282" y="1272" type="curve"/>
			<point x="446.2915630282" y="1248"/>
			<point x="446.2915630282" y="1244"/>
			<point x="438.2915630282" y="1212" type="curve" smooth="yes"/>
			<point x="158.2915630282" y="94" type="line" smooth="yes"/>
			<point x="150.2915630282" y="62"/>
			<point x="150.2915630282" y="52"/>
			<point x="150.2915630282" y="48" type="curve" smooth="yes"/>
			<point x="150.2915630282" y="-2"/>
			<point x="190.2915630282" y="-20"/>
			<point x="220.2915630282" y="-20" type="curve" smooth="yes"/>
			<point x="240.2915630282" y="-20"/>
			<point x="276.2915630282" y="-12"/>
			<point x="302.2915630282" y="26" type="curve"/>
			<point x="316.2915630282" y="52"/>
			<point x="396.2915630282" y="384"/>
			<point x="410.2915630282" y="448" type="curve"/>
			<point x="544.2915630282" y="438"/>
			<point x="688.2915630282" y="406"/>
			<point x="688.2915630282" y="288" type="curve" smooth="yes"/>
			<point x="688.2915630282" y="278"/>
			<point x="688.2915630282" y="268"/>
			<point x="682.2915630282" y="246" type="curve"/>
			<point x="676.2915630282" y="216"/>
			<point x="676.2915630282" y="204"/>
			<point x="676.2915630282" y="188" type="curve" smooth="yes"/>
			<point x="676.2915630282" y="56"/>
			<point x="788.2915630282" y="-20"/>
		</contour>
	</outline>
</glyph>
<glyph name="l" format="2">
	<unicode hex="006C"/>
	<advance width="401"/>
	<outline>
		<contour>
			<point x="198.1457815141" y="108" type="curve" smooth="yes"/>
			<point x="338.1457815141" y="664" type="line" smooth="yes"/>
			<point x="339.1457815141" y="668"/>
			<point x="341.1457815141" y="674"/>
			<point x="341.1457815141" y="679" type="curve" smooth="yes"/>
			<point x="341.1457815141" y="695"/>
			<point x="321.1457815141" y="694"/>
			<point x="309.1457815141" y="693" type="curve" smooth="yes"/>
			<point x="271.8497815141" y="690.003"/>
			<point x="234.5537815141" y="687.006"/>
			<point x="197.1457815141" y="684" type="curve" smooth="yes"/>
			<point x="180.1457815141" y="683"/>
			<point x="167.1457815141" y="682"/>
			<point x="167.1457815141" y="658" type="curve" smooth="yes"/>
			<point x="167.1457815141" y="643"/>
			<point x="180.1457815141" y="643"/>
			<point x="196.1457815141" y="643" type="curve" smooth="yes"/>
			<point x="225.1457815141" y="643"/>
			<point x="232.1457815141" y="640"/>
			<point x="245.1457815141" y="636" type="curve"/>
			<point x="245.1457815141" y="624"/>
			<point x="245.1457815141" y="622"/>
			<point x="241.1457815141" y="606" type="curve" smooth="yes"/>
			<point x="119.1457815141" y="120" type="line" smooth="yes"/>
			<point x="116.1457815141" y="109"/>
			<point x="114.1457815141" y="100"/>
			<point x="114.1457815141" y="86" type="curve" smooth="yes"/>
			<point x="114.1457815141" y="25"/>
			<point x="170.1457815141" y="-10"/>
			<point x="226.1457815141" y="-10" type="curve" smooth="yes"/>
			<point x="268.1457815141" y="-10"/>
			<point x="292.1457815141" y="17"/>
			<point x="306.1457815141" y="40" type="curve" smooth="yes"/>
			<point x="333.1457815141" y="83"/>
			<point x="346.1457815141" y="140"/>
			<point x="346.1457815141" y="144" type="curve" smooth="yes"/>
			<point x="346.1457815141" y="146"/>
			<point x="345.1457815141" y="158"/>
			<point x="327.1457815141" y="158" type="curve" smooth="yes"/>
			<point x="312.1457815141" y="158"/>
			<point x="310.1457815141" y="151"/>
			<point x="306.1457815141" y="135" type="curve" smooth="yes"/>
			<point x="288.1457815141" y="64"/>
			<point x="265.1457815141" y="23"/>
			<point x="230.1457815141" y="23" type="curve" smooth="yes"/>
			<point x="193.1457815141" y="23"/>
			<point x="193.1457815141" y="63"/>
			<point x="193.1457815141" y="73" type="curve" smooth="yes"/>
			<point x="193.1457815141" y="89"/>
			<point x="195.1457815141" y="97"/>
		</contour>
	</outline>
</glyph>
<glyph name="m" format="2">
	<unicode hex="006D"/>
	<advance width="2186"/>
	<outline>
		<contour>
			<point x="308.2915630282" y="-20" type="curve" smooth="yes"/>
			<point x="344.2915630282" y="-20"/>
			<point x="378.2915630282" y="4"/>
			<point x="394.2915630282" y="34" type="curve"/>
			<point x="398.2915630282" y="46"/>
			<point x="416.2915630282" y="116"/>
			<point x="426.2915630282" y="156" type="curve" smooth="yes"/>
			<point x="482.2915630282" y="388"/>
			<point x="492.2915630282" y="424"/>
			<point x="504.2915630282" y="470" type="curve" smooth="yes"/>
			<point x="522.2915630282" y="538"/>
			<point x="592.2915630282" y="644"/>
			<point x="666.2915630282" y="718" type="curve" smooth="yes"/>
			<point x="706.2915630282" y="756"/>
			<point x="792.2915630282" y="816"/>
			<point x="900.2915630282" y="816" type="curve" smooth="yes"/>
			<point x="1028.2915630282" y="816"/>
			<point x="1028.2915630282" y="714"/>
			<point x="1028.2915630282" y="676" type="curve" smooth="yes"/>
			<point x="1028.2915630282" y="628"/>
			<point x="1008.2915630282" y="548"/>
			<point x="992.2915630282" y="484" type="curve" smooth="yes"/>
			<point x="966.2915630282" y="380"/>
			<point x="940.2915630282" y="276"/>
			<point x="914.2915630282" y="172" type="curve" smooth="yes"/>
			<point x="904.2915630282" y="130"/>
			<point x="886.2915630282" y="60"/>
			<point x="886.2915630282" y="46" type="curve" smooth="yes"/>
			<point x="886.2915630282" y="2"/>
			<point x="920.2915630282" y="-20"/>
			<point x="956.2915630282" y="-20" type="curve" smooth="yes"/>
			<point x="992.2915630282" y="-20"/>
			<point x="1026.2915630282" y="4"/>
			<point x="1042.2915630282" y="34" type="curve"/>
			<point x="1046.2915630282" y="46"/>
			<point x="1064.2915630282" y="116"/>
			<point x="1074.2915630282" y="156" type="curve" smooth="yes"/>
			<point x="1130.2915630282" y="388"/>
			<point x="1140.2915630282" y="424"/>
			<point x="1152.2915630282" y="470" type="curve" smooth="yes"/>
			<point x="1170.2915630282" y="538"/>
			<point x="1240.2915630282" y="644"/>
			<point x="1314.2915630282" y="718" type="curve" smooth="yes"/>
			<point x="1354.2915630282" y="756"/>
			<point x="1440.2915630282" y="816"/>
			<point x="1548.2915630282" y="816" type="curve" smooth="yes"/>
			<point x="1676.2915630282" y="816"/>
			<point x="1676.2915630282" y="714"/>
			<point x="1676.2915630282" y="676" type="curve" smooth="yes"/>
			<point x="1676.2915630282" y="558"/>
			<point x="1590.2915630282" y="344"/>
			<point x="1554.2915630282" y="254" type="curve" smooth="yes"/>
			<point x="1542.2915630282" y="220"/>
			<point x="1528.2915630282" y="188"/>
			<point x="1528.2915630282" y="154" type="curve" smooth="yes"/>
			<point x="1528.2915630282" y="52"/>
			<point x="1620.2915630282" y="-20"/>
			<point x="1730.2915630282" y="-20" type="curve" smooth="yes"/>
			<point x="1932.2915630282" y="-20"/>
			<point x="2032.2915630282" y="244"/>
			<point x="2032.2915630282" y="288" type="curve" smooth="yes"/>
			<point x="2032.2915630282" y="292"/>
			<point x="2030.2915630282" y="316"/>
			<point x="1994.2915630282" y="316" type="curve" smooth="yes"/>
			<point x="1966.2915630282" y="316"/>
			<point x="1964.2915630282" y="306"/>
			<point x="1952.2915630282" y="268" type="curve" smooth="yes"/>
			<point x="1916.2915630282" y="152"/>
			<point x="1830.2915630282" y="46"/>
			<point x="1738.2915630282" y="46" type="curve" smooth="yes"/>
			<point x="1710.2915630282" y="46"/>
			<point x="1682.2915630282" y="58"/>
			<point x="1682.2915630282" y="118" type="curve" smooth="yes"/>
			<point x="1682.2915630282" y="158"/>
			<point x="1696.2915630282" y="194"/>
			<point x="1714.2915630282" y="236" type="curve" smooth="yes"/>
			<point x="1736.2915630282" y="292"/>
			<point x="1834.2915630282" y="534"/>
			<point x="1834.2915630282" y="650" type="curve" smooth="yes"/>
			<point x="1834.2915630282" y="814"/>
			<point x="1710.2915630282" y="882"/>
			<point x="1558.2915630282" y="882" type="curve" smooth="yes"/>
			<point x="1448.2915630282" y="882"/>
			<point x="1316.2915630282" y="842"/>
			<point x="1186.2915630282" y="672" type="curve"/>
			<point x="1174.2915630282" y="820"/>
			<point x="1056.2915630282" y="882"/>
			<point x="910.2915630282" y="882" type="curve" smooth="yes"/>
			<point x="810.2915630282" y="882"/>
			<point x="682.2915630282" y="850"/>
			<point x="554.2915630282" y="692" type="curve"/>
			<point x="544.2915630282" y="844"/>
			<point x="404.2915630282" y="882"/>
			<point x="328.2915630282" y="882" type="curve" smooth="yes"/>
			<point x="252.2915630282" y="882"/>
			<point x="200.2915630282" y="836"/>
			<point x="164.2915630282" y="772" type="curve" smooth="yes"/>
			<point x="112.2915630282" y="688"/>
			<point x="90.2915630282" y="582"/>
			<point x="90.2915630282" y="576" type="curve" smooth="yes"/>
			<point x="90.2915630282" y="554"/>
			<point x="108.2915630282" y="546"/>
			<point x="126.2915630282" y="546" type="curve" smooth="yes"/>
			<point x="158.2915630282" y="546"/>
			<point x="160.2915630282" y="560"/>
			<point x="170.2915630282" y="592" type="curve"/>
			<point x="210.2915630282" y="750"/>
			<point x="258.2915630282" y="816"/>
			<point x="322.2915630282" y="816" type="curve" smooth="yes"/>
			<point x="390.2915630282" y="816"/>
			<point x="394.2915630282" y="746"/>
			<point x="394.2915630282" y="714" type="curve" smooth="yes"/>
			<point x="394.2915630282" y="682"/>
			<point x="374.2915630282" y="602"/>
			<point x="360.2915630282" y="546" type="curve" smooth="yes"/>
			<point x="330.2915630282" y="430"/>
			<point x="303.2915630282" y="307"/>
			<point x="276.2915630282" y="214" type="curve" smooth="yes"/>
			<point x="262.2915630282" y="158"/>
			<point x="238.2915630282" y="58"/>
			<point x="238.2915630282" y="46" type="curve" smooth="yes"/>
			<point x="238.2915630282" y="2"/>
			<point x="272.2915630282" y="-20"/>
		</contour>
	</outline>
</glyph>
<glyph name="n" format="2">
	<unicode hex="006E"/>
	<advance width="1538"/>
	<outline>
		<contour>
			<point x="245" y="-20" type="curve" smooth="yes"/>
			<point x="281" y="-20"/>
			<point x="317" y="4"/>
			<point x="331" y="34" type="curve" smooth="yes"/>
			<point x="337" y="46"/>
			<point x="353" y="116"/>
			<point x="363" y="156" type="curve" smooth="yes"/>
			<point x="419" y="388"/>
			<point x="429" y="424"/>
			<point x="441" y="470" type="curve" smooth="yes"/>
			<point x="459" y="538"/>
			<point x="529" y="644"/>
			<point x="603" y="718" type="curve" smooth="yes"/>
			<point x="643" y="756"/>
			<point x="729" y="816"/>
			<point x="837" y="816" type="curve" smooth="yes"/>
			<point x="965" y="816"/>
			<point x="965" y="714"/>
			<point x="965" y="676" type="curve" smooth="yes"/>
			<point x="965" y="558"/>
			<point x="879" y="344"/>
			<point x="843" y="254" type="curve" smooth="yes"/>
			<point x="831" y="220"/>
			<point x="817" y="188"/>
			<point x="817" y="154" type="curve" smooth="yes"/>
			<point x="817" y="52"/>
			<point x="909" y="-20"/>
			<point x="1019" y="-20" type="curve" smooth="yes"/>
			<point x="1221" y="-20"/>
			<point x="1321" y="244"/>
			<point x="1321" y="288" type="curve" smooth="yes"/>
			<point x="1321" y="292"/>
			<point x="1319" y="316"/>
			<point x="1283" y="316" type="curve" smooth="yes"/>
			<point x="1255" y="316"/>
			<point x="1253" y="306"/>
			<point x="1241" y="268" type="curve" smooth="yes"/>
			<point x="1209" y="162"/>
			<point x="1127" y="46"/>
			<point x="1025" y="46" type="curve" smooth="yes"/>
			<point x="987" y="46"/>
			<point x="971" y="76"/>
			<point x="971" y="118" type="curve" smooth="yes"/>
			<point x="971" y="158"/>
			<point x="985" y="192"/>
			<point x="1003" y="234" type="curve" smooth="yes"/>
			<point x="1033" y="312"/>
			<point x="1123" y="538"/>
			<point x="1123" y="650" type="curve" smooth="yes"/>
			<point x="1123" y="814"/>
			<point x="999" y="882"/>
			<point x="847" y="882" type="curve" smooth="yes"/>
			<point x="747" y="882"/>
			<point x="619" y="850"/>
			<point x="491" y="692" type="curve"/>
			<point x="481" y="844"/>
			<point x="341" y="882"/>
			<point x="265" y="882" type="curve" smooth="yes"/>
			<point x="189" y="882"/>
			<point x="137" y="836"/>
			<point x="101" y="772" type="curve" smooth="yes"/>
			<point x="51" y="690"/>
			<point x="27" y="584"/>
			<point x="27" y="576" type="curve" smooth="yes"/>
			<point x="27" y="554"/>
			<point x="45" y="546"/>
			<point x="63" y="546" type="curve" smooth="yes"/>
			<point x="95" y="546"/>
			<point x="97" y="560"/>
			<point x="107" y="592" type="curve"/>
			<point x="147" y="752"/>
			<point x="195" y="816"/>
			<point x="259" y="816" type="curve" smooth="yes"/>
			<point x="331" y="816"/>
			<point x="331" y="734"/>
			<point x="331" y="714" type="curve" smooth="yes"/>
			<point x="331" y="682"/>
			<point x="311" y="602"/>
			<point x="297" y="546" type="curve" smooth="yes"/>
			<point x="267" y="430"/>
			<point x="240" y="307"/>
			<point x="213" y="214" type="curve" smooth="yes"/>
			<point x="199" y="158"/>
			<point x="175" y="58"/>
			<point x="175" y="46" type="curve" smooth="yes"/>
			<point x="175" y="2"/>
			<point x="209" y="-20"/>
		</contour>
	</outline>
</glyph>
<glyph name="o" format="2">
	<unicode hex="006F"/>
	<advance width="1224"/>
	<outline>
		<contour>
			<point x="1104.2915630282" y="526" type="curve" smooth="yes"/>
			<point x="1104.2915630282" y="728"/>
			<point x="950.2915630282" y="882"/>
			<point x="716.2915630282" y="882" type="curve" smooth="yes"/>
			<point x="414.2915630282" y="882"/>
			<point x="120.2915630282" y="616"/>
			<point x="120.2915630282" y="336" type="curve" smooth="yes"/>
			<point x="120.2915630282" y="122"/>
			<point x="288.2915630282" y="-20"/>
			<point x="506.2915630282" y="-20" type="curve" smooth="yes"/>
			<point x="818.2915630282" y="-20"/>
			<point x="1104.2915630282" y="252"/>
		</contour>
		<contour>
			<point x="510.2915630282" y="46" type="curve" smooth="yes"/>
			<point x="394.2915630282" y="46"/>
			<point x="294.2915630282" y="116"/>
			<point x="294.2915630282" y="270" type="curve" smooth="yes"/>
			<point x="294.2915630282" y="338"/>
			<point x="324.2915630282" y="520"/>
			<point x="408.2915630282" y="640" type="curve" smooth="yes"/>
			<point x="492.2915630282" y="762"/>
			<point x="616.2915630282" y="816"/>
			<point x="714.2915630282" y="816" type="curve" smooth="yes"/>
			<point x="816.2915630282" y="816"/>
			<point x="930.2915630282" y="758"/>
			<point x="930.2915630282" y="592" type="curve" smooth="yes"/>
			<point x="930.2915630282" y="542"/>
			<point x="910.2915630282" y="342"/>
			<point x="798.2915630282" y="198" type="curve" smooth="yes"/>
			<point x="738.2915630282" y="118"/>
			<point x="624.2915630282" y="46"/>
		</contour>
	</outline>
</glyph>
